  0
SECTION
  2
BLOCKS
  0
ENDSEC
  0
SECTION
  2
ENTITIES
  0
LINE
  8
0
 10
434.3
 20
216.703
 11
435.323
 21
217.224
  0
LINE
  8
0
 10
435.323
 20
217.224
 11
436.319
 21
217.871
  0
LINE
  8
0
 10
436.319
 20
217.871
 11
437.242
 21
218.618
  0
LINE
  8
0
 10
437.242
 20
218.618
 11
438.082
 21
219.458
  0
LINE
  8
0
 10
438.082
 20
219.458
 11
438.829
 21
220.381
  0
LINE
  8
0
 10
438.829
 20
220.381
 11
439.476
 21
221.377
  0
LINE
  8
0
 10
439.476
 20
221.377
 11
440.015
 21
222.435
  0
LINE
  8
0
 10
440.015
 20
222.435
 11
440.441
 21
223.544
  0
LINE
  8
0
 10
440.441
 20
223.544
 11
440.748
 21
224.691
  0
LINE
  8
0
 10
440.748
 20
224.691
 11
440.934
 21
225.864
  0
LINE
  8
0
 10
440.934
 20
225.864
 11
440.996
 21
227.05
  0
LINE
  8
0
 10
440.996
 20
227.05
 11
440.934
 21
228.236
  0
LINE
  8
0
 10
440.934
 20
228.236
 11
440.748
 21
229.409
  0
LINE
  8
0
 10
440.748
 20
229.409
 11
440.441
 21
230.556
  0
LINE
  8
0
 10
440.441
 20
230.556
 11
440.015
 21
231.665
  0
LINE
  8
0
 10
440.015
 20
231.665
 11
439.476
 21
232.723
  0
LINE
  8
0
 10
439.476
 20
232.723
 11
438.829
 21
233.719
  0
LINE
  8
0
 10
438.829
 20
233.719
 11
438.082
 21
234.642
  0
LINE
  8
0
 10
438.082
 20
234.642
 11
437.242
 21
235.482
  0
LINE
  8
0
 10
437.242
 20
235.482
 11
436.319
 21
236.229
  0
LINE
  8
0
 10
436.319
 20
236.229
 11
435.323
 21
236.876
  0
LINE
  8
0
 10
435.323
 20
236.876
 11
434.265
 21
237.415
  0
LINE
  8
0
 10
434.265
 20
237.415
 11
433.156
 21
237.841
  0
LINE
  8
0
 10
433.156
 20
237.841
 11
432.009
 21
238.148
  0
LINE
  8
0
 10
432.009
 20
238.148
 11
430.836
 21
238.334
  0
LINE
  8
0
 10
430.836
 20
238.334
 11
429.65
 21
238.396
  0
LINE
  8
0
 10
429.65
 20
238.396
 11
428.464
 21
238.334
  0
LINE
  8
0
 10
428.464
 20
238.334
 11
427.291
 21
238.148
  0
LINE
  8
0
 10
427.291
 20
238.148
 11
426.144
 21
237.841
  0
LINE
  8
0
 10
426.144
 20
237.841
 11
425.035
 21
237.415
  0
LINE
  8
0
 10
425.035
 20
237.415
 11
423.977
 21
236.876
  0
LINE
  8
0
 10
423.977
 20
236.876
 11
422.981
 21
236.229
  0
LINE
  8
0
 10
422.981
 20
236.229
 11
422.058
 21
235.482
  0
LINE
  8
0
 10
422.058
 20
235.482
 11
421.218
 21
234.642
  0
LINE
  8
0
 10
421.218
 20
234.642
 11
420.471
 21
233.719
  0
LINE
  8
0
 10
420.471
 20
233.719
 11
419.824
 21
232.723
  0
LINE
  8
0
 10
419.824
 20
232.723
 11
419.285
 21
231.665
  0
LINE
  8
0
 10
419.285
 20
231.665
 11
418.859
 21
230.556
  0
LINE
  8
0
 10
418.859
 20
230.556
 11
418.552
 21
229.409
  0
LINE
  8
0
 10
418.552
 20
229.409
 11
418.366
 21
228.236
  0
LINE
  8
0
 10
418.366
 20
228.236
 11
418.304
 21
227.05
  0
LINE
  8
0
 10
418.304
 20
227.05
 11
418.366
 21
225.864
  0
LINE
  8
0
 10
418.366
 20
225.864
 11
418.552
 21
224.691
  0
LINE
  8
0
 10
418.552
 20
224.691
 11
418.859
 21
223.544
  0
LINE
  8
0
 10
418.859
 20
223.544
 11
419.285
 21
222.435
  0
LINE
  8
0
 10
419.285
 20
222.435
 11
419.824
 21
221.377
  0
LINE
  8
0
 10
419.824
 20
221.377
 11
420.471
 21
220.381
  0
LINE
  8
0
 10
420.471
 20
220.381
 11
421.218
 21
219.458
  0
LINE
  8
0
 10
421.218
 20
219.458
 11
422.058
 21
218.618
  0
LINE
  8
0
 10
422.058
 20
218.618
 11
422.981
 21
217.871
  0
LINE
  8
0
 10
422.981
 20
217.871
 11
423.977
 21
217.224
  0
LINE
  8
0
 10
423.977
 20
217.224
 11
425
 21
216.703
  0
LINE
  8
0
 10
425
 20
216.703
 11
425
 21
134.8
  0
LINE
  8
0
 10
425
 20
134.8
 11
434.3
 21
134.8
  0
LINE
  8
0
 10
434.3
 20
134.8
 11
434.3
 21
216.703
  0
LINE
  8
0
 10
429.138
 20
222.175
 11
428.631
 21
222.256
  0
LINE
  8
0
 10
428.631
 20
222.256
 11
428.135
 21
222.388
  0
LINE
  8
0
 10
428.135
 20
222.388
 11
427.656
 21
222.572
  0
LINE
  8
0
 10
427.656
 20
222.572
 11
427.199
 21
222.805
  0
LINE
  8
0
 10
427.199
 20
222.805
 11
426.769
 21
223.085
  0
LINE
  8
0
 10
426.769
 20
223.085
 11
426.37
 21
223.407
  0
LINE
  8
0
 10
426.37
 20
223.407
 11
426.007
 21
223.77
  0
LINE
  8
0
 10
426.007
 20
223.77
 11
425.685
 21
224.169
  0
LINE
  8
0
 10
425.685
 20
224.169
 11
425.405
 21
224.599
  0
LINE
  8
0
 10
425.405
 20
224.599
 11
425.172
 21
225.056
  0
LINE
  8
0
 10
425.172
 20
225.056
 11
424.988
 21
225.535
  0
LINE
  8
0
 10
424.988
 20
225.535
 11
424.856
 21
226.031
  0
LINE
  8
0
 10
424.856
 20
226.031
 11
424.775
 21
226.538
  0
LINE
  8
0
 10
424.775
 20
226.538
 11
424.748
 21
227.05
  0
LINE
  8
0
 10
424.748
 20
227.05
 11
424.775
 21
227.562
  0
LINE
  8
0
 10
424.775
 20
227.562
 11
424.856
 21
228.069
  0
LINE
  8
0
 10
424.856
 20
228.069
 11
424.988
 21
228.565
  0
LINE
  8
0
 10
424.988
 20
228.565
 11
425.172
 21
229.044
  0
LINE
  8
0
 10
425.172
 20
229.044
 11
425.405
 21
229.501
  0
LINE
  8
0
 10
425.405
 20
229.501
 11
425.685
 21
229.931
  0
LINE
  8
0
 10
425.685
 20
229.931
 11
426.007
 21
230.33
  0
LINE
  8
0
 10
426.007
 20
230.33
 11
426.37
 21
230.693
  0
LINE
  8
0
 10
426.37
 20
230.693
 11
426.769
 21
231.015
  0
LINE
  8
0
 10
426.769
 20
231.015
 11
427.199
 21
231.295
  0
LINE
  8
0
 10
427.199
 20
231.295
 11
427.656
 21
231.528
  0
LINE
  8
0
 10
427.656
 20
231.528
 11
428.135
 21
231.712
  0
LINE
  8
0
 10
428.135
 20
231.712
 11
428.631
 21
231.844
  0
LINE
  8
0
 10
428.631
 20
231.844
 11
429.138
 21
231.925
  0
LINE
  8
0
 10
429.138
 20
231.925
 11
429.65
 21
231.952
  0
LINE
  8
0
 10
429.65
 20
231.952
 11
430.162
 21
231.925
  0
LINE
  8
0
 10
430.162
 20
231.925
 11
430.669
 21
231.844
  0
LINE
  8
0
 10
430.669
 20
231.844
 11
431.165
 21
231.712
  0
LINE
  8
0
 10
431.165
 20
231.712
 11
431.644
 21
231.528
  0
LINE
  8
0
 10
431.644
 20
231.528
 11
432.101
 21
231.295
  0
LINE
  8
0
 10
432.101
 20
231.295
 11
432.531
 21
231.015
  0
LINE
  8
0
 10
432.531
 20
231.015
 11
432.93
 21
230.693
  0
LINE
  8
0
 10
432.93
 20
230.693
 11
433.293
 21
230.33
  0
LINE
  8
0
 10
433.293
 20
230.33
 11
433.615
 21
229.931
  0
LINE
  8
0
 10
433.615
 20
229.931
 11
433.895
 21
229.501
  0
LINE
  8
0
 10
433.895
 20
229.501
 11
434.128
 21
229.044
  0
LINE
  8
0
 10
434.128
 20
229.044
 11
434.312
 21
228.565
  0
LINE
  8
0
 10
434.312
 20
228.565
 11
434.444
 21
228.069
  0
LINE
  8
0
 10
434.444
 20
228.069
 11
434.525
 21
227.562
  0
LINE
  8
0
 10
434.525
 20
227.562
 11
434.552
 21
227.05
  0
LINE
  8
0
 10
434.552
 20
227.05
 11
434.525
 21
226.538
  0
LINE
  8
0
 10
434.525
 20
226.538
 11
434.444
 21
226.031
  0
LINE
  8
0
 10
434.444
 20
226.031
 11
434.312
 21
225.535
  0
LINE
  8
0
 10
434.312
 20
225.535
 11
434.128
 21
225.056
  0
LINE
  8
0
 10
434.128
 20
225.056
 11
433.895
 21
224.599
  0
LINE
  8
0
 10
433.895
 20
224.599
 11
433.615
 21
224.169
  0
LINE
  8
0
 10
433.615
 20
224.169
 11
433.293
 21
223.77
  0
LINE
  8
0
 10
433.293
 20
223.77
 11
432.93
 21
223.407
  0
LINE
  8
0
 10
432.93
 20
223.407
 11
432.531
 21
223.085
  0
LINE
  8
0
 10
432.531
 20
223.085
 11
432.101
 21
222.805
  0
LINE
  8
0
 10
432.101
 20
222.805
 11
431.644
 21
222.572
  0
LINE
  8
0
 10
431.644
 20
222.572
 11
431.165
 21
222.388
  0
LINE
  8
0
 10
431.165
 20
222.388
 11
430.669
 21
222.256
  0
LINE
  8
0
 10
430.669
 20
222.256
 11
430.162
 21
222.175
  0
LINE
  8
0
 10
430.162
 20
222.175
 11
429.65
 21
222.148
  0
LINE
  8
0
 10
429.65
 20
222.148
 11
429.138
 21
222.175
  0
LINE
  8
0
 10
429.488
 20
197.908
 11
429.328
 21
197.934
  0
LINE
  8
0
 10
429.328
 20
197.934
 11
429.171
 21
197.976
  0
LINE
  8
0
 10
429.171
 20
197.976
 11
429.02
 21
198.034
  0
LINE
  8
0
 10
429.02
 20
198.034
 11
428.875
 21
198.108
  0
LINE
  8
0
 10
428.875
 20
198.108
 11
428.739
 21
198.196
  0
LINE
  8
0
 10
428.739
 20
198.196
 11
428.613
 21
198.298
  0
LINE
  8
0
 10
428.613
 20
198.298
 11
428.498
 21
198.413
  0
LINE
  8
0
 10
428.498
 20
198.413
 11
428.396
 21
198.539
  0
LINE
  8
0
 10
428.396
 20
198.539
 11
428.308
 21
198.675
  0
LINE
  8
0
 10
428.308
 20
198.675
 11
428.234
 21
198.82
  0
LINE
  8
0
 10
428.234
 20
198.82
 11
428.176
 21
198.971
  0
LINE
  8
0
 10
428.176
 20
198.971
 11
428.134
 21
199.128
  0
LINE
  8
0
 10
428.134
 20
199.128
 11
428.108
 21
199.288
  0
LINE
  8
0
 10
428.108
 20
199.288
 11
428.1
 21
199.45
  0
LINE
  8
0
 10
428.1
 20
199.45
 11
428.108
 21
199.612
  0
LINE
  8
0
 10
428.108
 20
199.612
 11
428.134
 21
199.772
  0
LINE
  8
0
 10
428.134
 20
199.772
 11
428.176
 21
199.929
  0
LINE
  8
0
 10
428.176
 20
199.929
 11
428.234
 21
200.08
  0
LINE
  8
0
 10
428.234
 20
200.08
 11
428.308
 21
200.225
  0
LINE
  8
0
 10
428.308
 20
200.225
 11
428.396
 21
200.361
  0
LINE
  8
0
 10
428.396
 20
200.361
 11
428.498
 21
200.487
  0
LINE
  8
0
 10
428.498
 20
200.487
 11
428.613
 21
200.602
  0
LINE
  8
0
 10
428.613
 20
200.602
 11
428.739
 21
200.704
  0
LINE
  8
0
 10
428.739
 20
200.704
 11
428.875
 21
200.792
  0
LINE
  8
0
 10
428.875
 20
200.792
 11
429.02
 21
200.866
  0
LINE
  8
0
 10
429.02
 20
200.866
 11
429.171
 21
200.924
  0
LINE
  8
0
 10
429.171
 20
200.924
 11
429.328
 21
200.966
  0
LINE
  8
0
 10
429.328
 20
200.966
 11
429.488
 21
200.992
  0
LINE
  8
0
 10
429.488
 20
200.992
 11
429.65
 21
201
  0
LINE
  8
0
 10
429.65
 20
201
 11
429.812
 21
200.992
  0
LINE
  8
0
 10
429.812
 20
200.992
 11
429.972
 21
200.966
  0
LINE
  8
0
 10
429.972
 20
200.966
 11
430.129
 21
200.924
  0
LINE
  8
0
 10
430.129
 20
200.924
 11
430.28
 21
200.866
  0
LINE
  8
0
 10
430.28
 20
200.866
 11
430.425
 21
200.792
  0
LINE
  8
0
 10
430.425
 20
200.792
 11
430.561
 21
200.704
  0
LINE
  8
0
 10
430.561
 20
200.704
 11
430.687
 21
200.602
  0
LINE
  8
0
 10
430.687
 20
200.602
 11
430.802
 21
200.487
  0
LINE
  8
0
 10
430.802
 20
200.487
 11
430.904
 21
200.361
  0
LINE
  8
0
 10
430.904
 20
200.361
 11
430.992
 21
200.225
  0
LINE
  8
0
 10
430.992
 20
200.225
 11
431.066
 21
200.08
  0
LINE
  8
0
 10
431.066
 20
200.08
 11
431.124
 21
199.929
  0
LINE
  8
0
 10
431.124
 20
199.929
 11
431.166
 21
199.772
  0
LINE
  8
0
 10
431.166
 20
199.772
 11
431.191
 21
199.612
  0
LINE
  8
0
 10
431.191
 20
199.612
 11
431.2
 21
199.45
  0
LINE
  8
0
 10
431.2
 20
199.45
 11
431.191
 21
199.288
  0
LINE
  8
0
 10
431.191
 20
199.288
 11
431.166
 21
199.128
  0
LINE
  8
0
 10
431.166
 20
199.128
 11
431.124
 21
198.971
  0
LINE
  8
0
 10
431.124
 20
198.971
 11
431.066
 21
198.82
  0
LINE
  8
0
 10
431.066
 20
198.82
 11
430.992
 21
198.675
  0
LINE
  8
0
 10
430.992
 20
198.675
 11
430.904
 21
198.539
  0
LINE
  8
0
 10
430.904
 20
198.539
 11
430.802
 21
198.413
  0
LINE
  8
0
 10
430.802
 20
198.413
 11
430.687
 21
198.298
  0
LINE
  8
0
 10
430.687
 20
198.298
 11
430.561
 21
198.196
  0
LINE
  8
0
 10
430.561
 20
198.196
 11
430.425
 21
198.108
  0
LINE
  8
0
 10
430.425
 20
198.108
 11
430.28
 21
198.034
  0
LINE
  8
0
 10
430.28
 20
198.034
 11
430.129
 21
197.976
  0
LINE
  8
0
 10
430.129
 20
197.976
 11
429.972
 21
197.934
  0
LINE
  8
0
 10
429.972
 20
197.934
 11
429.812
 21
197.908
  0
LINE
  8
0
 10
429.812
 20
197.908
 11
429.65
 21
197.9
  0
LINE
  8
0
 10
429.65
 20
197.9
 11
429.488
 21
197.908
  0
LINE
  8
0
 10
429.488
 20
187.908
 11
429.328
 21
187.934
  0
LINE
  8
0
 10
429.328
 20
187.934
 11
429.171
 21
187.976
  0
LINE
  8
0
 10
429.171
 20
187.976
 11
429.02
 21
188.034
  0
LINE
  8
0
 10
429.02
 20
188.034
 11
428.875
 21
188.108
  0
LINE
  8
0
 10
428.875
 20
188.108
 11
428.739
 21
188.196
  0
LINE
  8
0
 10
428.739
 20
188.196
 11
428.613
 21
188.298
  0
LINE
  8
0
 10
428.613
 20
188.298
 11
428.498
 21
188.413
  0
LINE
  8
0
 10
428.498
 20
188.413
 11
428.396
 21
188.539
  0
LINE
  8
0
 10
428.396
 20
188.539
 11
428.308
 21
188.675
  0
LINE
  8
0
 10
428.308
 20
188.675
 11
428.234
 21
188.82
  0
LINE
  8
0
 10
428.234
 20
188.82
 11
428.176
 21
188.971
  0
LINE
  8
0
 10
428.176
 20
188.971
 11
428.134
 21
189.128
  0
LINE
  8
0
 10
428.134
 20
189.128
 11
428.108
 21
189.288
  0
LINE
  8
0
 10
428.108
 20
189.288
 11
428.1
 21
189.45
  0
LINE
  8
0
 10
428.1
 20
189.45
 11
428.108
 21
189.612
  0
LINE
  8
0
 10
428.108
 20
189.612
 11
428.134
 21
189.772
  0
LINE
  8
0
 10
428.134
 20
189.772
 11
428.176
 21
189.929
  0
LINE
  8
0
 10
428.176
 20
189.929
 11
428.234
 21
190.08
  0
LINE
  8
0
 10
428.234
 20
190.08
 11
428.308
 21
190.225
  0
LINE
  8
0
 10
428.308
 20
190.225
 11
428.396
 21
190.361
  0
LINE
  8
0
 10
428.396
 20
190.361
 11
428.498
 21
190.487
  0
LINE
  8
0
 10
428.498
 20
190.487
 11
428.613
 21
190.602
  0
LINE
  8
0
 10
428.613
 20
190.602
 11
428.739
 21
190.704
  0
LINE
  8
0
 10
428.739
 20
190.704
 11
428.875
 21
190.792
  0
LINE
  8
0
 10
428.875
 20
190.792
 11
429.02
 21
190.866
  0
LINE
  8
0
 10
429.02
 20
190.866
 11
429.171
 21
190.924
  0
LINE
  8
0
 10
429.171
 20
190.924
 11
429.328
 21
190.966
  0
LINE
  8
0
 10
429.328
 20
190.966
 11
429.488
 21
190.992
  0
LINE
  8
0
 10
429.488
 20
190.992
 11
429.65
 21
191
  0
LINE
  8
0
 10
429.65
 20
191
 11
429.812
 21
190.992
  0
LINE
  8
0
 10
429.812
 20
190.992
 11
429.972
 21
190.966
  0
LINE
  8
0
 10
429.972
 20
190.966
 11
430.129
 21
190.924
  0
LINE
  8
0
 10
430.129
 20
190.924
 11
430.28
 21
190.866
  0
LINE
  8
0
 10
430.28
 20
190.866
 11
430.425
 21
190.792
  0
LINE
  8
0
 10
430.425
 20
190.792
 11
430.561
 21
190.704
  0
LINE
  8
0
 10
430.561
 20
190.704
 11
430.687
 21
190.602
  0
LINE
  8
0
 10
430.687
 20
190.602
 11
430.802
 21
190.487
  0
LINE
  8
0
 10
430.802
 20
190.487
 11
430.904
 21
190.361
  0
LINE
  8
0
 10
430.904
 20
190.361
 11
430.992
 21
190.225
  0
LINE
  8
0
 10
430.992
 20
190.225
 11
431.066
 21
190.08
  0
LINE
  8
0
 10
431.066
 20
190.08
 11
431.124
 21
189.929
  0
LINE
  8
0
 10
431.124
 20
189.929
 11
431.166
 21
189.772
  0
LINE
  8
0
 10
431.166
 20
189.772
 11
431.191
 21
189.612
  0
LINE
  8
0
 10
431.191
 20
189.612
 11
431.2
 21
189.45
  0
LINE
  8
0
 10
431.2
 20
189.45
 11
431.191
 21
189.288
  0
LINE
  8
0
 10
431.191
 20
189.288
 11
431.166
 21
189.128
  0
LINE
  8
0
 10
431.166
 20
189.128
 11
431.124
 21
188.971
  0
LINE
  8
0
 10
431.124
 20
188.971
 11
431.066
 21
188.82
  0
LINE
  8
0
 10
431.066
 20
188.82
 11
430.992
 21
188.675
  0
LINE
  8
0
 10
430.992
 20
188.675
 11
430.904
 21
188.539
  0
LINE
  8
0
 10
430.904
 20
188.539
 11
430.802
 21
188.413
  0
LINE
  8
0
 10
430.802
 20
188.413
 11
430.687
 21
188.298
  0
LINE
  8
0
 10
430.687
 20
188.298
 11
430.561
 21
188.196
  0
LINE
  8
0
 10
430.561
 20
188.196
 11
430.425
 21
188.108
  0
LINE
  8
0
 10
430.425
 20
188.108
 11
430.28
 21
188.034
  0
LINE
  8
0
 10
430.28
 20
188.034
 11
430.129
 21
187.976
  0
LINE
  8
0
 10
430.129
 20
187.976
 11
429.972
 21
187.934
  0
LINE
  8
0
 10
429.972
 20
187.934
 11
429.812
 21
187.908
  0
LINE
  8
0
 10
429.812
 20
187.908
 11
429.65
 21
187.9
  0
LINE
  8
0
 10
429.65
 20
187.9
 11
429.488
 21
187.908
  0
LINE
  8
0
 10
429.488
 20
137.908
 11
429.328
 21
137.934
  0
LINE
  8
0
 10
429.328
 20
137.934
 11
429.171
 21
137.976
  0
LINE
  8
0
 10
429.171
 20
137.976
 11
429.02
 21
138.034
  0
LINE
  8
0
 10
429.02
 20
138.034
 11
428.875
 21
138.108
  0
LINE
  8
0
 10
428.875
 20
138.108
 11
428.739
 21
138.196
  0
LINE
  8
0
 10
428.739
 20
138.196
 11
428.613
 21
138.298
  0
LINE
  8
0
 10
428.613
 20
138.298
 11
428.498
 21
138.413
  0
LINE
  8
0
 10
428.498
 20
138.413
 11
428.396
 21
138.539
  0
LINE
  8
0
 10
428.396
 20
138.539
 11
428.308
 21
138.675
  0
LINE
  8
0
 10
428.308
 20
138.675
 11
428.234
 21
138.82
  0
LINE
  8
0
 10
428.234
 20
138.82
 11
428.176
 21
138.971
  0
LINE
  8
0
 10
428.176
 20
138.971
 11
428.134
 21
139.128
  0
LINE
  8
0
 10
428.134
 20
139.128
 11
428.108
 21
139.288
  0
LINE
  8
0
 10
428.108
 20
139.288
 11
428.1
 21
139.45
  0
LINE
  8
0
 10
428.1
 20
139.45
 11
428.108
 21
139.612
  0
LINE
  8
0
 10
428.108
 20
139.612
 11
428.134
 21
139.772
  0
LINE
  8
0
 10
428.134
 20
139.772
 11
428.176
 21
139.929
  0
LINE
  8
0
 10
428.176
 20
139.929
 11
428.234
 21
140.08
  0
LINE
  8
0
 10
428.234
 20
140.08
 11
428.308
 21
140.225
  0
LINE
  8
0
 10
428.308
 20
140.225
 11
428.396
 21
140.361
  0
LINE
  8
0
 10
428.396
 20
140.361
 11
428.498
 21
140.487
  0
LINE
  8
0
 10
428.498
 20
140.487
 11
428.613
 21
140.602
  0
LINE
  8
0
 10
428.613
 20
140.602
 11
428.739
 21
140.704
  0
LINE
  8
0
 10
428.739
 20
140.704
 11
428.875
 21
140.792
  0
LINE
  8
0
 10
428.875
 20
140.792
 11
429.02
 21
140.866
  0
LINE
  8
0
 10
429.02
 20
140.866
 11
429.171
 21
140.924
  0
LINE
  8
0
 10
429.171
 20
140.924
 11
429.328
 21
140.966
  0
LINE
  8
0
 10
429.328
 20
140.966
 11
429.488
 21
140.992
  0
LINE
  8
0
 10
429.488
 20
140.992
 11
429.65
 21
141
  0
LINE
  8
0
 10
429.65
 20
141
 11
429.812
 21
140.992
  0
LINE
  8
0
 10
429.812
 20
140.992
 11
429.972
 21
140.966
  0
LINE
  8
0
 10
429.972
 20
140.966
 11
430.129
 21
140.924
  0
LINE
  8
0
 10
430.129
 20
140.924
 11
430.28
 21
140.866
  0
LINE
  8
0
 10
430.28
 20
140.866
 11
430.425
 21
140.792
  0
LINE
  8
0
 10
430.425
 20
140.792
 11
430.561
 21
140.704
  0
LINE
  8
0
 10
430.561
 20
140.704
 11
430.687
 21
140.602
  0
LINE
  8
0
 10
430.687
 20
140.602
 11
430.802
 21
140.487
  0
LINE
  8
0
 10
430.802
 20
140.487
 11
430.904
 21
140.361
  0
LINE
  8
0
 10
430.904
 20
140.361
 11
430.992
 21
140.225
  0
LINE
  8
0
 10
430.992
 20
140.225
 11
431.066
 21
140.08
  0
LINE
  8
0
 10
431.066
 20
140.08
 11
431.124
 21
139.929
  0
LINE
  8
0
 10
431.124
 20
139.929
 11
431.166
 21
139.772
  0
LINE
  8
0
 10
431.166
 20
139.772
 11
431.191
 21
139.612
  0
LINE
  8
0
 10
431.191
 20
139.612
 11
431.2
 21
139.45
  0
LINE
  8
0
 10
431.2
 20
139.45
 11
431.191
 21
139.288
  0
LINE
  8
0
 10
431.191
 20
139.288
 11
431.166
 21
139.128
  0
LINE
  8
0
 10
431.166
 20
139.128
 11
431.124
 21
138.971
  0
LINE
  8
0
 10
431.124
 20
138.971
 11
431.066
 21
138.82
  0
LINE
  8
0
 10
431.066
 20
138.82
 11
430.992
 21
138.675
  0
LINE
  8
0
 10
430.992
 20
138.675
 11
430.904
 21
138.539
  0
LINE
  8
0
 10
430.904
 20
138.539
 11
430.802
 21
138.413
  0
LINE
  8
0
 10
430.802
 20
138.413
 11
430.687
 21
138.298
  0
LINE
  8
0
 10
430.687
 20
138.298
 11
430.561
 21
138.196
  0
LINE
  8
0
 10
430.561
 20
138.196
 11
430.425
 21
138.108
  0
LINE
  8
0
 10
430.425
 20
138.108
 11
430.28
 21
138.034
  0
LINE
  8
0
 10
430.28
 20
138.034
 11
430.129
 21
137.976
  0
LINE
  8
0
 10
430.129
 20
137.976
 11
429.972
 21
137.934
  0
LINE
  8
0
 10
429.972
 20
137.934
 11
429.812
 21
137.908
  0
LINE
  8
0
 10
429.812
 20
137.908
 11
429.65
 21
137.9
  0
LINE
  8
0
 10
429.65
 20
137.9
 11
429.488
 21
137.908
  0
LINE
  8
0
 10
412.2
 20
229.3
 11
375
 21
229.3
  0
LINE
  8
0
 10
375
 20
229.3
 11
375
 21
178.1
  0
LINE
  8
0
 10
375
 20
178.1
 11
412.2
 21
178.1
  0
LINE
  8
0
 10
412.2
 20
178.1
 11
412.2
 21
229.3
  0
LINE
  8
0
 10
379.65
 20
223.1
 11
379.65
 21
226.2
  0
LINE
  8
0
 10
379.65
 20
226.2
 11
388.95
 21
226.2
  0
LINE
  8
0
 10
388.95
 20
226.2
 11
388.95
 21
223.1
  0
LINE
  8
0
 10
388.95
 20
223.1
 11
379.65
 21
223.1
  0
LINE
  8
0
 10
392.05
 20
223.1
 11
392.05
 21
226.2
  0
LINE
  8
0
 10
392.05
 20
226.2
 11
395.15
 21
226.2
  0
LINE
  8
0
 10
395.15
 20
226.2
 11
395.15
 21
223.1
  0
LINE
  8
0
 10
395.15
 20
223.1
 11
392.05
 21
223.1
  0
LINE
  8
0
 10
398.25
 20
223.1
 11
398.25
 21
226.2
  0
LINE
  8
0
 10
398.25
 20
226.2
 11
407.55
 21
226.2
  0
LINE
  8
0
 10
407.55
 20
226.2
 11
407.55
 21
223.1
  0
LINE
  8
0
 10
407.55
 20
223.1
 11
398.25
 21
223.1
  0
LINE
  8
0
 10
379.65
 20
208.1
 11
379.65
 21
211.2
  0
LINE
  8
0
 10
379.65
 20
211.2
 11
388.95
 21
211.2
  0
LINE
  8
0
 10
388.95
 20
211.2
 11
388.95
 21
208.1
  0
LINE
  8
0
 10
388.95
 20
208.1
 11
379.65
 21
208.1
  0
LINE
  8
0
 10
392.05
 20
208.1
 11
392.05
 21
211.2
  0
LINE
  8
0
 10
392.05
 20
211.2
 11
395.15
 21
211.2
  0
LINE
  8
0
 10
395.15
 20
211.2
 11
395.15
 21
208.1
  0
LINE
  8
0
 10
395.15
 20
208.1
 11
392.05
 21
208.1
  0
LINE
  8
0
 10
398.25
 20
208.1
 11
398.25
 21
211.2
  0
LINE
  8
0
 10
398.25
 20
211.2
 11
407.55
 21
211.2
  0
LINE
  8
0
 10
407.55
 20
211.2
 11
407.55
 21
208.1
  0
LINE
  8
0
 10
407.55
 20
208.1
 11
398.25
 21
208.1
  0
LINE
  8
0
 10
180.35
 20
0.299988
 11
183.45
 21
0.299988
  0
LINE
  8
0
 10
183.45
 20
0.299988
 11
183.45
 21
3.39999
  0
LINE
  8
0
 10
183.45
 20
3.39999
 11
180.35
 21
3.39999
  0
LINE
  8
0
 10
180.35
 20
3.39999
 11
180.35
 21
6.5
  0
LINE
  8
0
 10
180.35
 20
6.5
 11
183.45
 21
6.5
  0
LINE
  8
0
 10
183.45
 20
6.5
 11
183.45
 21
9.59999
  0
LINE
  8
0
 10
183.45
 20
9.59999
 11
186.55
 21
9.59999
  0
LINE
  8
0
 10
186.55
 20
9.59999
 11
186.55
 21
6.5
  0
LINE
  8
0
 10
186.55
 20
6.5
 11
189.65
 21
6.5
  0
LINE
  8
0
 10
189.65
 20
6.5
 11
189.65
 21
3.39999
  0
LINE
  8
0
 10
189.65
 20
3.39999
 11
186.55
 21
3.39999
  0
LINE
  8
0
 10
186.55
 20
3.39999
 11
186.55
 21
0.299988
  0
LINE
  8
0
 10
186.55
 20
0.299988
 11
189.65
 21
0.299988
  0
LINE
  8
0
 10
189.65
 20
0.299988
 11
189.65
 21
-2.79999
  0
LINE
  8
0
 10
189.65
 20
-2.79999
 11
198.95
 21
-2.79999
  0
LINE
  8
0
 10
198.95
 20
-2.79999
 11
198.95
 21
0.299988
  0
LINE
  8
0
 10
198.95
 20
0.299988
 11
201.5
 21
0.299988
  0
LINE
  8
0
 10
201.5
 20
0.299988
 11
201.5
 21
13
  0
LINE
  8
0
 10
201.5
 20
13
 11
226
 21
13
  0
LINE
  8
0
 10
226
 20
13
 11
226
 21
0.299988
  0
LINE
  8
0
 10
226
 20
0.299988
 11
245
 21
0.299988
  0
LINE
  8
0
 10
245
 20
0.299988
 11
245
 21
186.6
  0
LINE
  8
0
 10
245
 20
186.6
 11
234.95
 21
186.6
  0
LINE
  8
0
 10
234.95
 20
186.6
 11
234.95
 21
189.7
  0
LINE
  8
0
 10
234.95
 20
189.7
 11
225.65
 21
189.7
  0
LINE
  8
0
 10
225.65
 20
189.7
 11
225.65
 21
186.6
  0
LINE
  8
0
 10
225.65
 20
186.6
 11
222.55
 21
186.6
  0
LINE
  8
0
 10
222.55
 20
186.6
 11
222.55
 21
183.5
  0
LINE
  8
0
 10
222.55
 20
183.5
 11
225.65
 21
183.5
  0
LINE
  8
0
 10
225.65
 20
183.5
 11
225.65
 21
180.4
  0
LINE
  8
0
 10
225.65
 20
180.4
 11
222.55
 21
180.4
  0
LINE
  8
0
 10
222.55
 20
180.4
 11
222.55
 21
177.3
  0
LINE
  8
0
 10
222.55
 20
177.3
 11
219.45
 21
177.3
  0
LINE
  8
0
 10
219.45
 20
177.3
 11
219.45
 21
180.4
  0
LINE
  8
0
 10
219.45
 20
180.4
 11
216.35
 21
180.4
  0
LINE
  8
0
 10
216.35
 20
180.4
 11
216.35
 21
183.5
  0
LINE
  8
0
 10
216.35
 20
183.5
 11
219.45
 21
183.5
  0
LINE
  8
0
 10
219.45
 20
183.5
 11
219.45
 21
186.6
  0
LINE
  8
0
 10
219.45
 20
186.6
 11
216.35
 21
186.6
  0
LINE
  8
0
 10
216.35
 20
186.6
 11
216.35
 21
189.7
  0
LINE
  8
0
 10
216.35
 20
189.7
 11
207.05
 21
189.7
  0
LINE
  8
0
 10
207.05
 20
189.7
 11
207.05
 21
186.6
  0
LINE
  8
0
 10
207.05
 20
186.6
 11
162.95
 21
186.6
  0
LINE
  8
0
 10
162.95
 20
186.6
 11
162.95
 21
189.7
  0
LINE
  8
0
 10
162.95
 20
189.7
 11
153.65
 21
189.7
  0
LINE
  8
0
 10
153.65
 20
189.7
 11
153.65
 21
186.6
  0
LINE
  8
0
 10
153.65
 20
186.6
 11
150.55
 21
186.6
  0
LINE
  8
0
 10
150.55
 20
186.6
 11
150.55
 21
183.5
  0
LINE
  8
0
 10
150.55
 20
183.5
 11
153.65
 21
183.5
  0
LINE
  8
0
 10
153.65
 20
183.5
 11
153.65
 21
180.4
  0
LINE
  8
0
 10
153.65
 20
180.4
 11
150.55
 21
180.4
  0
LINE
  8
0
 10
150.55
 20
180.4
 11
150.55
 21
177.3
  0
LINE
  8
0
 10
150.55
 20
177.3
 11
147.45
 21
177.3
  0
LINE
  8
0
 10
147.45
 20
177.3
 11
147.45
 21
180.4
  0
LINE
  8
0
 10
147.45
 20
180.4
 11
144.35
 21
180.4
  0
LINE
  8
0
 10
144.35
 20
180.4
 11
144.35
 21
183.5
  0
LINE
  8
0
 10
144.35
 20
183.5
 11
147.45
 21
183.5
  0
LINE
  8
0
 10
147.45
 20
183.5
 11
147.45
 21
186.6
  0
LINE
  8
0
 10
147.45
 20
186.6
 11
144.35
 21
186.6
  0
LINE
  8
0
 10
144.35
 20
186.6
 11
144.35
 21
189.7
  0
LINE
  8
0
 10
144.35
 20
189.7
 11
135.05
 21
189.7
  0
LINE
  8
0
 10
135.05
 20
189.7
 11
135.05
 21
186.6
  0
LINE
  8
0
 10
135.05
 20
186.6
 11
125
 21
186.6
  0
LINE
  8
0
 10
125
 20
186.6
 11
125
 21
0.299988
  0
LINE
  8
0
 10
125
 20
0.299988
 11
144
 21
0.299988
  0
LINE
  8
0
 10
144
 20
0.299988
 11
144
 21
13
  0
LINE
  8
0
 10
144
 20
13
 11
168.5
 21
13
  0
LINE
  8
0
 10
168.5
 20
13
 11
168.5
 21
0.299988
  0
LINE
  8
0
 10
168.5
 20
0.299988
 11
171.05
 21
0.299988
  0
LINE
  8
0
 10
171.05
 20
0.299988
 11
171.05
 21
-2.79999
  0
LINE
  8
0
 10
171.05
 20
-2.79999
 11
180.35
 21
-2.79999
  0
LINE
  8
0
 10
180.35
 20
-2.79999
 11
180.35
 21
0.299988
  0
LINE
  8
0
 10
134.838
 20
172.558
 11
134.678
 21
172.584
  0
LINE
  8
0
 10
134.678
 20
172.584
 11
134.521
 21
172.626
  0
LINE
  8
0
 10
134.521
 20
172.626
 11
134.37
 21
172.684
  0
LINE
  8
0
 10
134.37
 20
172.684
 11
134.225
 21
172.758
  0
LINE
  8
0
 10
134.225
 20
172.758
 11
134.089
 21
172.846
  0
LINE
  8
0
 10
134.089
 20
172.846
 11
133.963
 21
172.948
  0
LINE
  8
0
 10
133.963
 20
172.948
 11
133.848
 21
173.063
  0
LINE
  8
0
 10
133.848
 20
173.063
 11
133.746
 21
173.189
  0
LINE
  8
0
 10
133.746
 20
173.189
 11
133.658
 21
173.325
  0
LINE
  8
0
 10
133.658
 20
173.325
 11
133.584
 21
173.47
  0
LINE
  8
0
 10
133.584
 20
173.47
 11
133.526
 21
173.621
  0
LINE
  8
0
 10
133.526
 20
173.621
 11
133.484
 21
173.778
  0
LINE
  8
0
 10
133.484
 20
173.778
 11
133.458
 21
173.938
  0
LINE
  8
0
 10
133.458
 20
173.938
 11
133.45
 21
174.1
  0
LINE
  8
0
 10
133.45
 20
174.1
 11
133.458
 21
174.262
  0
LINE
  8
0
 10
133.458
 20
174.262
 11
133.484
 21
174.422
  0
LINE
  8
0
 10
133.484
 20
174.422
 11
133.526
 21
174.579
  0
LINE
  8
0
 10
133.526
 20
174.579
 11
133.584
 21
174.73
  0
LINE
  8
0
 10
133.584
 20
174.73
 11
133.658
 21
174.875
  0
LINE
  8
0
 10
133.658
 20
174.875
 11
133.746
 21
175.011
  0
LINE
  8
0
 10
133.746
 20
175.011
 11
133.848
 21
175.137
  0
LINE
  8
0
 10
133.848
 20
175.137
 11
133.963
 21
175.252
  0
LINE
  8
0
 10
133.963
 20
175.252
 11
134.089
 21
175.354
  0
LINE
  8
0
 10
134.089
 20
175.354
 11
134.225
 21
175.442
  0
LINE
  8
0
 10
134.225
 20
175.442
 11
134.37
 21
175.516
  0
LINE
  8
0
 10
134.37
 20
175.516
 11
134.521
 21
175.574
  0
LINE
  8
0
 10
134.521
 20
175.574
 11
134.678
 21
175.616
  0
LINE
  8
0
 10
134.678
 20
175.616
 11
134.838
 21
175.642
  0
LINE
  8
0
 10
134.838
 20
175.642
 11
135
 21
175.65
  0
LINE
  8
0
 10
135
 20
175.65
 11
135.162
 21
175.642
  0
LINE
  8
0
 10
135.162
 20
175.642
 11
135.322
 21
175.616
  0
LINE
  8
0
 10
135.322
 20
175.616
 11
135.479
 21
175.574
  0
LINE
  8
0
 10
135.479
 20
175.574
 11
135.63
 21
175.516
  0
LINE
  8
0
 10
135.63
 20
175.516
 11
135.775
 21
175.442
  0
LINE
  8
0
 10
135.775
 20
175.442
 11
135.911
 21
175.354
  0
LINE
  8
0
 10
135.911
 20
175.354
 11
136.037
 21
175.252
  0
LINE
  8
0
 10
136.037
 20
175.252
 11
136.152
 21
175.137
  0
LINE
  8
0
 10
136.152
 20
175.137
 11
136.254
 21
175.011
  0
LINE
  8
0
 10
136.254
 20
175.011
 11
136.342
 21
174.875
  0
LINE
  8
0
 10
136.342
 20
174.875
 11
136.416
 21
174.73
  0
LINE
  8
0
 10
136.416
 20
174.73
 11
136.474
 21
174.579
  0
LINE
  8
0
 10
136.474
 20
174.579
 11
136.516
 21
174.422
  0
LINE
  8
0
 10
136.516
 20
174.422
 11
136.542
 21
174.262
  0
LINE
  8
0
 10
136.542
 20
174.262
 11
136.55
 21
174.1
  0
LINE
  8
0
 10
136.55
 20
174.1
 11
136.542
 21
173.938
  0
LINE
  8
0
 10
136.542
 20
173.938
 11
136.516
 21
173.778
  0
LINE
  8
0
 10
136.516
 20
173.778
 11
136.474
 21
173.621
  0
LINE
  8
0
 10
136.474
 20
173.621
 11
136.416
 21
173.47
  0
LINE
  8
0
 10
136.416
 20
173.47
 11
136.342
 21
173.325
  0
LINE
  8
0
 10
136.342
 20
173.325
 11
136.254
 21
173.189
  0
LINE
  8
0
 10
136.254
 20
173.189
 11
136.152
 21
173.063
  0
LINE
  8
0
 10
136.152
 20
173.063
 11
136.037
 21
172.948
  0
LINE
  8
0
 10
136.037
 20
172.948
 11
135.911
 21
172.846
  0
LINE
  8
0
 10
135.911
 20
172.846
 11
135.775
 21
172.758
  0
LINE
  8
0
 10
135.775
 20
172.758
 11
135.63
 21
172.684
  0
LINE
  8
0
 10
135.63
 20
172.684
 11
135.479
 21
172.626
  0
LINE
  8
0
 10
135.479
 20
172.626
 11
135.322
 21
172.584
  0
LINE
  8
0
 10
135.322
 20
172.584
 11
135.162
 21
172.558
  0
LINE
  8
0
 10
135.162
 20
172.558
 11
135
 21
172.55
  0
LINE
  8
0
 10
135
 20
172.55
 11
134.838
 21
172.558
  0
LINE
  8
0
 10
234.838
 20
172.558
 11
234.678
 21
172.584
  0
LINE
  8
0
 10
234.678
 20
172.584
 11
234.521
 21
172.626
  0
LINE
  8
0
 10
234.521
 20
172.626
 11
234.37
 21
172.684
  0
LINE
  8
0
 10
234.37
 20
172.684
 11
234.225
 21
172.758
  0
LINE
  8
0
 10
234.225
 20
172.758
 11
234.089
 21
172.846
  0
LINE
  8
0
 10
234.089
 20
172.846
 11
233.963
 21
172.948
  0
LINE
  8
0
 10
233.963
 20
172.948
 11
233.848
 21
173.063
  0
LINE
  8
0
 10
233.848
 20
173.063
 11
233.746
 21
173.189
  0
LINE
  8
0
 10
233.746
 20
173.189
 11
233.658
 21
173.325
  0
LINE
  8
0
 10
233.658
 20
173.325
 11
233.584
 21
173.47
  0
LINE
  8
0
 10
233.584
 20
173.47
 11
233.526
 21
173.621
  0
LINE
  8
0
 10
233.526
 20
173.621
 11
233.484
 21
173.778
  0
LINE
  8
0
 10
233.484
 20
173.778
 11
233.458
 21
173.938
  0
LINE
  8
0
 10
233.458
 20
173.938
 11
233.45
 21
174.1
  0
LINE
  8
0
 10
233.45
 20
174.1
 11
233.458
 21
174.262
  0
LINE
  8
0
 10
233.458
 20
174.262
 11
233.484
 21
174.422
  0
LINE
  8
0
 10
233.484
 20
174.422
 11
233.526
 21
174.579
  0
LINE
  8
0
 10
233.526
 20
174.579
 11
233.584
 21
174.73
  0
LINE
  8
0
 10
233.584
 20
174.73
 11
233.658
 21
174.875
  0
LINE
  8
0
 10
233.658
 20
174.875
 11
233.746
 21
175.011
  0
LINE
  8
0
 10
233.746
 20
175.011
 11
233.848
 21
175.137
  0
LINE
  8
0
 10
233.848
 20
175.137
 11
233.963
 21
175.252
  0
LINE
  8
0
 10
233.963
 20
175.252
 11
234.089
 21
175.354
  0
LINE
  8
0
 10
234.089
 20
175.354
 11
234.225
 21
175.442
  0
LINE
  8
0
 10
234.225
 20
175.442
 11
234.37
 21
175.516
  0
LINE
  8
0
 10
234.37
 20
175.516
 11
234.521
 21
175.574
  0
LINE
  8
0
 10
234.521
 20
175.574
 11
234.678
 21
175.616
  0
LINE
  8
0
 10
234.678
 20
175.616
 11
234.838
 21
175.642
  0
LINE
  8
0
 10
234.838
 20
175.642
 11
235
 21
175.65
  0
LINE
  8
0
 10
235
 20
175.65
 11
235.162
 21
175.642
  0
LINE
  8
0
 10
235.162
 20
175.642
 11
235.322
 21
175.616
  0
LINE
  8
0
 10
235.322
 20
175.616
 11
235.479
 21
175.574
  0
LINE
  8
0
 10
235.479
 20
175.574
 11
235.63
 21
175.516
  0
LINE
  8
0
 10
235.63
 20
175.516
 11
235.775
 21
175.442
  0
LINE
  8
0
 10
235.775
 20
175.442
 11
235.911
 21
175.354
  0
LINE
  8
0
 10
235.911
 20
175.354
 11
236.037
 21
175.252
  0
LINE
  8
0
 10
236.037
 20
175.252
 11
236.152
 21
175.137
  0
LINE
  8
0
 10
236.152
 20
175.137
 11
236.254
 21
175.011
  0
LINE
  8
0
 10
236.254
 20
175.011
 11
236.342
 21
174.875
  0
LINE
  8
0
 10
236.342
 20
174.875
 11
236.416
 21
174.73
  0
LINE
  8
0
 10
236.416
 20
174.73
 11
236.474
 21
174.579
  0
LINE
  8
0
 10
236.474
 20
174.579
 11
236.516
 21
174.422
  0
LINE
  8
0
 10
236.516
 20
174.422
 11
236.542
 21
174.262
  0
LINE
  8
0
 10
236.542
 20
174.262
 11
236.55
 21
174.1
  0
LINE
  8
0
 10
236.55
 20
174.1
 11
236.542
 21
173.938
  0
LINE
  8
0
 10
236.542
 20
173.938
 11
236.516
 21
173.778
  0
LINE
  8
0
 10
236.516
 20
173.778
 11
236.474
 21
173.621
  0
LINE
  8
0
 10
236.474
 20
173.621
 11
236.416
 21
173.47
  0
LINE
  8
0
 10
236.416
 20
173.47
 11
236.342
 21
173.325
  0
LINE
  8
0
 10
236.342
 20
173.325
 11
236.254
 21
173.189
  0
LINE
  8
0
 10
236.254
 20
173.189
 11
236.152
 21
173.063
  0
LINE
  8
0
 10
236.152
 20
173.063
 11
236.037
 21
172.948
  0
LINE
  8
0
 10
236.037
 20
172.948
 11
235.911
 21
172.846
  0
LINE
  8
0
 10
235.911
 20
172.846
 11
235.775
 21
172.758
  0
LINE
  8
0
 10
235.775
 20
172.758
 11
235.63
 21
172.684
  0
LINE
  8
0
 10
235.63
 20
172.684
 11
235.479
 21
172.626
  0
LINE
  8
0
 10
235.479
 20
172.626
 11
235.322
 21
172.584
  0
LINE
  8
0
 10
235.322
 20
172.584
 11
235.162
 21
172.558
  0
LINE
  8
0
 10
235.162
 20
172.558
 11
235
 21
172.55
  0
LINE
  8
0
 10
235
 20
172.55
 11
234.838
 21
172.558
  0
LINE
  8
0
 10
188.1
 20
149.25
 11
188.1
 21
158.55
  0
LINE
  8
0
 10
188.1
 20
158.55
 11
191.2
 21
158.55
  0
LINE
  8
0
 10
191.2
 20
158.55
 11
191.2
 21
149.25
  0
LINE
  8
0
 10
191.2
 20
149.25
 11
188.1
 21
149.25
  0
LINE
  8
0
 10
188.1
 20
143.05
 11
188.1
 21
146.15
  0
LINE
  8
0
 10
188.1
 20
146.15
 11
191.2
 21
146.15
  0
LINE
  8
0
 10
191.2
 20
146.15
 11
191.2
 21
143.05
  0
LINE
  8
0
 10
191.2
 20
143.05
 11
188.1
 21
143.05
  0
LINE
  8
0
 10
159.838
 20
141.308
 11
159.678
 21
141.334
  0
LINE
  8
0
 10
159.678
 20
141.334
 11
159.521
 21
141.376
  0
LINE
  8
0
 10
159.521
 20
141.376
 11
159.37
 21
141.434
  0
LINE
  8
0
 10
159.37
 20
141.434
 11
159.225
 21
141.508
  0
LINE
  8
0
 10
159.225
 20
141.508
 11
159.089
 21
141.596
  0
LINE
  8
0
 10
159.089
 20
141.596
 11
158.963
 21
141.698
  0
LINE
  8
0
 10
158.963
 20
141.698
 11
158.848
 21
141.813
  0
LINE
  8
0
 10
158.848
 20
141.813
 11
158.746
 21
141.939
  0
LINE
  8
0
 10
158.746
 20
141.939
 11
158.658
 21
142.075
  0
LINE
  8
0
 10
158.658
 20
142.075
 11
158.584
 21
142.22
  0
LINE
  8
0
 10
158.584
 20
142.22
 11
158.526
 21
142.371
  0
LINE
  8
0
 10
158.526
 20
142.371
 11
158.484
 21
142.528
  0
LINE
  8
0
 10
158.484
 20
142.528
 11
158.458
 21
142.688
  0
LINE
  8
0
 10
158.458
 20
142.688
 11
158.45
 21
142.85
  0
LINE
  8
0
 10
158.45
 20
142.85
 11
158.458
 21
143.012
  0
LINE
  8
0
 10
158.458
 20
143.012
 11
158.484
 21
143.172
  0
LINE
  8
0
 10
158.484
 20
143.172
 11
158.526
 21
143.329
  0
LINE
  8
0
 10
158.526
 20
143.329
 11
158.584
 21
143.48
  0
LINE
  8
0
 10
158.584
 20
143.48
 11
158.658
 21
143.625
  0
LINE
  8
0
 10
158.658
 20
143.625
 11
158.746
 21
143.761
  0
LINE
  8
0
 10
158.746
 20
143.761
 11
158.848
 21
143.887
  0
LINE
  8
0
 10
158.848
 20
143.887
 11
158.963
 21
144.002
  0
LINE
  8
0
 10
158.963
 20
144.002
 11
159.089
 21
144.104
  0
LINE
  8
0
 10
159.089
 20
144.104
 11
159.225
 21
144.192
  0
LINE
  8
0
 10
159.225
 20
144.192
 11
159.37
 21
144.266
  0
LINE
  8
0
 10
159.37
 20
144.266
 11
159.521
 21
144.324
  0
LINE
  8
0
 10
159.521
 20
144.324
 11
159.678
 21
144.366
  0
LINE
  8
0
 10
159.678
 20
144.366
 11
159.838
 21
144.392
  0
LINE
  8
0
 10
159.838
 20
144.392
 11
160
 21
144.4
  0
LINE
  8
0
 10
160
 20
144.4
 11
160.162
 21
144.392
  0
LINE
  8
0
 10
160.162
 20
144.392
 11
160.322
 21
144.366
  0
LINE
  8
0
 10
160.322
 20
144.366
 11
160.479
 21
144.324
  0
LINE
  8
0
 10
160.479
 20
144.324
 11
160.63
 21
144.266
  0
LINE
  8
0
 10
160.63
 20
144.266
 11
160.775
 21
144.192
  0
LINE
  8
0
 10
160.775
 20
144.192
 11
160.911
 21
144.104
  0
LINE
  8
0
 10
160.911
 20
144.104
 11
161.037
 21
144.002
  0
LINE
  8
0
 10
161.037
 20
144.002
 11
161.152
 21
143.887
  0
LINE
  8
0
 10
161.152
 20
143.887
 11
161.254
 21
143.761
  0
LINE
  8
0
 10
161.254
 20
143.761
 11
161.342
 21
143.625
  0
LINE
  8
0
 10
161.342
 20
143.625
 11
161.416
 21
143.48
  0
LINE
  8
0
 10
161.416
 20
143.48
 11
161.474
 21
143.329
  0
LINE
  8
0
 10
161.474
 20
143.329
 11
161.516
 21
143.172
  0
LINE
  8
0
 10
161.516
 20
143.172
 11
161.542
 21
143.012
  0
LINE
  8
0
 10
161.542
 20
143.012
 11
161.55
 21
142.85
  0
LINE
  8
0
 10
161.55
 20
142.85
 11
161.542
 21
142.688
  0
LINE
  8
0
 10
161.542
 20
142.688
 11
161.516
 21
142.528
  0
LINE
  8
0
 10
161.516
 20
142.528
 11
161.474
 21
142.371
  0
LINE
  8
0
 10
161.474
 20
142.371
 11
161.416
 21
142.22
  0
LINE
  8
0
 10
161.416
 20
142.22
 11
161.342
 21
142.075
  0
LINE
  8
0
 10
161.342
 20
142.075
 11
161.254
 21
141.939
  0
LINE
  8
0
 10
161.254
 20
141.939
 11
161.152
 21
141.813
  0
LINE
  8
0
 10
161.152
 20
141.813
 11
161.037
 21
141.698
  0
LINE
  8
0
 10
161.037
 20
141.698
 11
160.911
 21
141.596
  0
LINE
  8
0
 10
160.911
 20
141.596
 11
160.775
 21
141.508
  0
LINE
  8
0
 10
160.775
 20
141.508
 11
160.63
 21
141.434
  0
LINE
  8
0
 10
160.63
 20
141.434
 11
160.479
 21
141.376
  0
LINE
  8
0
 10
160.479
 20
141.376
 11
160.322
 21
141.334
  0
LINE
  8
0
 10
160.322
 20
141.334
 11
160.162
 21
141.308
  0
LINE
  8
0
 10
160.162
 20
141.308
 11
160
 21
141.3
  0
LINE
  8
0
 10
160
 20
141.3
 11
159.838
 21
141.308
  0
LINE
  8
0
 10
209.838
 20
141.308
 11
209.678
 21
141.334
  0
LINE
  8
0
 10
209.678
 20
141.334
 11
209.521
 21
141.376
  0
LINE
  8
0
 10
209.521
 20
141.376
 11
209.37
 21
141.434
  0
LINE
  8
0
 10
209.37
 20
141.434
 11
209.225
 21
141.508
  0
LINE
  8
0
 10
209.225
 20
141.508
 11
209.089
 21
141.596
  0
LINE
  8
0
 10
209.089
 20
141.596
 11
208.963
 21
141.698
  0
LINE
  8
0
 10
208.963
 20
141.698
 11
208.848
 21
141.813
  0
LINE
  8
0
 10
208.848
 20
141.813
 11
208.746
 21
141.939
  0
LINE
  8
0
 10
208.746
 20
141.939
 11
208.658
 21
142.075
  0
LINE
  8
0
 10
208.658
 20
142.075
 11
208.584
 21
142.22
  0
LINE
  8
0
 10
208.584
 20
142.22
 11
208.526
 21
142.371
  0
LINE
  8
0
 10
208.526
 20
142.371
 11
208.484
 21
142.528
  0
LINE
  8
0
 10
208.484
 20
142.528
 11
208.458
 21
142.688
  0
LINE
  8
0
 10
208.458
 20
142.688
 11
208.45
 21
142.85
  0
LINE
  8
0
 10
208.45
 20
142.85
 11
208.458
 21
143.012
  0
LINE
  8
0
 10
208.458
 20
143.012
 11
208.484
 21
143.172
  0
LINE
  8
0
 10
208.484
 20
143.172
 11
208.526
 21
143.329
  0
LINE
  8
0
 10
208.526
 20
143.329
 11
208.584
 21
143.48
  0
LINE
  8
0
 10
208.584
 20
143.48
 11
208.658
 21
143.625
  0
LINE
  8
0
 10
208.658
 20
143.625
 11
208.746
 21
143.761
  0
LINE
  8
0
 10
208.746
 20
143.761
 11
208.848
 21
143.887
  0
LINE
  8
0
 10
208.848
 20
143.887
 11
208.963
 21
144.002
  0
LINE
  8
0
 10
208.963
 20
144.002
 11
209.089
 21
144.104
  0
LINE
  8
0
 10
209.089
 20
144.104
 11
209.225
 21
144.192
  0
LINE
  8
0
 10
209.225
 20
144.192
 11
209.37
 21
144.266
  0
LINE
  8
0
 10
209.37
 20
144.266
 11
209.521
 21
144.324
  0
LINE
  8
0
 10
209.521
 20
144.324
 11
209.678
 21
144.366
  0
LINE
  8
0
 10
209.678
 20
144.366
 11
209.838
 21
144.392
  0
LINE
  8
0
 10
209.838
 20
144.392
 11
210
 21
144.4
  0
LINE
  8
0
 10
210
 20
144.4
 11
210.162
 21
144.392
  0
LINE
  8
0
 10
210.162
 20
144.392
 11
210.322
 21
144.366
  0
LINE
  8
0
 10
210.322
 20
144.366
 11
210.479
 21
144.324
  0
LINE
  8
0
 10
210.479
 20
144.324
 11
210.63
 21
144.266
  0
LINE
  8
0
 10
210.63
 20
144.266
 11
210.775
 21
144.192
  0
LINE
  8
0
 10
210.775
 20
144.192
 11
210.911
 21
144.104
  0
LINE
  8
0
 10
210.911
 20
144.104
 11
211.037
 21
144.002
  0
LINE
  8
0
 10
211.037
 20
144.002
 11
211.152
 21
143.887
  0
LINE
  8
0
 10
211.152
 20
143.887
 11
211.254
 21
143.761
  0
LINE
  8
0
 10
211.254
 20
143.761
 11
211.342
 21
143.625
  0
LINE
  8
0
 10
211.342
 20
143.625
 11
211.416
 21
143.48
  0
LINE
  8
0
 10
211.416
 20
143.48
 11
211.474
 21
143.329
  0
LINE
  8
0
 10
211.474
 20
143.329
 11
211.516
 21
143.172
  0
LINE
  8
0
 10
211.516
 20
143.172
 11
211.542
 21
143.012
  0
LINE
  8
0
 10
211.542
 20
143.012
 11
211.55
 21
142.85
  0
LINE
  8
0
 10
211.55
 20
142.85
 11
211.542
 21
142.688
  0
LINE
  8
0
 10
211.542
 20
142.688
 11
211.516
 21
142.528
  0
LINE
  8
0
 10
211.516
 20
142.528
 11
211.474
 21
142.371
  0
LINE
  8
0
 10
211.474
 20
142.371
 11
211.416
 21
142.22
  0
LINE
  8
0
 10
211.416
 20
142.22
 11
211.342
 21
142.075
  0
LINE
  8
0
 10
211.342
 20
142.075
 11
211.254
 21
141.939
  0
LINE
  8
0
 10
211.254
 20
141.939
 11
211.152
 21
141.813
  0
LINE
  8
0
 10
211.152
 20
141.813
 11
211.037
 21
141.698
  0
LINE
  8
0
 10
211.037
 20
141.698
 11
210.911
 21
141.596
  0
LINE
  8
0
 10
210.911
 20
141.596
 11
210.775
 21
141.508
  0
LINE
  8
0
 10
210.775
 20
141.508
 11
210.63
 21
141.434
  0
LINE
  8
0
 10
210.63
 20
141.434
 11
210.479
 21
141.376
  0
LINE
  8
0
 10
210.479
 20
141.376
 11
210.322
 21
141.334
  0
LINE
  8
0
 10
210.322
 20
141.334
 11
210.162
 21
141.308
  0
LINE
  8
0
 10
210.162
 20
141.308
 11
210
 21
141.3
  0
LINE
  8
0
 10
210
 20
141.3
 11
209.838
 21
141.308
  0
LINE
  8
0
 10
188.1
 20
130.65
 11
188.1
 21
139.95
  0
LINE
  8
0
 10
188.1
 20
139.95
 11
191.2
 21
139.95
  0
LINE
  8
0
 10
191.2
 20
139.95
 11
191.2
 21
130.65
  0
LINE
  8
0
 10
191.2
 20
130.65
 11
188.1
 21
130.65
  0
LINE
  8
0
 10
181.9
 20
129.1
 11
181.9
 21
132.2
  0
LINE
  8
0
 10
181.9
 20
132.2
 11
185
 21
132.2
  0
LINE
  8
0
 10
185
 20
132.2
 11
185
 21
129.1
  0
LINE
  8
0
 10
185
 20
129.1
 11
181.9
 21
129.1
  0
LINE
  8
0
 10
184.676
 20
108.517
 11
184.355
 21
108.568
  0
LINE
  8
0
 10
184.355
 20
108.568
 11
184.042
 21
108.652
  0
LINE
  8
0
 10
184.042
 20
108.652
 11
183.739
 21
108.768
  0
LINE
  8
0
 10
183.739
 20
108.768
 11
183.45
 21
108.915
  0
LINE
  8
0
 10
183.45
 20
108.915
 11
183.178
 21
109.092
  0
LINE
  8
0
 10
183.178
 20
109.092
 11
182.926
 21
109.296
  0
LINE
  8
0
 10
182.926
 20
109.296
 11
182.696
 21
109.526
  0
LINE
  8
0
 10
182.696
 20
109.526
 11
182.492
 21
109.778
  0
LINE
  8
0
 10
182.492
 20
109.778
 11
182.315
 21
110.05
  0
LINE
  8
0
 10
182.315
 20
110.05
 11
182.168
 21
110.339
  0
LINE
  8
0
 10
182.168
 20
110.339
 11
182.052
 21
110.642
  0
LINE
  8
0
 10
182.052
 20
110.642
 11
181.968
 21
110.955
  0
LINE
  8
0
 10
181.968
 20
110.955
 11
181.917
 21
111.276
  0
LINE
  8
0
 10
181.917
 20
111.276
 11
181.9
 21
111.6
  0
LINE
  8
0
 10
181.9
 20
111.6
 11
181.917
 21
111.924
  0
LINE
  8
0
 10
181.917
 20
111.924
 11
181.968
 21
112.245
  0
LINE
  8
0
 10
181.968
 20
112.245
 11
182.052
 21
112.558
  0
LINE
  8
0
 10
182.052
 20
112.558
 11
182.168
 21
112.861
  0
LINE
  8
0
 10
182.168
 20
112.861
 11
182.315
 21
113.15
  0
LINE
  8
0
 10
182.315
 20
113.15
 11
182.492
 21
113.422
  0
LINE
  8
0
 10
182.492
 20
113.422
 11
182.696
 21
113.674
  0
LINE
  8
0
 10
182.696
 20
113.674
 11
182.926
 21
113.904
  0
LINE
  8
0
 10
182.926
 20
113.904
 11
183.178
 21
114.108
  0
LINE
  8
0
 10
183.178
 20
114.108
 11
183.45
 21
114.285
  0
LINE
  8
0
 10
183.45
 20
114.285
 11
183.739
 21
114.432
  0
LINE
  8
0
 10
183.739
 20
114.432
 11
184.042
 21
114.548
  0
LINE
  8
0
 10
184.042
 20
114.548
 11
184.355
 21
114.632
  0
LINE
  8
0
 10
184.355
 20
114.632
 11
184.676
 21
114.683
  0
LINE
  8
0
 10
184.676
 20
114.683
 11
185
 21
114.7
  0
LINE
  8
0
 10
185
 20
114.7
 11
185.324
 21
114.683
  0
LINE
  8
0
 10
185.324
 20
114.683
 11
185.645
 21
114.632
  0
LINE
  8
0
 10
185.645
 20
114.632
 11
185.958
 21
114.548
  0
LINE
  8
0
 10
185.958
 20
114.548
 11
186.261
 21
114.432
  0
LINE
  8
0
 10
186.261
 20
114.432
 11
186.55
 21
114.285
  0
LINE
  8
0
 10
186.55
 20
114.285
 11
186.822
 21
114.108
  0
LINE
  8
0
 10
186.822
 20
114.108
 11
187.074
 21
113.904
  0
LINE
  8
0
 10
187.074
 20
113.904
 11
187.304
 21
113.674
  0
LINE
  8
0
 10
187.304
 20
113.674
 11
187.508
 21
113.422
  0
LINE
  8
0
 10
187.508
 20
113.422
 11
187.685
 21
113.15
  0
LINE
  8
0
 10
187.685
 20
113.15
 11
187.832
 21
112.861
  0
LINE
  8
0
 10
187.832
 20
112.861
 11
187.948
 21
112.558
  0
LINE
  8
0
 10
187.948
 20
112.558
 11
188.032
 21
112.245
  0
LINE
  8
0
 10
188.032
 20
112.245
 11
188.083
 21
111.924
  0
LINE
  8
0
 10
188.083
 20
111.924
 11
188.1
 21
111.6
  0
LINE
  8
0
 10
188.1
 20
111.6
 11
188.083
 21
111.276
  0
LINE
  8
0
 10
188.083
 20
111.276
 11
188.032
 21
110.955
  0
LINE
  8
0
 10
188.032
 20
110.955
 11
187.948
 21
110.642
  0
LINE
  8
0
 10
187.948
 20
110.642
 11
187.832
 21
110.339
  0
LINE
  8
0
 10
187.832
 20
110.339
 11
187.685
 21
110.05
  0
LINE
  8
0
 10
187.685
 20
110.05
 11
187.508
 21
109.778
  0
LINE
  8
0
 10
187.508
 20
109.778
 11
187.304
 21
109.526
  0
LINE
  8
0
 10
187.304
 20
109.526
 11
187.074
 21
109.296
  0
LINE
  8
0
 10
187.074
 20
109.296
 11
186.822
 21
109.092
  0
LINE
  8
0
 10
186.822
 20
109.092
 11
186.55
 21
108.915
  0
LINE
  8
0
 10
186.55
 20
108.915
 11
186.261
 21
108.768
  0
LINE
  8
0
 10
186.261
 20
108.768
 11
185.958
 21
108.652
  0
LINE
  8
0
 10
185.958
 20
108.652
 11
185.645
 21
108.568
  0
LINE
  8
0
 10
185.645
 20
108.568
 11
185.324
 21
108.517
  0
LINE
  8
0
 10
185.324
 20
108.517
 11
185
 21
108.5
  0
LINE
  8
0
 10
185
 20
108.5
 11
184.676
 21
108.517
  0
LINE
  8
0
 10
209.838
 20
78.8085
 11
209.678
 21
78.8339
  0
LINE
  8
0
 10
209.678
 20
78.8339
 11
209.521
 21
78.8759
  0
LINE
  8
0
 10
209.521
 20
78.8759
 11
209.37
 21
78.934
  0
LINE
  8
0
 10
209.37
 20
78.934
 11
209.225
 21
79.0077
  0
LINE
  8
0
 10
209.225
 20
79.0077
 11
209.089
 21
79.096
  0
LINE
  8
0
 10
209.089
 20
79.096
 11
208.963
 21
79.1981
  0
LINE
  8
0
 10
208.963
 20
79.1981
 11
208.848
 21
79.3128
  0
LINE
  8
0
 10
208.848
 20
79.3128
 11
208.746
 21
79.4389
  0
LINE
  8
0
 10
208.746
 20
79.4389
 11
208.658
 21
79.575
  0
LINE
  8
0
 10
208.658
 20
79.575
 11
208.584
 21
79.7196
  0
LINE
  8
0
 10
208.584
 20
79.7196
 11
208.526
 21
79.871
  0
LINE
  8
0
 10
208.526
 20
79.871
 11
208.484
 21
80.0277
  0
LINE
  8
0
 10
208.484
 20
80.0277
 11
208.458
 21
80.188
  0
LINE
  8
0
 10
208.458
 20
80.188
 11
208.45
 21
80.35
  0
LINE
  8
0
 10
208.45
 20
80.35
 11
208.458
 21
80.512
  0
LINE
  8
0
 10
208.458
 20
80.512
 11
208.484
 21
80.6723
  0
LINE
  8
0
 10
208.484
 20
80.6723
 11
208.526
 21
80.829
  0
LINE
  8
0
 10
208.526
 20
80.829
 11
208.584
 21
80.9804
  0
LINE
  8
0
 10
208.584
 20
80.9804
 11
208.658
 21
81.125
  0
LINE
  8
0
 10
208.658
 20
81.125
 11
208.746
 21
81.2611
  0
LINE
  8
0
 10
208.746
 20
81.2611
 11
208.848
 21
81.3871
  0
LINE
  8
0
 10
208.848
 20
81.3871
 11
208.963
 21
81.5019
  0
LINE
  8
0
 10
208.963
 20
81.5019
 11
209.089
 21
81.604
  0
LINE
  8
0
 10
209.089
 20
81.604
 11
209.225
 21
81.6923
  0
LINE
  8
0
 10
209.225
 20
81.6923
 11
209.37
 21
81.766
  0
LINE
  8
0
 10
209.37
 20
81.766
 11
209.521
 21
81.8241
  0
LINE
  8
0
 10
209.521
 20
81.8241
 11
209.678
 21
81.8661
  0
LINE
  8
0
 10
209.678
 20
81.8661
 11
209.838
 21
81.8915
  0
LINE
  8
0
 10
209.838
 20
81.8915
 11
210
 21
81.9
  0
LINE
  8
0
 10
210
 20
81.9
 11
210.162
 21
81.8915
  0
LINE
  8
0
 10
210.162
 20
81.8915
 11
210.322
 21
81.8661
  0
LINE
  8
0
 10
210.322
 20
81.8661
 11
210.479
 21
81.8241
  0
LINE
  8
0
 10
210.479
 20
81.8241
 11
210.63
 21
81.766
  0
LINE
  8
0
 10
210.63
 20
81.766
 11
210.775
 21
81.6923
  0
LINE
  8
0
 10
210.775
 20
81.6923
 11
210.911
 21
81.604
  0
LINE
  8
0
 10
210.911
 20
81.604
 11
211.037
 21
81.5019
  0
LINE
  8
0
 10
211.037
 20
81.5019
 11
211.152
 21
81.3871
  0
LINE
  8
0
 10
211.152
 20
81.3871
 11
211.254
 21
81.2611
  0
LINE
  8
0
 10
211.254
 20
81.2611
 11
211.342
 21
81.125
  0
LINE
  8
0
 10
211.342
 20
81.125
 11
211.416
 21
80.9804
  0
LINE
  8
0
 10
211.416
 20
80.9804
 11
211.474
 21
80.829
  0
LINE
  8
0
 10
211.474
 20
80.829
 11
211.516
 21
80.6723
  0
LINE
  8
0
 10
211.516
 20
80.6723
 11
211.542
 21
80.512
  0
LINE
  8
0
 10
211.542
 20
80.512
 11
211.55
 21
80.35
  0
LINE
  8
0
 10
211.55
 20
80.35
 11
211.542
 21
80.188
  0
LINE
  8
0
 10
211.542
 20
80.188
 11
211.516
 21
80.0277
  0
LINE
  8
0
 10
211.516
 20
80.0277
 11
211.474
 21
79.871
  0
LINE
  8
0
 10
211.474
 20
79.871
 11
211.416
 21
79.7196
  0
LINE
  8
0
 10
211.416
 20
79.7196
 11
211.342
 21
79.575
  0
LINE
  8
0
 10
211.342
 20
79.575
 11
211.254
 21
79.4389
  0
LINE
  8
0
 10
211.254
 20
79.4389
 11
211.152
 21
79.3128
  0
LINE
  8
0
 10
211.152
 20
79.3128
 11
211.037
 21
79.1981
  0
LINE
  8
0
 10
211.037
 20
79.1981
 11
210.911
 21
79.096
  0
LINE
  8
0
 10
210.911
 20
79.096
 11
210.775
 21
79.0077
  0
LINE
  8
0
 10
210.775
 20
79.0077
 11
210.63
 21
78.934
  0
LINE
  8
0
 10
210.63
 20
78.934
 11
210.479
 21
78.8759
  0
LINE
  8
0
 10
210.479
 20
78.8759
 11
210.322
 21
78.8339
  0
LINE
  8
0
 10
210.322
 20
78.8339
 11
210.162
 21
78.8085
  0
LINE
  8
0
 10
210.162
 20
78.8085
 11
210
 21
78.8
  0
LINE
  8
0
 10
210
 20
78.8
 11
209.838
 21
78.8085
  0
LINE
  8
0
 10
159.838
 20
78.8085
 11
159.678
 21
78.8339
  0
LINE
  8
0
 10
159.678
 20
78.8339
 11
159.521
 21
78.8759
  0
LINE
  8
0
 10
159.521
 20
78.8759
 11
159.37
 21
78.934
  0
LINE
  8
0
 10
159.37
 20
78.934
 11
159.225
 21
79.0077
  0
LINE
  8
0
 10
159.225
 20
79.0077
 11
159.089
 21
79.096
  0
LINE
  8
0
 10
159.089
 20
79.096
 11
158.963
 21
79.1981
  0
LINE
  8
0
 10
158.963
 20
79.1981
 11
158.848
 21
79.3128
  0
LINE
  8
0
 10
158.848
 20
79.3128
 11
158.746
 21
79.4389
  0
LINE
  8
0
 10
158.746
 20
79.4389
 11
158.658
 21
79.575
  0
LINE
  8
0
 10
158.658
 20
79.575
 11
158.584
 21
79.7196
  0
LINE
  8
0
 10
158.584
 20
79.7196
 11
158.526
 21
79.871
  0
LINE
  8
0
 10
158.526
 20
79.871
 11
158.484
 21
80.0277
  0
LINE
  8
0
 10
158.484
 20
80.0277
 11
158.458
 21
80.188
  0
LINE
  8
0
 10
158.458
 20
80.188
 11
158.45
 21
80.35
  0
LINE
  8
0
 10
158.45
 20
80.35
 11
158.458
 21
80.512
  0
LINE
  8
0
 10
158.458
 20
80.512
 11
158.484
 21
80.6723
  0
LINE
  8
0
 10
158.484
 20
80.6723
 11
158.526
 21
80.829
  0
LINE
  8
0
 10
158.526
 20
80.829
 11
158.584
 21
80.9804
  0
LINE
  8
0
 10
158.584
 20
80.9804
 11
158.658
 21
81.125
  0
LINE
  8
0
 10
158.658
 20
81.125
 11
158.746
 21
81.2611
  0
LINE
  8
0
 10
158.746
 20
81.2611
 11
158.848
 21
81.3871
  0
LINE
  8
0
 10
158.848
 20
81.3871
 11
158.963
 21
81.5019
  0
LINE
  8
0
 10
158.963
 20
81.5019
 11
159.089
 21
81.604
  0
LINE
  8
0
 10
159.089
 20
81.604
 11
159.225
 21
81.6923
  0
LINE
  8
0
 10
159.225
 20
81.6923
 11
159.37
 21
81.766
  0
LINE
  8
0
 10
159.37
 20
81.766
 11
159.521
 21
81.8241
  0
LINE
  8
0
 10
159.521
 20
81.8241
 11
159.678
 21
81.8661
  0
LINE
  8
0
 10
159.678
 20
81.8661
 11
159.838
 21
81.8915
  0
LINE
  8
0
 10
159.838
 20
81.8915
 11
160
 21
81.9
  0
LINE
  8
0
 10
160
 20
81.9
 11
160.162
 21
81.8915
  0
LINE
  8
0
 10
160.162
 20
81.8915
 11
160.322
 21
81.8661
  0
LINE
  8
0
 10
160.322
 20
81.8661
 11
160.479
 21
81.8241
  0
LINE
  8
0
 10
160.479
 20
81.8241
 11
160.63
 21
81.766
  0
LINE
  8
0
 10
160.63
 20
81.766
 11
160.775
 21
81.6923
  0
LINE
  8
0
 10
160.775
 20
81.6923
 11
160.911
 21
81.604
  0
LINE
  8
0
 10
160.911
 20
81.604
 11
161.037
 21
81.5019
  0
LINE
  8
0
 10
161.037
 20
81.5019
 11
161.152
 21
81.3871
  0
LINE
  8
0
 10
161.152
 20
81.3871
 11
161.254
 21
81.2611
  0
LINE
  8
0
 10
161.254
 20
81.2611
 11
161.342
 21
81.125
  0
LINE
  8
0
 10
161.342
 20
81.125
 11
161.416
 21
80.9804
  0
LINE
  8
0
 10
161.416
 20
80.9804
 11
161.474
 21
80.829
  0
LINE
  8
0
 10
161.474
 20
80.829
 11
161.516
 21
80.6723
  0
LINE
  8
0
 10
161.516
 20
80.6723
 11
161.542
 21
80.512
  0
LINE
  8
0
 10
161.542
 20
80.512
 11
161.55
 21
80.35
  0
LINE
  8
0
 10
161.55
 20
80.35
 11
161.542
 21
80.188
  0
LINE
  8
0
 10
161.542
 20
80.188
 11
161.516
 21
80.0277
  0
LINE
  8
0
 10
161.516
 20
80.0277
 11
161.474
 21
79.871
  0
LINE
  8
0
 10
161.474
 20
79.871
 11
161.416
 21
79.7196
  0
LINE
  8
0
 10
161.416
 20
79.7196
 11
161.342
 21
79.575
  0
LINE
  8
0
 10
161.342
 20
79.575
 11
161.254
 21
79.4389
  0
LINE
  8
0
 10
161.254
 20
79.4389
 11
161.152
 21
79.3128
  0
LINE
  8
0
 10
161.152
 20
79.3128
 11
161.037
 21
79.1981
  0
LINE
  8
0
 10
161.037
 20
79.1981
 11
160.911
 21
79.096
  0
LINE
  8
0
 10
160.911
 20
79.096
 11
160.775
 21
79.0077
  0
LINE
  8
0
 10
160.775
 20
79.0077
 11
160.63
 21
78.934
  0
LINE
  8
0
 10
160.63
 20
78.934
 11
160.479
 21
78.8759
  0
LINE
  8
0
 10
160.479
 20
78.8759
 11
160.322
 21
78.8339
  0
LINE
  8
0
 10
160.322
 20
78.8339
 11
160.162
 21
78.8085
  0
LINE
  8
0
 10
160.162
 20
78.8085
 11
160
 21
78.8
  0
LINE
  8
0
 10
160
 20
78.8
 11
159.838
 21
78.8085
  0
LINE
  8
0
 10
134.838
 20
47.5585
 11
134.678
 21
47.5839
  0
LINE
  8
0
 10
134.678
 20
47.5839
 11
134.521
 21
47.6259
  0
LINE
  8
0
 10
134.521
 20
47.6259
 11
134.37
 21
47.684
  0
LINE
  8
0
 10
134.37
 20
47.684
 11
134.225
 21
47.7577
  0
LINE
  8
0
 10
134.225
 20
47.7577
 11
134.089
 21
47.846
  0
LINE
  8
0
 10
134.089
 20
47.846
 11
133.963
 21
47.9481
  0
LINE
  8
0
 10
133.963
 20
47.9481
 11
133.848
 21
48.0628
  0
LINE
  8
0
 10
133.848
 20
48.0628
 11
133.746
 21
48.1889
  0
LINE
  8
0
 10
133.746
 20
48.1889
 11
133.658
 21
48.325
  0
LINE
  8
0
 10
133.658
 20
48.325
 11
133.584
 21
48.4696
  0
LINE
  8
0
 10
133.584
 20
48.4696
 11
133.526
 21
48.621
  0
LINE
  8
0
 10
133.526
 20
48.621
 11
133.484
 21
48.7777
  0
LINE
  8
0
 10
133.484
 20
48.7777
 11
133.458
 21
48.938
  0
LINE
  8
0
 10
133.458
 20
48.938
 11
133.45
 21
49.1
  0
LINE
  8
0
 10
133.45
 20
49.1
 11
133.458
 21
49.262
  0
LINE
  8
0
 10
133.458
 20
49.262
 11
133.484
 21
49.4223
  0
LINE
  8
0
 10
133.484
 20
49.4223
 11
133.526
 21
49.579
  0
LINE
  8
0
 10
133.526
 20
49.579
 11
133.584
 21
49.7304
  0
LINE
  8
0
 10
133.584
 20
49.7304
 11
133.658
 21
49.875
  0
LINE
  8
0
 10
133.658
 20
49.875
 11
133.746
 21
50.0111
  0
LINE
  8
0
 10
133.746
 20
50.0111
 11
133.848
 21
50.1371
  0
LINE
  8
0
 10
133.848
 20
50.1371
 11
133.963
 21
50.2519
  0
LINE
  8
0
 10
133.963
 20
50.2519
 11
134.089
 21
50.354
  0
LINE
  8
0
 10
134.089
 20
50.354
 11
134.225
 21
50.4423
  0
LINE
  8
0
 10
134.225
 20
50.4423
 11
134.37
 21
50.516
  0
LINE
  8
0
 10
134.37
 20
50.516
 11
134.521
 21
50.5741
  0
LINE
  8
0
 10
134.521
 20
50.5741
 11
134.678
 21
50.6161
  0
LINE
  8
0
 10
134.678
 20
50.6161
 11
134.838
 21
50.6415
  0
LINE
  8
0
 10
134.838
 20
50.6415
 11
135
 21
50.65
  0
LINE
  8
0
 10
135
 20
50.65
 11
135.162
 21
50.6415
  0
LINE
  8
0
 10
135.162
 20
50.6415
 11
135.322
 21
50.6161
  0
LINE
  8
0
 10
135.322
 20
50.6161
 11
135.479
 21
50.5741
  0
LINE
  8
0
 10
135.479
 20
50.5741
 11
135.63
 21
50.516
  0
LINE
  8
0
 10
135.63
 20
50.516
 11
135.775
 21
50.4423
  0
LINE
  8
0
 10
135.775
 20
50.4423
 11
135.911
 21
50.354
  0
LINE
  8
0
 10
135.911
 20
50.354
 11
136.037
 21
50.2519
  0
LINE
  8
0
 10
136.037
 20
50.2519
 11
136.152
 21
50.1371
  0
LINE
  8
0
 10
136.152
 20
50.1371
 11
136.254
 21
50.0111
  0
LINE
  8
0
 10
136.254
 20
50.0111
 11
136.342
 21
49.875
  0
LINE
  8
0
 10
136.342
 20
49.875
 11
136.416
 21
49.7304
  0
LINE
  8
0
 10
136.416
 20
49.7304
 11
136.474
 21
49.579
  0
LINE
  8
0
 10
136.474
 20
49.579
 11
136.516
 21
49.4223
  0
LINE
  8
0
 10
136.516
 20
49.4223
 11
136.542
 21
49.262
  0
LINE
  8
0
 10
136.542
 20
49.262
 11
136.55
 21
49.1
  0
LINE
  8
0
 10
136.55
 20
49.1
 11
136.542
 21
48.938
  0
LINE
  8
0
 10
136.542
 20
48.938
 11
136.516
 21
48.7777
  0
LINE
  8
0
 10
136.516
 20
48.7777
 11
136.474
 21
48.621
  0
LINE
  8
0
 10
136.474
 20
48.621
 11
136.416
 21
48.4696
  0
LINE
  8
0
 10
136.416
 20
48.4696
 11
136.342
 21
48.325
  0
LINE
  8
0
 10
136.342
 20
48.325
 11
136.254
 21
48.1889
  0
LINE
  8
0
 10
136.254
 20
48.1889
 11
136.152
 21
48.0628
  0
LINE
  8
0
 10
136.152
 20
48.0628
 11
136.037
 21
47.9481
  0
LINE
  8
0
 10
136.037
 20
47.9481
 11
135.911
 21
47.846
  0
LINE
  8
0
 10
135.911
 20
47.846
 11
135.775
 21
47.7577
  0
LINE
  8
0
 10
135.775
 20
47.7577
 11
135.63
 21
47.684
  0
LINE
  8
0
 10
135.63
 20
47.684
 11
135.479
 21
47.6259
  0
LINE
  8
0
 10
135.479
 20
47.6259
 11
135.322
 21
47.5839
  0
LINE
  8
0
 10
135.322
 20
47.5839
 11
135.162
 21
47.5585
  0
LINE
  8
0
 10
135.162
 20
47.5585
 11
135
 21
47.55
  0
LINE
  8
0
 10
135
 20
47.55
 11
134.838
 21
47.5585
  0
LINE
  8
0
 10
234.838
 20
47.5585
 11
234.678
 21
47.5839
  0
LINE
  8
0
 10
234.678
 20
47.5839
 11
234.521
 21
47.6259
  0
LINE
  8
0
 10
234.521
 20
47.6259
 11
234.37
 21
47.684
  0
LINE
  8
0
 10
234.37
 20
47.684
 11
234.225
 21
47.7577
  0
LINE
  8
0
 10
234.225
 20
47.7577
 11
234.089
 21
47.846
  0
LINE
  8
0
 10
234.089
 20
47.846
 11
233.963
 21
47.9481
  0
LINE
  8
0
 10
233.963
 20
47.9481
 11
233.848
 21
48.0628
  0
LINE
  8
0
 10
233.848
 20
48.0628
 11
233.746
 21
48.1889
  0
LINE
  8
0
 10
233.746
 20
48.1889
 11
233.658
 21
48.325
  0
LINE
  8
0
 10
233.658
 20
48.325
 11
233.584
 21
48.4696
  0
LINE
  8
0
 10
233.584
 20
48.4696
 11
233.526
 21
48.621
  0
LINE
  8
0
 10
233.526
 20
48.621
 11
233.484
 21
48.7777
  0
LINE
  8
0
 10
233.484
 20
48.7777
 11
233.458
 21
48.938
  0
LINE
  8
0
 10
233.458
 20
48.938
 11
233.45
 21
49.1
  0
LINE
  8
0
 10
233.45
 20
49.1
 11
233.458
 21
49.262
  0
LINE
  8
0
 10
233.458
 20
49.262
 11
233.484
 21
49.4223
  0
LINE
  8
0
 10
233.484
 20
49.4223
 11
233.526
 21
49.579
  0
LINE
  8
0
 10
233.526
 20
49.579
 11
233.584
 21
49.7304
  0
LINE
  8
0
 10
233.584
 20
49.7304
 11
233.658
 21
49.875
  0
LINE
  8
0
 10
233.658
 20
49.875
 11
233.746
 21
50.0111
  0
LINE
  8
0
 10
233.746
 20
50.0111
 11
233.848
 21
50.1371
  0
LINE
  8
0
 10
233.848
 20
50.1371
 11
233.963
 21
50.2519
  0
LINE
  8
0
 10
233.963
 20
50.2519
 11
234.089
 21
50.354
  0
LINE
  8
0
 10
234.089
 20
50.354
 11
234.225
 21
50.4423
  0
LINE
  8
0
 10
234.225
 20
50.4423
 11
234.37
 21
50.516
  0
LINE
  8
0
 10
234.37
 20
50.516
 11
234.521
 21
50.5741
  0
LINE
  8
0
 10
234.521
 20
50.5741
 11
234.678
 21
50.6161
  0
LINE
  8
0
 10
234.678
 20
50.6161
 11
234.838
 21
50.6415
  0
LINE
  8
0
 10
234.838
 20
50.6415
 11
235
 21
50.65
  0
LINE
  8
0
 10
235
 20
50.65
 11
235.162
 21
50.6415
  0
LINE
  8
0
 10
235.162
 20
50.6415
 11
235.322
 21
50.6161
  0
LINE
  8
0
 10
235.322
 20
50.6161
 11
235.479
 21
50.5741
  0
LINE
  8
0
 10
235.479
 20
50.5741
 11
235.63
 21
50.516
  0
LINE
  8
0
 10
235.63
 20
50.516
 11
235.775
 21
50.4423
  0
LINE
  8
0
 10
235.775
 20
50.4423
 11
235.911
 21
50.354
  0
LINE
  8
0
 10
235.911
 20
50.354
 11
236.037
 21
50.2519
  0
LINE
  8
0
 10
236.037
 20
50.2519
 11
236.152
 21
50.1371
  0
LINE
  8
0
 10
236.152
 20
50.1371
 11
236.254
 21
50.0111
  0
LINE
  8
0
 10
236.254
 20
50.0111
 11
236.342
 21
49.875
  0
LINE
  8
0
 10
236.342
 20
49.875
 11
236.416
 21
49.7304
  0
LINE
  8
0
 10
236.416
 20
49.7304
 11
236.474
 21
49.579
  0
LINE
  8
0
 10
236.474
 20
49.579
 11
236.516
 21
49.4223
  0
LINE
  8
0
 10
236.516
 20
49.4223
 11
236.542
 21
49.262
  0
LINE
  8
0
 10
236.542
 20
49.262
 11
236.55
 21
49.1
  0
LINE
  8
0
 10
236.55
 20
49.1
 11
236.542
 21
48.938
  0
LINE
  8
0
 10
236.542
 20
48.938
 11
236.516
 21
48.7777
  0
LINE
  8
0
 10
236.516
 20
48.7777
 11
236.474
 21
48.621
  0
LINE
  8
0
 10
236.474
 20
48.621
 11
236.416
 21
48.4696
  0
LINE
  8
0
 10
236.416
 20
48.4696
 11
236.342
 21
48.325
  0
LINE
  8
0
 10
236.342
 20
48.325
 11
236.254
 21
48.1889
  0
LINE
  8
0
 10
236.254
 20
48.1889
 11
236.152
 21
48.0628
  0
LINE
  8
0
 10
236.152
 20
48.0628
 11
236.037
 21
47.9481
  0
LINE
  8
0
 10
236.037
 20
47.9481
 11
235.911
 21
47.846
  0
LINE
  8
0
 10
235.911
 20
47.846
 11
235.775
 21
47.7577
  0
LINE
  8
0
 10
235.775
 20
47.7577
 11
235.63
 21
47.684
  0
LINE
  8
0
 10
235.63
 20
47.684
 11
235.479
 21
47.6259
  0
LINE
  8
0
 10
235.479
 20
47.6259
 11
235.322
 21
47.5839
  0
LINE
  8
0
 10
235.322
 20
47.5839
 11
235.162
 21
47.5585
  0
LINE
  8
0
 10
235.162
 20
47.5585
 11
235
 21
47.55
  0
LINE
  8
0
 10
235
 20
47.55
 11
234.838
 21
47.5585
  0
LINE
  8
0
 10
142.145
 20
5.60547
 11
142.042
 21
5.62184
  0
LINE
  8
0
 10
142.042
 20
5.62184
 11
141.941
 21
5.64894
  0
LINE
  8
0
 10
141.941
 20
5.64894
 11
141.843
 21
5.68645
  0
LINE
  8
0
 10
141.843
 20
5.68645
 11
141.75
 21
5.73396
  0
LINE
  8
0
 10
141.75
 20
5.73396
 11
141.662
 21
5.79097
  0
LINE
  8
0
 10
141.662
 20
5.79097
 11
141.581
 21
5.85684
  0
LINE
  8
0
 10
141.581
 20
5.85684
 11
141.507
 21
5.93086
  0
LINE
  8
0
 10
141.507
 20
5.93086
 11
141.441
 21
6.01221
  0
LINE
  8
0
 10
141.441
 20
6.01221
 11
141.384
 21
6.09999
  0
LINE
  8
0
 10
141.384
 20
6.09999
 11
141.336
 21
6.19325
  0
LINE
  8
0
 10
141.336
 20
6.19325
 11
141.299
 21
6.29097
  0
LINE
  8
0
 10
141.299
 20
6.29097
 11
141.272
 21
6.39207
  0
LINE
  8
0
 10
141.272
 20
6.39207
 11
141.255
 21
6.49547
  0
LINE
  8
0
 10
141.255
 20
6.49547
 11
141.25
 21
6.59999
  0
LINE
  8
0
 10
141.25
 20
6.59999
 11
141.255
 21
6.70451
  0
LINE
  8
0
 10
141.255
 20
6.70451
 11
141.272
 21
6.80791
  0
LINE
  8
0
 10
141.272
 20
6.80791
 11
141.299
 21
6.90901
  0
LINE
  8
0
 10
141.299
 20
6.90901
 11
141.336
 21
7.00673
  0
LINE
  8
0
 10
141.336
 20
7.00673
 11
141.384
 21
7.09999
  0
LINE
  8
0
 10
141.384
 20
7.09999
 11
141.441
 21
7.18777
  0
LINE
  8
0
 10
141.441
 20
7.18777
 11
141.507
 21
7.26912
  0
LINE
  8
0
 10
141.507
 20
7.26912
 11
141.581
 21
7.34314
  0
LINE
  8
0
 10
141.581
 20
7.34314
 11
141.662
 21
7.40901
  0
LINE
  8
0
 10
141.662
 20
7.40901
 11
141.75
 21
7.46602
  0
LINE
  8
0
 10
141.75
 20
7.46602
 11
141.843
 21
7.51353
  0
LINE
  8
0
 10
141.843
 20
7.51353
 11
141.941
 21
7.55106
  0
LINE
  8
0
 10
141.941
 20
7.55106
 11
142.042
 21
7.57814
  0
LINE
  8
0
 10
142.042
 20
7.57814
 11
142.145
 21
7.59451
  0
LINE
  8
0
 10
142.145
 20
7.59451
 11
142.25
 21
7.59999
  0
LINE
  8
0
 10
142.25
 20
7.59999
 11
142.355
 21
7.59451
  0
LINE
  8
0
 10
142.355
 20
7.59451
 11
142.458
 21
7.57814
  0
LINE
  8
0
 10
142.458
 20
7.57814
 11
142.559
 21
7.55106
  0
LINE
  8
0
 10
142.559
 20
7.55106
 11
142.657
 21
7.51353
  0
LINE
  8
0
 10
142.657
 20
7.51353
 11
142.75
 21
7.46602
  0
LINE
  8
0
 10
142.75
 20
7.46602
 11
142.838
 21
7.40901
  0
LINE
  8
0
 10
142.838
 20
7.40901
 11
142.919
 21
7.34314
  0
LINE
  8
0
 10
142.919
 20
7.34314
 11
142.993
 21
7.26912
  0
LINE
  8
0
 10
142.993
 20
7.26912
 11
143.059
 21
7.18777
  0
LINE
  8
0
 10
143.059
 20
7.18777
 11
143.116
 21
7.09999
  0
LINE
  8
0
 10
143.116
 20
7.09999
 11
143.164
 21
7.00673
  0
LINE
  8
0
 10
143.164
 20
7.00673
 11
143.201
 21
6.90901
  0
LINE
  8
0
 10
143.201
 20
6.90901
 11
143.228
 21
6.80791
  0
LINE
  8
0
 10
143.228
 20
6.80791
 11
143.245
 21
6.70451
  0
LINE
  8
0
 10
143.245
 20
6.70451
 11
143.25
 21
6.59999
  0
LINE
  8
0
 10
143.25
 20
6.59999
 11
143.245
 21
6.49547
  0
LINE
  8
0
 10
143.245
 20
6.49547
 11
143.228
 21
6.39207
  0
LINE
  8
0
 10
143.228
 20
6.39207
 11
143.201
 21
6.29097
  0
LINE
  8
0
 10
143.201
 20
6.29097
 11
143.164
 21
6.19325
  0
LINE
  8
0
 10
143.164
 20
6.19325
 11
143.116
 21
6.09999
  0
LINE
  8
0
 10
143.116
 20
6.09999
 11
143.059
 21
6.01221
  0
LINE
  8
0
 10
143.059
 20
6.01221
 11
142.993
 21
5.93086
  0
LINE
  8
0
 10
142.993
 20
5.93086
 11
142.919
 21
5.85684
  0
LINE
  8
0
 10
142.919
 20
5.85684
 11
142.838
 21
5.79097
  0
LINE
  8
0
 10
142.838
 20
5.79097
 11
142.75
 21
5.73396
  0
LINE
  8
0
 10
142.75
 20
5.73396
 11
142.657
 21
5.68645
  0
LINE
  8
0
 10
142.657
 20
5.68645
 11
142.559
 21
5.64894
  0
LINE
  8
0
 10
142.559
 20
5.64894
 11
142.458
 21
5.62184
  0
LINE
  8
0
 10
142.458
 20
5.62184
 11
142.355
 21
5.60547
  0
LINE
  8
0
 10
142.355
 20
5.60547
 11
142.25
 21
5.59999
  0
LINE
  8
0
 10
142.25
 20
5.59999
 11
142.145
 21
5.60547
  0
LINE
  8
0
 10
170.395
 20
5.60547
 11
170.292
 21
5.62184
  0
LINE
  8
0
 10
170.292
 20
5.62184
 11
170.191
 21
5.64894
  0
LINE
  8
0
 10
170.191
 20
5.64894
 11
170.093
 21
5.68645
  0
LINE
  8
0
 10
170.093
 20
5.68645
 11
170
 21
5.73396
  0
LINE
  8
0
 10
170
 20
5.73396
 11
169.912
 21
5.79097
  0
LINE
  8
0
 10
169.912
 20
5.79097
 11
169.831
 21
5.85684
  0
LINE
  8
0
 10
169.831
 20
5.85684
 11
169.757
 21
5.93086
  0
LINE
  8
0
 10
169.757
 20
5.93086
 11
169.691
 21
6.01221
  0
LINE
  8
0
 10
169.691
 20
6.01221
 11
169.634
 21
6.09999
  0
LINE
  8
0
 10
169.634
 20
6.09999
 11
169.586
 21
6.19325
  0
LINE
  8
0
 10
169.586
 20
6.19325
 11
169.549
 21
6.29097
  0
LINE
  8
0
 10
169.549
 20
6.29097
 11
169.522
 21
6.39207
  0
LINE
  8
0
 10
169.522
 20
6.39207
 11
169.505
 21
6.49547
  0
LINE
  8
0
 10
169.505
 20
6.49547
 11
169.5
 21
6.59999
  0
LINE
  8
0
 10
169.5
 20
6.59999
 11
169.505
 21
6.70451
  0
LINE
  8
0
 10
169.505
 20
6.70451
 11
169.522
 21
6.80791
  0
LINE
  8
0
 10
169.522
 20
6.80791
 11
169.549
 21
6.90901
  0
LINE
  8
0
 10
169.549
 20
6.90901
 11
169.586
 21
7.00673
  0
LINE
  8
0
 10
169.586
 20
7.00673
 11
169.634
 21
7.09999
  0
LINE
  8
0
 10
169.634
 20
7.09999
 11
169.691
 21
7.18777
  0
LINE
  8
0
 10
169.691
 20
7.18777
 11
169.757
 21
7.26912
  0
LINE
  8
0
 10
169.757
 20
7.26912
 11
169.831
 21
7.34314
  0
LINE
  8
0
 10
169.831
 20
7.34314
 11
169.912
 21
7.40901
  0
LINE
  8
0
 10
169.912
 20
7.40901
 11
170
 21
7.46602
  0
LINE
  8
0
 10
170
 20
7.46602
 11
170.093
 21
7.51353
  0
LINE
  8
0
 10
170.093
 20
7.51353
 11
170.191
 21
7.55106
  0
LINE
  8
0
 10
170.191
 20
7.55106
 11
170.292
 21
7.57814
  0
LINE
  8
0
 10
170.292
 20
7.57814
 11
170.395
 21
7.59451
  0
LINE
  8
0
 10
170.395
 20
7.59451
 11
170.5
 21
7.59999
  0
LINE
  8
0
 10
170.5
 20
7.59999
 11
170.605
 21
7.59451
  0
LINE
  8
0
 10
170.605
 20
7.59451
 11
170.708
 21
7.57814
  0
LINE
  8
0
 10
170.708
 20
7.57814
 11
170.809
 21
7.55106
  0
LINE
  8
0
 10
170.809
 20
7.55106
 11
170.907
 21
7.51353
  0
LINE
  8
0
 10
170.907
 20
7.51353
 11
171
 21
7.46602
  0
LINE
  8
0
 10
171
 20
7.46602
 11
171.088
 21
7.40901
  0
LINE
  8
0
 10
171.088
 20
7.40901
 11
171.169
 21
7.34314
  0
LINE
  8
0
 10
171.169
 20
7.34314
 11
171.243
 21
7.26912
  0
LINE
  8
0
 10
171.243
 20
7.26912
 11
171.309
 21
7.18777
  0
LINE
  8
0
 10
171.309
 20
7.18777
 11
171.366
 21
7.09999
  0
LINE
  8
0
 10
171.366
 20
7.09999
 11
171.414
 21
7.00673
  0
LINE
  8
0
 10
171.414
 20
7.00673
 11
171.451
 21
6.90901
  0
LINE
  8
0
 10
171.451
 20
6.90901
 11
171.478
 21
6.80791
  0
LINE
  8
0
 10
171.478
 20
6.80791
 11
171.495
 21
6.70451
  0
LINE
  8
0
 10
171.495
 20
6.70451
 11
171.5
 21
6.59999
  0
LINE
  8
0
 10
171.5
 20
6.59999
 11
171.495
 21
6.49547
  0
LINE
  8
0
 10
171.495
 20
6.49547
 11
171.478
 21
6.39207
  0
LINE
  8
0
 10
171.478
 20
6.39207
 11
171.451
 21
6.29097
  0
LINE
  8
0
 10
171.451
 20
6.29097
 11
171.414
 21
6.19325
  0
LINE
  8
0
 10
171.414
 20
6.19325
 11
171.366
 21
6.09999
  0
LINE
  8
0
 10
171.366
 20
6.09999
 11
171.309
 21
6.01221
  0
LINE
  8
0
 10
171.309
 20
6.01221
 11
171.243
 21
5.93086
  0
LINE
  8
0
 10
171.243
 20
5.93086
 11
171.169
 21
5.85684
  0
LINE
  8
0
 10
171.169
 20
5.85684
 11
171.088
 21
5.79097
  0
LINE
  8
0
 10
171.088
 20
5.79097
 11
171
 21
5.73396
  0
LINE
  8
0
 10
171
 20
5.73396
 11
170.907
 21
5.68645
  0
LINE
  8
0
 10
170.907
 20
5.68645
 11
170.809
 21
5.64894
  0
LINE
  8
0
 10
170.809
 20
5.64894
 11
170.708
 21
5.62184
  0
LINE
  8
0
 10
170.708
 20
5.62184
 11
170.605
 21
5.60547
  0
LINE
  8
0
 10
170.605
 20
5.60547
 11
170.5
 21
5.59999
  0
LINE
  8
0
 10
170.5
 20
5.59999
 11
170.395
 21
5.60547
  0
LINE
  8
0
 10
199.395
 20
5.60547
 11
199.292
 21
5.62184
  0
LINE
  8
0
 10
199.292
 20
5.62184
 11
199.191
 21
5.64894
  0
LINE
  8
0
 10
199.191
 20
5.64894
 11
199.093
 21
5.68645
  0
LINE
  8
0
 10
199.093
 20
5.68645
 11
199
 21
5.73396
  0
LINE
  8
0
 10
199
 20
5.73396
 11
198.912
 21
5.79097
  0
LINE
  8
0
 10
198.912
 20
5.79097
 11
198.831
 21
5.85684
  0
LINE
  8
0
 10
198.831
 20
5.85684
 11
198.757
 21
5.93086
  0
LINE
  8
0
 10
198.757
 20
5.93086
 11
198.691
 21
6.01221
  0
LINE
  8
0
 10
198.691
 20
6.01221
 11
198.634
 21
6.09999
  0
LINE
  8
0
 10
198.634
 20
6.09999
 11
198.586
 21
6.19325
  0
LINE
  8
0
 10
198.586
 20
6.19325
 11
198.549
 21
6.29097
  0
LINE
  8
0
 10
198.549
 20
6.29097
 11
198.522
 21
6.39207
  0
LINE
  8
0
 10
198.522
 20
6.39207
 11
198.505
 21
6.49547
  0
LINE
  8
0
 10
198.505
 20
6.49547
 11
198.5
 21
6.59999
  0
LINE
  8
0
 10
198.5
 20
6.59999
 11
198.505
 21
6.70451
  0
LINE
  8
0
 10
198.505
 20
6.70451
 11
198.522
 21
6.80791
  0
LINE
  8
0
 10
198.522
 20
6.80791
 11
198.549
 21
6.90901
  0
LINE
  8
0
 10
198.549
 20
6.90901
 11
198.586
 21
7.00673
  0
LINE
  8
0
 10
198.586
 20
7.00673
 11
198.634
 21
7.09999
  0
LINE
  8
0
 10
198.634
 20
7.09999
 11
198.691
 21
7.18777
  0
LINE
  8
0
 10
198.691
 20
7.18777
 11
198.757
 21
7.26912
  0
LINE
  8
0
 10
198.757
 20
7.26912
 11
198.831
 21
7.34314
  0
LINE
  8
0
 10
198.831
 20
7.34314
 11
198.912
 21
7.40901
  0
LINE
  8
0
 10
198.912
 20
7.40901
 11
199
 21
7.46602
  0
LINE
  8
0
 10
199
 20
7.46602
 11
199.093
 21
7.51353
  0
LINE
  8
0
 10
199.093
 20
7.51353
 11
199.191
 21
7.55106
  0
LINE
  8
0
 10
199.191
 20
7.55106
 11
199.292
 21
7.57814
  0
LINE
  8
0
 10
199.292
 20
7.57814
 11
199.395
 21
7.59451
  0
LINE
  8
0
 10
199.395
 20
7.59451
 11
199.5
 21
7.59999
  0
LINE
  8
0
 10
199.5
 20
7.59999
 11
199.605
 21
7.59451
  0
LINE
  8
0
 10
199.605
 20
7.59451
 11
199.708
 21
7.57814
  0
LINE
  8
0
 10
199.708
 20
7.57814
 11
199.809
 21
7.55106
  0
LINE
  8
0
 10
199.809
 20
7.55106
 11
199.907
 21
7.51353
  0
LINE
  8
0
 10
199.907
 20
7.51353
 11
200
 21
7.46602
  0
LINE
  8
0
 10
200
 20
7.46602
 11
200.088
 21
7.40901
  0
LINE
  8
0
 10
200.088
 20
7.40901
 11
200.169
 21
7.34314
  0
LINE
  8
0
 10
200.169
 20
7.34314
 11
200.243
 21
7.26912
  0
LINE
  8
0
 10
200.243
 20
7.26912
 11
200.309
 21
7.18777
  0
LINE
  8
0
 10
200.309
 20
7.18777
 11
200.366
 21
7.09999
  0
LINE
  8
0
 10
200.366
 20
7.09999
 11
200.414
 21
7.00673
  0
LINE
  8
0
 10
200.414
 20
7.00673
 11
200.451
 21
6.90901
  0
LINE
  8
0
 10
200.451
 20
6.90901
 11
200.478
 21
6.80791
  0
LINE
  8
0
 10
200.478
 20
6.80791
 11
200.495
 21
6.70451
  0
LINE
  8
0
 10
200.495
 20
6.70451
 11
200.5
 21
6.59999
  0
LINE
  8
0
 10
200.5
 20
6.59999
 11
200.495
 21
6.49547
  0
LINE
  8
0
 10
200.495
 20
6.49547
 11
200.478
 21
6.39207
  0
LINE
  8
0
 10
200.478
 20
6.39207
 11
200.451
 21
6.29097
  0
LINE
  8
0
 10
200.451
 20
6.29097
 11
200.414
 21
6.19325
  0
LINE
  8
0
 10
200.414
 20
6.19325
 11
200.366
 21
6.09999
  0
LINE
  8
0
 10
200.366
 20
6.09999
 11
200.309
 21
6.01221
  0
LINE
  8
0
 10
200.309
 20
6.01221
 11
200.243
 21
5.93086
  0
LINE
  8
0
 10
200.243
 20
5.93086
 11
200.169
 21
5.85684
  0
LINE
  8
0
 10
200.169
 20
5.85684
 11
200.088
 21
5.79097
  0
LINE
  8
0
 10
200.088
 20
5.79097
 11
200
 21
5.73396
  0
LINE
  8
0
 10
200
 20
5.73396
 11
199.907
 21
5.68645
  0
LINE
  8
0
 10
199.907
 20
5.68645
 11
199.809
 21
5.64894
  0
LINE
  8
0
 10
199.809
 20
5.64894
 11
199.708
 21
5.62184
  0
LINE
  8
0
 10
199.708
 20
5.62184
 11
199.605
 21
5.60547
  0
LINE
  8
0
 10
199.605
 20
5.60547
 11
199.5
 21
5.59999
  0
LINE
  8
0
 10
199.5
 20
5.59999
 11
199.395
 21
5.60547
  0
LINE
  8
0
 10
227.645
 20
5.60547
 11
227.542
 21
5.62184
  0
LINE
  8
0
 10
227.542
 20
5.62184
 11
227.441
 21
5.64894
  0
LINE
  8
0
 10
227.441
 20
5.64894
 11
227.343
 21
5.68645
  0
LINE
  8
0
 10
227.343
 20
5.68645
 11
227.25
 21
5.73396
  0
LINE
  8
0
 10
227.25
 20
5.73396
 11
227.162
 21
5.79097
  0
LINE
  8
0
 10
227.162
 20
5.79097
 11
227.081
 21
5.85684
  0
LINE
  8
0
 10
227.081
 20
5.85684
 11
227.007
 21
5.93086
  0
LINE
  8
0
 10
227.007
 20
5.93086
 11
226.941
 21
6.01221
  0
LINE
  8
0
 10
226.941
 20
6.01221
 11
226.884
 21
6.09999
  0
LINE
  8
0
 10
226.884
 20
6.09999
 11
226.836
 21
6.19325
  0
LINE
  8
0
 10
226.836
 20
6.19325
 11
226.799
 21
6.29097
  0
LINE
  8
0
 10
226.799
 20
6.29097
 11
226.772
 21
6.39207
  0
LINE
  8
0
 10
226.772
 20
6.39207
 11
226.755
 21
6.49547
  0
LINE
  8
0
 10
226.755
 20
6.49547
 11
226.75
 21
6.59999
  0
LINE
  8
0
 10
226.75
 20
6.59999
 11
226.755
 21
6.70451
  0
LINE
  8
0
 10
226.755
 20
6.70451
 11
226.772
 21
6.80791
  0
LINE
  8
0
 10
226.772
 20
6.80791
 11
226.799
 21
6.90901
  0
LINE
  8
0
 10
226.799
 20
6.90901
 11
226.836
 21
7.00673
  0
LINE
  8
0
 10
226.836
 20
7.00673
 11
226.884
 21
7.09999
  0
LINE
  8
0
 10
226.884
 20
7.09999
 11
226.941
 21
7.18777
  0
LINE
  8
0
 10
226.941
 20
7.18777
 11
227.007
 21
7.26912
  0
LINE
  8
0
 10
227.007
 20
7.26912
 11
227.081
 21
7.34314
  0
LINE
  8
0
 10
227.081
 20
7.34314
 11
227.162
 21
7.40901
  0
LINE
  8
0
 10
227.162
 20
7.40901
 11
227.25
 21
7.46602
  0
LINE
  8
0
 10
227.25
 20
7.46602
 11
227.343
 21
7.51353
  0
LINE
  8
0
 10
227.343
 20
7.51353
 11
227.441
 21
7.55106
  0
LINE
  8
0
 10
227.441
 20
7.55106
 11
227.542
 21
7.57814
  0
LINE
  8
0
 10
227.542
 20
7.57814
 11
227.645
 21
7.59451
  0
LINE
  8
0
 10
227.645
 20
7.59451
 11
227.75
 21
7.59999
  0
LINE
  8
0
 10
227.75
 20
7.59999
 11
227.855
 21
7.59451
  0
LINE
  8
0
 10
227.855
 20
7.59451
 11
227.958
 21
7.57814
  0
LINE
  8
0
 10
227.958
 20
7.57814
 11
228.059
 21
7.55106
  0
LINE
  8
0
 10
228.059
 20
7.55106
 11
228.157
 21
7.51353
  0
LINE
  8
0
 10
228.157
 20
7.51353
 11
228.25
 21
7.46602
  0
LINE
  8
0
 10
228.25
 20
7.46602
 11
228.338
 21
7.40901
  0
LINE
  8
0
 10
228.338
 20
7.40901
 11
228.419
 21
7.34314
  0
LINE
  8
0
 10
228.419
 20
7.34314
 11
228.493
 21
7.26912
  0
LINE
  8
0
 10
228.493
 20
7.26912
 11
228.559
 21
7.18777
  0
LINE
  8
0
 10
228.559
 20
7.18777
 11
228.616
 21
7.09999
  0
LINE
  8
0
 10
228.616
 20
7.09999
 11
228.664
 21
7.00673
  0
LINE
  8
0
 10
228.664
 20
7.00673
 11
228.701
 21
6.90901
  0
LINE
  8
0
 10
228.701
 20
6.90901
 11
228.728
 21
6.80791
  0
LINE
  8
0
 10
228.728
 20
6.80791
 11
228.745
 21
6.70451
  0
LINE
  8
0
 10
228.745
 20
6.70451
 11
228.75
 21
6.59999
  0
LINE
  8
0
 10
228.75
 20
6.59999
 11
228.745
 21
6.49547
  0
LINE
  8
0
 10
228.745
 20
6.49547
 11
228.728
 21
6.39207
  0
LINE
  8
0
 10
228.728
 20
6.39207
 11
228.701
 21
6.29097
  0
LINE
  8
0
 10
228.701
 20
6.29097
 11
228.664
 21
6.19325
  0
LINE
  8
0
 10
228.664
 20
6.19325
 11
228.616
 21
6.09999
  0
LINE
  8
0
 10
228.616
 20
6.09999
 11
228.559
 21
6.01221
  0
LINE
  8
0
 10
228.559
 20
6.01221
 11
228.493
 21
5.93086
  0
LINE
  8
0
 10
228.493
 20
5.93086
 11
228.419
 21
5.85684
  0
LINE
  8
0
 10
228.419
 20
5.85684
 11
228.338
 21
5.79097
  0
LINE
  8
0
 10
228.338
 20
5.79097
 11
228.25
 21
5.73396
  0
LINE
  8
0
 10
228.25
 20
5.73396
 11
228.157
 21
5.68645
  0
LINE
  8
0
 10
228.157
 20
5.68645
 11
228.059
 21
5.64894
  0
LINE
  8
0
 10
228.059
 20
5.64894
 11
227.958
 21
5.62184
  0
LINE
  8
0
 10
227.958
 20
5.62184
 11
227.855
 21
5.60547
  0
LINE
  8
0
 10
227.855
 20
5.60547
 11
227.75
 21
5.59999
  0
LINE
  8
0
 10
227.75
 20
5.59999
 11
227.645
 21
5.60547
  0
LINE
  8
0
 10
55.35
 20
0
 11
58.45
 21
0
  0
LINE
  8
0
 10
58.45
 20
0
 11
58.45
 21
3.09999
  0
LINE
  8
0
 10
58.45
 20
3.09999
 11
55.35
 21
3.09999
  0
LINE
  8
0
 10
55.35
 20
3.09999
 11
55.35
 21
6.2
  0
LINE
  8
0
 10
55.35
 20
6.2
 11
58.45
 21
6.2
  0
LINE
  8
0
 10
58.45
 20
6.2
 11
58.45
 21
9.29999
  0
LINE
  8
0
 10
58.45
 20
9.29999
 11
61.55
 21
9.29999
  0
LINE
  8
0
 10
61.55
 20
9.29999
 11
61.55
 21
6.2
  0
LINE
  8
0
 10
61.55
 20
6.2
 11
64.65
 21
6.2
  0
LINE
  8
0
 10
64.65
 20
6.2
 11
64.65
 21
3.09999
  0
LINE
  8
0
 10
64.65
 20
3.09999
 11
61.55
 21
3.09999
  0
LINE
  8
0
 10
61.55
 20
3.09999
 11
61.55
 21
0
  0
LINE
  8
0
 10
61.55
 20
0
 11
64.65
 21
0
  0
LINE
  8
0
 10
64.65
 20
0
 11
64.65
 21
-3.09999
  0
LINE
  8
0
 10
64.65
 20
-3.09999
 11
73.95
 21
-3.09999
  0
LINE
  8
0
 10
73.95
 20
-3.09999
 11
73.95
 21
0
  0
LINE
  8
0
 10
73.95
 20
0
 11
120
 21
0
  0
LINE
  8
0
 10
120
 20
0
 11
120
 21
186.3
  0
LINE
  8
0
 10
120
 20
186.3
 11
109.95
 21
186.3
  0
LINE
  8
0
 10
109.95
 20
186.3
 11
109.95
 21
189.4
  0
LINE
  8
0
 10
109.95
 20
189.4
 11
100.65
 21
189.4
  0
LINE
  8
0
 10
100.65
 20
189.4
 11
100.65
 21
186.3
  0
LINE
  8
0
 10
100.65
 20
186.3
 11
97.55
 21
186.3
  0
LINE
  8
0
 10
97.55
 20
186.3
 11
97.55
 21
183.2
  0
LINE
  8
0
 10
97.55
 20
183.2
 11
100.65
 21
183.2
  0
LINE
  8
0
 10
100.65
 20
183.2
 11
100.65
 21
180.1
  0
LINE
  8
0
 10
100.65
 20
180.1
 11
97.55
 21
180.1
  0
LINE
  8
0
 10
97.55
 20
180.1
 11
97.55
 21
177
  0
LINE
  8
0
 10
97.55
 20
177
 11
94.45
 21
177
  0
LINE
  8
0
 10
94.45
 20
177
 11
94.45
 21
180.1
  0
LINE
  8
0
 10
94.45
 20
180.1
 11
91.35
 21
180.1
  0
LINE
  8
0
 10
91.35
 20
180.1
 11
91.35
 21
183.2
  0
LINE
  8
0
 10
91.35
 20
183.2
 11
94.45
 21
183.2
  0
LINE
  8
0
 10
94.45
 20
183.2
 11
94.45
 21
186.3
  0
LINE
  8
0
 10
94.45
 20
186.3
 11
91.35
 21
186.3
  0
LINE
  8
0
 10
91.35
 20
186.3
 11
91.35
 21
189.4
  0
LINE
  8
0
 10
91.35
 20
189.4
 11
82.05
 21
189.4
  0
LINE
  8
0
 10
82.05
 20
189.4
 11
82.05
 21
186.3
  0
LINE
  8
0
 10
82.05
 20
186.3
 11
37.95
 21
186.3
  0
LINE
  8
0
 10
37.95
 20
186.3
 11
37.95
 21
189.4
  0
LINE
  8
0
 10
37.95
 20
189.4
 11
28.65
 21
189.4
  0
LINE
  8
0
 10
28.65
 20
189.4
 11
28.65
 21
186.3
  0
LINE
  8
0
 10
28.65
 20
186.3
 11
25.55
 21
186.3
  0
LINE
  8
0
 10
25.55
 20
186.3
 11
25.55
 21
183.2
  0
LINE
  8
0
 10
25.55
 20
183.2
 11
28.65
 21
183.2
  0
LINE
  8
0
 10
28.65
 20
183.2
 11
28.65
 21
180.1
  0
LINE
  8
0
 10
28.65
 20
180.1
 11
25.55
 21
180.1
  0
LINE
  8
0
 10
25.55
 20
180.1
 11
25.55
 21
177
  0
LINE
  8
0
 10
25.55
 20
177
 11
22.45
 21
177
  0
LINE
  8
0
 10
22.45
 20
177
 11
22.45
 21
180.1
  0
LINE
  8
0
 10
22.45
 20
180.1
 11
19.35
 21
180.1
  0
LINE
  8
0
 10
19.35
 20
180.1
 11
19.35
 21
183.2
  0
LINE
  8
0
 10
19.35
 20
183.2
 11
22.45
 21
183.2
  0
LINE
  8
0
 10
22.45
 20
183.2
 11
22.45
 21
186.3
  0
LINE
  8
0
 10
22.45
 20
186.3
 11
19.35
 21
186.3
  0
LINE
  8
0
 10
19.35
 20
186.3
 11
19.35
 21
189.4
  0
LINE
  8
0
 10
19.35
 20
189.4
 11
10.05
 21
189.4
  0
LINE
  8
0
 10
10.05
 20
189.4
 11
10.05
 21
186.3
  0
LINE
  8
0
 10
10.05
 20
186.3
 11
0
 21
186.3
  0
LINE
  8
0
 10
0
 20
186.3
 11
0
 21
0
  0
LINE
  8
0
 10
0
 20
0
 11
46.05
 21
0
  0
LINE
  8
0
 10
46.05
 20
0
 11
46.05
 21
-3.09999
  0
LINE
  8
0
 10
46.05
 20
-3.09999
 11
55.35
 21
-3.09999
  0
LINE
  8
0
 10
55.35
 20
-3.09999
 11
55.35
 21
0
  0
LINE
  8
0
 10
9.83797
 20
172.258
 11
9.67773
 21
172.284
  0
LINE
  8
0
 10
9.67773
 20
172.284
 11
9.52101
 21
172.326
  0
LINE
  8
0
 10
9.52101
 20
172.326
 11
9.36955
 21
172.384
  0
LINE
  8
0
 10
9.36955
 20
172.384
 11
9.22499
 21
172.458
  0
LINE
  8
0
 10
9.22499
 20
172.458
 11
9.08893
 21
172.546
  0
LINE
  8
0
 10
9.08893
 20
172.546
 11
8.96284
 21
172.648
  0
LINE
  8
0
 10
8.96284
 20
172.648
 11
8.84811
 21
172.763
  0
LINE
  8
0
 10
8.84811
 20
172.763
 11
8.74602
 21
172.889
  0
LINE
  8
0
 10
8.74602
 20
172.889
 11
8.65765
 21
173.025
  0
LINE
  8
0
 10
8.65765
 20
173.025
 11
8.584
 21
173.17
  0
LINE
  8
0
 10
8.584
 20
173.17
 11
8.52585
 21
173.321
  0
LINE
  8
0
 10
8.52585
 20
173.321
 11
8.48386
 21
173.478
  0
LINE
  8
0
 10
8.48386
 20
173.478
 11
8.45848
 21
173.638
  0
LINE
  8
0
 10
8.45848
 20
173.638
 11
8.45
 21
173.8
  0
LINE
  8
0
 10
8.45
 20
173.8
 11
8.45848
 21
173.962
  0
LINE
  8
0
 10
8.45848
 20
173.962
 11
8.48386
 21
174.122
  0
LINE
  8
0
 10
8.48386
 20
174.122
 11
8.52585
 21
174.279
  0
LINE
  8
0
 10
8.52585
 20
174.279
 11
8.584
 21
174.43
  0
LINE
  8
0
 10
8.584
 20
174.43
 11
8.65765
 21
174.575
  0
LINE
  8
0
 10
8.65765
 20
174.575
 11
8.74602
 21
174.711
  0
LINE
  8
0
 10
8.74602
 20
174.711
 11
8.84811
 21
174.837
  0
LINE
  8
0
 10
8.84811
 20
174.837
 11
8.96284
 21
174.952
  0
LINE
  8
0
 10
8.96284
 20
174.952
 11
9.08893
 21
175.054
  0
LINE
  8
0
 10
9.08893
 20
175.054
 11
9.22499
 21
175.142
  0
LINE
  8
0
 10
9.22499
 20
175.142
 11
9.36955
 21
175.216
  0
LINE
  8
0
 10
9.36955
 20
175.216
 11
9.52101
 21
175.274
  0
LINE
  8
0
 10
9.52101
 20
175.274
 11
9.67773
 21
175.316
  0
LINE
  8
0
 10
9.67773
 20
175.316
 11
9.83797
 21
175.342
  0
LINE
  8
0
 10
9.83797
 20
175.342
 11
10
 21
175.35
  0
LINE
  8
0
 10
10
 20
175.35
 11
10.162
 21
175.342
  0
LINE
  8
0
 10
10.162
 20
175.342
 11
10.3223
 21
175.316
  0
LINE
  8
0
 10
10.3223
 20
175.316
 11
10.479
 21
175.274
  0
LINE
  8
0
 10
10.479
 20
175.274
 11
10.6304
 21
175.216
  0
LINE
  8
0
 10
10.6304
 20
175.216
 11
10.775
 21
175.142
  0
LINE
  8
0
 10
10.775
 20
175.142
 11
10.9111
 21
175.054
  0
LINE
  8
0
 10
10.9111
 20
175.054
 11
11.0371
 21
174.952
  0
LINE
  8
0
 10
11.0371
 20
174.952
 11
11.1519
 21
174.837
  0
LINE
  8
0
 10
11.1519
 20
174.837
 11
11.254
 21
174.711
  0
LINE
  8
0
 10
11.254
 20
174.711
 11
11.3423
 21
174.575
  0
LINE
  8
0
 10
11.3423
 20
174.575
 11
11.416
 21
174.43
  0
LINE
  8
0
 10
11.416
 20
174.43
 11
11.4741
 21
174.279
  0
LINE
  8
0
 10
11.4741
 20
174.279
 11
11.5161
 21
174.122
  0
LINE
  8
0
 10
11.5161
 20
174.122
 11
11.5415
 21
173.962
  0
LINE
  8
0
 10
11.5415
 20
173.962
 11
11.55
 21
173.8
  0
LINE
  8
0
 10
11.55
 20
173.8
 11
11.5415
 21
173.638
  0
LINE
  8
0
 10
11.5415
 20
173.638
 11
11.5161
 21
173.478
  0
LINE
  8
0
 10
11.5161
 20
173.478
 11
11.4741
 21
173.321
  0
LINE
  8
0
 10
11.4741
 20
173.321
 11
11.416
 21
173.17
  0
LINE
  8
0
 10
11.416
 20
173.17
 11
11.3423
 21
173.025
  0
LINE
  8
0
 10
11.3423
 20
173.025
 11
11.254
 21
172.889
  0
LINE
  8
0
 10
11.254
 20
172.889
 11
11.1519
 21
172.763
  0
LINE
  8
0
 10
11.1519
 20
172.763
 11
11.0371
 21
172.648
  0
LINE
  8
0
 10
11.0371
 20
172.648
 11
10.9111
 21
172.546
  0
LINE
  8
0
 10
10.9111
 20
172.546
 11
10.775
 21
172.458
  0
LINE
  8
0
 10
10.775
 20
172.458
 11
10.6304
 21
172.384
  0
LINE
  8
0
 10
10.6304
 20
172.384
 11
10.479
 21
172.326
  0
LINE
  8
0
 10
10.479
 20
172.326
 11
10.3223
 21
172.284
  0
LINE
  8
0
 10
10.3223
 20
172.284
 11
10.162
 21
172.258
  0
LINE
  8
0
 10
10.162
 20
172.258
 11
10
 21
172.25
  0
LINE
  8
0
 10
10
 20
172.25
 11
9.83797
 21
172.258
  0
LINE
  8
0
 10
109.838
 20
172.258
 11
109.678
 21
172.284
  0
LINE
  8
0
 10
109.678
 20
172.284
 11
109.521
 21
172.326
  0
LINE
  8
0
 10
109.521
 20
172.326
 11
109.37
 21
172.384
  0
LINE
  8
0
 10
109.37
 20
172.384
 11
109.225
 21
172.458
  0
LINE
  8
0
 10
109.225
 20
172.458
 11
109.089
 21
172.546
  0
LINE
  8
0
 10
109.089
 20
172.546
 11
108.963
 21
172.648
  0
LINE
  8
0
 10
108.963
 20
172.648
 11
108.848
 21
172.763
  0
LINE
  8
0
 10
108.848
 20
172.763
 11
108.746
 21
172.889
  0
LINE
  8
0
 10
108.746
 20
172.889
 11
108.658
 21
173.025
  0
LINE
  8
0
 10
108.658
 20
173.025
 11
108.584
 21
173.17
  0
LINE
  8
0
 10
108.584
 20
173.17
 11
108.526
 21
173.321
  0
LINE
  8
0
 10
108.526
 20
173.321
 11
108.484
 21
173.478
  0
LINE
  8
0
 10
108.484
 20
173.478
 11
108.458
 21
173.638
  0
LINE
  8
0
 10
108.458
 20
173.638
 11
108.45
 21
173.8
  0
LINE
  8
0
 10
108.45
 20
173.8
 11
108.458
 21
173.962
  0
LINE
  8
0
 10
108.458
 20
173.962
 11
108.484
 21
174.122
  0
LINE
  8
0
 10
108.484
 20
174.122
 11
108.526
 21
174.279
  0
LINE
  8
0
 10
108.526
 20
174.279
 11
108.584
 21
174.43
  0
LINE
  8
0
 10
108.584
 20
174.43
 11
108.658
 21
174.575
  0
LINE
  8
0
 10
108.658
 20
174.575
 11
108.746
 21
174.711
  0
LINE
  8
0
 10
108.746
 20
174.711
 11
108.848
 21
174.837
  0
LINE
  8
0
 10
108.848
 20
174.837
 11
108.963
 21
174.952
  0
LINE
  8
0
 10
108.963
 20
174.952
 11
109.089
 21
175.054
  0
LINE
  8
0
 10
109.089
 20
175.054
 11
109.225
 21
175.142
  0
LINE
  8
0
 10
109.225
 20
175.142
 11
109.37
 21
175.216
  0
LINE
  8
0
 10
109.37
 20
175.216
 11
109.521
 21
175.274
  0
LINE
  8
0
 10
109.521
 20
175.274
 11
109.678
 21
175.316
  0
LINE
  8
0
 10
109.678
 20
175.316
 11
109.838
 21
175.342
  0
LINE
  8
0
 10
109.838
 20
175.342
 11
110
 21
175.35
  0
LINE
  8
0
 10
110
 20
175.35
 11
110.162
 21
175.342
  0
LINE
  8
0
 10
110.162
 20
175.342
 11
110.322
 21
175.316
  0
LINE
  8
0
 10
110.322
 20
175.316
 11
110.479
 21
175.274
  0
LINE
  8
0
 10
110.479
 20
175.274
 11
110.63
 21
175.216
  0
LINE
  8
0
 10
110.63
 20
175.216
 11
110.775
 21
175.142
  0
LINE
  8
0
 10
110.775
 20
175.142
 11
110.911
 21
175.054
  0
LINE
  8
0
 10
110.911
 20
175.054
 11
111.037
 21
174.952
  0
LINE
  8
0
 10
111.037
 20
174.952
 11
111.152
 21
174.837
  0
LINE
  8
0
 10
111.152
 20
174.837
 11
111.254
 21
174.711
  0
LINE
  8
0
 10
111.254
 20
174.711
 11
111.342
 21
174.575
  0
LINE
  8
0
 10
111.342
 20
174.575
 11
111.416
 21
174.43
  0
LINE
  8
0
 10
111.416
 20
174.43
 11
111.474
 21
174.279
  0
LINE
  8
0
 10
111.474
 20
174.279
 11
111.516
 21
174.122
  0
LINE
  8
0
 10
111.516
 20
174.122
 11
111.542
 21
173.962
  0
LINE
  8
0
 10
111.542
 20
173.962
 11
111.55
 21
173.8
  0
LINE
  8
0
 10
111.55
 20
173.8
 11
111.542
 21
173.638
  0
LINE
  8
0
 10
111.542
 20
173.638
 11
111.516
 21
173.478
  0
LINE
  8
0
 10
111.516
 20
173.478
 11
111.474
 21
173.321
  0
LINE
  8
0
 10
111.474
 20
173.321
 11
111.416
 21
173.17
  0
LINE
  8
0
 10
111.416
 20
173.17
 11
111.342
 21
173.025
  0
LINE
  8
0
 10
111.342
 20
173.025
 11
111.254
 21
172.889
  0
LINE
  8
0
 10
111.254
 20
172.889
 11
111.152
 21
172.763
  0
LINE
  8
0
 10
111.152
 20
172.763
 11
111.037
 21
172.648
  0
LINE
  8
0
 10
111.037
 20
172.648
 11
110.911
 21
172.546
  0
LINE
  8
0
 10
110.911
 20
172.546
 11
110.775
 21
172.458
  0
LINE
  8
0
 10
110.775
 20
172.458
 11
110.63
 21
172.384
  0
LINE
  8
0
 10
110.63
 20
172.384
 11
110.479
 21
172.326
  0
LINE
  8
0
 10
110.479
 20
172.326
 11
110.322
 21
172.284
  0
LINE
  8
0
 10
110.322
 20
172.284
 11
110.162
 21
172.258
  0
LINE
  8
0
 10
110.162
 20
172.258
 11
110
 21
172.25
  0
LINE
  8
0
 10
110
 20
172.25
 11
109.838
 21
172.258
  0
LINE
  8
0
 10
10
 20
56.3
 11
10
 21
156.3
  0
LINE
  8
0
 10
10
 20
156.3
 11
110
 21
156.3
  0
LINE
  8
0
 10
110
 20
156.3
 11
110
 21
56.3
  0
LINE
  8
0
 10
110
 20
56.3
 11
10
 21
56.3
  0
LINE
  8
0
 10
9.83797
 20
47.2585
 11
9.67773
 21
47.2839
  0
LINE
  8
0
 10
9.67773
 20
47.2839
 11
9.52101
 21
47.3259
  0
LINE
  8
0
 10
9.52101
 20
47.3259
 11
9.36955
 21
47.384
  0
LINE
  8
0
 10
9.36955
 20
47.384
 11
9.22499
 21
47.4577
  0
LINE
  8
0
 10
9.22499
 20
47.4577
 11
9.08893
 21
47.546
  0
LINE
  8
0
 10
9.08893
 20
47.546
 11
8.96284
 21
47.6481
  0
LINE
  8
0
 10
8.96284
 20
47.6481
 11
8.84811
 21
47.7628
  0
LINE
  8
0
 10
8.84811
 20
47.7628
 11
8.74602
 21
47.8889
  0
LINE
  8
0
 10
8.74602
 20
47.8889
 11
8.65765
 21
48.025
  0
LINE
  8
0
 10
8.65765
 20
48.025
 11
8.584
 21
48.1696
  0
LINE
  8
0
 10
8.584
 20
48.1696
 11
8.52585
 21
48.321
  0
LINE
  8
0
 10
8.52585
 20
48.321
 11
8.48386
 21
48.4777
  0
LINE
  8
0
 10
8.48386
 20
48.4777
 11
8.45848
 21
48.638
  0
LINE
  8
0
 10
8.45848
 20
48.638
 11
8.45
 21
48.8
  0
LINE
  8
0
 10
8.45
 20
48.8
 11
8.45848
 21
48.962
  0
LINE
  8
0
 10
8.45848
 20
48.962
 11
8.48386
 21
49.1223
  0
LINE
  8
0
 10
8.48386
 20
49.1223
 11
8.52585
 21
49.279
  0
LINE
  8
0
 10
8.52585
 20
49.279
 11
8.584
 21
49.4304
  0
LINE
  8
0
 10
8.584
 20
49.4304
 11
8.65765
 21
49.575
  0
LINE
  8
0
 10
8.65765
 20
49.575
 11
8.74602
 21
49.7111
  0
LINE
  8
0
 10
8.74602
 20
49.7111
 11
8.84811
 21
49.8371
  0
LINE
  8
0
 10
8.84811
 20
49.8371
 11
8.96284
 21
49.9519
  0
LINE
  8
0
 10
8.96284
 20
49.9519
 11
9.08893
 21
50.054
  0
LINE
  8
0
 10
9.08893
 20
50.054
 11
9.22499
 21
50.1423
  0
LINE
  8
0
 10
9.22499
 20
50.1423
 11
9.36955
 21
50.216
  0
LINE
  8
0
 10
9.36955
 20
50.216
 11
9.52101
 21
50.2741
  0
LINE
  8
0
 10
9.52101
 20
50.2741
 11
9.67773
 21
50.3161
  0
LINE
  8
0
 10
9.67773
 20
50.3161
 11
9.83797
 21
50.3415
  0
LINE
  8
0
 10
9.83797
 20
50.3415
 11
10
 21
50.35
  0
LINE
  8
0
 10
10
 20
50.35
 11
10.162
 21
50.3415
  0
LINE
  8
0
 10
10.162
 20
50.3415
 11
10.3223
 21
50.3161
  0
LINE
  8
0
 10
10.3223
 20
50.3161
 11
10.479
 21
50.2741
  0
LINE
  8
0
 10
10.479
 20
50.2741
 11
10.6304
 21
50.216
  0
LINE
  8
0
 10
10.6304
 20
50.216
 11
10.775
 21
50.1423
  0
LINE
  8
0
 10
10.775
 20
50.1423
 11
10.9111
 21
50.054
  0
LINE
  8
0
 10
10.9111
 20
50.054
 11
11.0371
 21
49.9519
  0
LINE
  8
0
 10
11.0371
 20
49.9519
 11
11.1519
 21
49.8371
  0
LINE
  8
0
 10
11.1519
 20
49.8371
 11
11.254
 21
49.7111
  0
LINE
  8
0
 10
11.254
 20
49.7111
 11
11.3423
 21
49.575
  0
LINE
  8
0
 10
11.3423
 20
49.575
 11
11.416
 21
49.4304
  0
LINE
  8
0
 10
11.416
 20
49.4304
 11
11.4741
 21
49.279
  0
LINE
  8
0
 10
11.4741
 20
49.279
 11
11.5161
 21
49.1223
  0
LINE
  8
0
 10
11.5161
 20
49.1223
 11
11.5415
 21
48.962
  0
LINE
  8
0
 10
11.5415
 20
48.962
 11
11.55
 21
48.8
  0
LINE
  8
0
 10
11.55
 20
48.8
 11
11.5415
 21
48.638
  0
LINE
  8
0
 10
11.5415
 20
48.638
 11
11.5161
 21
48.4777
  0
LINE
  8
0
 10
11.5161
 20
48.4777
 11
11.4741
 21
48.321
  0
LINE
  8
0
 10
11.4741
 20
48.321
 11
11.416
 21
48.1696
  0
LINE
  8
0
 10
11.416
 20
48.1696
 11
11.3423
 21
48.025
  0
LINE
  8
0
 10
11.3423
 20
48.025
 11
11.254
 21
47.8889
  0
LINE
  8
0
 10
11.254
 20
47.8889
 11
11.1519
 21
47.7628
  0
LINE
  8
0
 10
11.1519
 20
47.7628
 11
11.0371
 21
47.6481
  0
LINE
  8
0
 10
11.0371
 20
47.6481
 11
10.9111
 21
47.546
  0
LINE
  8
0
 10
10.9111
 20
47.546
 11
10.775
 21
47.4577
  0
LINE
  8
0
 10
10.775
 20
47.4577
 11
10.6304
 21
47.384
  0
LINE
  8
0
 10
10.6304
 20
47.384
 11
10.479
 21
47.3259
  0
LINE
  8
0
 10
10.479
 20
47.3259
 11
10.3223
 21
47.2839
  0
LINE
  8
0
 10
10.3223
 20
47.2839
 11
10.162
 21
47.2585
  0
LINE
  8
0
 10
10.162
 20
47.2585
 11
10
 21
47.25
  0
LINE
  8
0
 10
10
 20
47.25
 11
9.83797
 21
47.2585
  0
LINE
  8
0
 10
109.838
 20
47.2585
 11
109.678
 21
47.2839
  0
LINE
  8
0
 10
109.678
 20
47.2839
 11
109.521
 21
47.3259
  0
LINE
  8
0
 10
109.521
 20
47.3259
 11
109.37
 21
47.384
  0
LINE
  8
0
 10
109.37
 20
47.384
 11
109.225
 21
47.4577
  0
LINE
  8
0
 10
109.225
 20
47.4577
 11
109.089
 21
47.546
  0
LINE
  8
0
 10
109.089
 20
47.546
 11
108.963
 21
47.6481
  0
LINE
  8
0
 10
108.963
 20
47.6481
 11
108.848
 21
47.7628
  0
LINE
  8
0
 10
108.848
 20
47.7628
 11
108.746
 21
47.8889
  0
LINE
  8
0
 10
108.746
 20
47.8889
 11
108.658
 21
48.025
  0
LINE
  8
0
 10
108.658
 20
48.025
 11
108.584
 21
48.1696
  0
LINE
  8
0
 10
108.584
 20
48.1696
 11
108.526
 21
48.321
  0
LINE
  8
0
 10
108.526
 20
48.321
 11
108.484
 21
48.4777
  0
LINE
  8
0
 10
108.484
 20
48.4777
 11
108.458
 21
48.638
  0
LINE
  8
0
 10
108.458
 20
48.638
 11
108.45
 21
48.8
  0
LINE
  8
0
 10
108.45
 20
48.8
 11
108.458
 21
48.962
  0
LINE
  8
0
 10
108.458
 20
48.962
 11
108.484
 21
49.1223
  0
LINE
  8
0
 10
108.484
 20
49.1223
 11
108.526
 21
49.279
  0
LINE
  8
0
 10
108.526
 20
49.279
 11
108.584
 21
49.4304
  0
LINE
  8
0
 10
108.584
 20
49.4304
 11
108.658
 21
49.575
  0
LINE
  8
0
 10
108.658
 20
49.575
 11
108.746
 21
49.7111
  0
LINE
  8
0
 10
108.746
 20
49.7111
 11
108.848
 21
49.8371
  0
LINE
  8
0
 10
108.848
 20
49.8371
 11
108.963
 21
49.9519
  0
LINE
  8
0
 10
108.963
 20
49.9519
 11
109.089
 21
50.054
  0
LINE
  8
0
 10
109.089
 20
50.054
 11
109.225
 21
50.1423
  0
LINE
  8
0
 10
109.225
 20
50.1423
 11
109.37
 21
50.216
  0
LINE
  8
0
 10
109.37
 20
50.216
 11
109.521
 21
50.2741
  0
LINE
  8
0
 10
109.521
 20
50.2741
 11
109.678
 21
50.3161
  0
LINE
  8
0
 10
109.678
 20
50.3161
 11
109.838
 21
50.3415
  0
LINE
  8
0
 10
109.838
 20
50.3415
 11
110
 21
50.35
  0
LINE
  8
0
 10
110
 20
50.35
 11
110.162
 21
50.3415
  0
LINE
  8
0
 10
110.162
 20
50.3415
 11
110.322
 21
50.3161
  0
LINE
  8
0
 10
110.322
 20
50.3161
 11
110.479
 21
50.2741
  0
LINE
  8
0
 10
110.479
 20
50.2741
 11
110.63
 21
50.216
  0
LINE
  8
0
 10
110.63
 20
50.216
 11
110.775
 21
50.1423
  0
LINE
  8
0
 10
110.775
 20
50.1423
 11
110.911
 21
50.054
  0
LINE
  8
0
 10
110.911
 20
50.054
 11
111.037
 21
49.9519
  0
LINE
  8
0
 10
111.037
 20
49.9519
 11
111.152
 21
49.8371
  0
LINE
  8
0
 10
111.152
 20
49.8371
 11
111.254
 21
49.7111
  0
LINE
  8
0
 10
111.254
 20
49.7111
 11
111.342
 21
49.575
  0
LINE
  8
0
 10
111.342
 20
49.575
 11
111.416
 21
49.4304
  0
LINE
  8
0
 10
111.416
 20
49.4304
 11
111.474
 21
49.279
  0
LINE
  8
0
 10
111.474
 20
49.279
 11
111.516
 21
49.1223
  0
LINE
  8
0
 10
111.516
 20
49.1223
 11
111.542
 21
48.962
  0
LINE
  8
0
 10
111.542
 20
48.962
 11
111.55
 21
48.8
  0
LINE
  8
0
 10
111.55
 20
48.8
 11
111.542
 21
48.638
  0
LINE
  8
0
 10
111.542
 20
48.638
 11
111.516
 21
48.4777
  0
LINE
  8
0
 10
111.516
 20
48.4777
 11
111.474
 21
48.321
  0
LINE
  8
0
 10
111.474
 20
48.321
 11
111.416
 21
48.1696
  0
LINE
  8
0
 10
111.416
 20
48.1696
 11
111.342
 21
48.025
  0
LINE
  8
0
 10
111.342
 20
48.025
 11
111.254
 21
47.8889
  0
LINE
  8
0
 10
111.254
 20
47.8889
 11
111.152
 21
47.7628
  0
LINE
  8
0
 10
111.152
 20
47.7628
 11
111.037
 21
47.6481
  0
LINE
  8
0
 10
111.037
 20
47.6481
 11
110.911
 21
47.546
  0
LINE
  8
0
 10
110.911
 20
47.546
 11
110.775
 21
47.4577
  0
LINE
  8
0
 10
110.775
 20
47.4577
 11
110.63
 21
47.384
  0
LINE
  8
0
 10
110.63
 20
47.384
 11
110.479
 21
47.3259
  0
LINE
  8
0
 10
110.479
 20
47.3259
 11
110.322
 21
47.2839
  0
LINE
  8
0
 10
110.322
 20
47.2839
 11
110.162
 21
47.2585
  0
LINE
  8
0
 10
110.162
 20
47.2585
 11
110
 21
47.25
  0
LINE
  8
0
 10
110
 20
47.25
 11
109.838
 21
47.2585
  0
LINE
  8
0
 10
412.2
 20
171.9
 11
375
 21
171.9
  0
LINE
  8
0
 10
375
 20
171.9
 11
375
 21
120.7
  0
LINE
  8
0
 10
375
 20
120.7
 11
412.2
 21
120.7
  0
LINE
  8
0
 10
412.2
 20
120.7
 11
412.2
 21
171.9
  0
LINE
  8
0
 10
398.25
 20
165.7
 11
398.25
 21
168.8
  0
LINE
  8
0
 10
398.25
 20
168.8
 11
407.55
 21
168.8
  0
LINE
  8
0
 10
407.55
 20
168.8
 11
407.55
 21
165.7
  0
LINE
  8
0
 10
407.55
 20
165.7
 11
398.25
 21
165.7
  0
LINE
  8
0
 10
379.65
 20
165.7
 11
379.65
 21
168.8
  0
LINE
  8
0
 10
379.65
 20
168.8
 11
388.95
 21
168.8
  0
LINE
  8
0
 10
388.95
 20
168.8
 11
388.95
 21
165.7
  0
LINE
  8
0
 10
388.95
 20
165.7
 11
379.65
 21
165.7
  0
LINE
  8
0
 10
392.05
 20
165.7
 11
392.05
 21
168.8
  0
LINE
  8
0
 10
392.05
 20
168.8
 11
395.15
 21
168.8
  0
LINE
  8
0
 10
395.15
 20
168.8
 11
395.15
 21
165.7
  0
LINE
  8
0
 10
395.15
 20
165.7
 11
392.05
 21
165.7
  0
LINE
  8
0
 10
398.25
 20
150.7
 11
398.25
 21
153.8
  0
LINE
  8
0
 10
398.25
 20
153.8
 11
407.55
 21
153.8
  0
LINE
  8
0
 10
407.55
 20
153.8
 11
407.55
 21
150.7
  0
LINE
  8
0
 10
407.55
 20
150.7
 11
398.25
 21
150.7
  0
LINE
  8
0
 10
379.65
 20
150.7
 11
379.65
 21
153.8
  0
LINE
  8
0
 10
379.65
 20
153.8
 11
388.95
 21
153.8
  0
LINE
  8
0
 10
388.95
 20
153.8
 11
388.95
 21
150.7
  0
LINE
  8
0
 10
388.95
 20
150.7
 11
379.65
 21
150.7
  0
LINE
  8
0
 10
392.05
 20
150.7
 11
392.05
 21
153.8
  0
LINE
  8
0
 10
392.05
 20
153.8
 11
395.15
 21
153.8
  0
LINE
  8
0
 10
395.15
 20
153.8
 11
395.15
 21
150.7
  0
LINE
  8
0
 10
395.15
 20
150.7
 11
392.05
 21
150.7
  0
LINE
  8
0
 10
454.3
 20
160.3
 11
445
 21
160.3
  0
LINE
  8
0
 10
445
 20
160.3
 11
445
 21
60.3
  0
LINE
  8
0
 10
445
 20
60.3
 11
454.3
 21
60.3
  0
LINE
  8
0
 10
454.3
 20
60.3
 11
454.3
 21
160.3
  0
LINE
  8
0
 10
449.519
 20
154.407
 11
449.39
 21
154.427
  0
LINE
  8
0
 10
449.39
 20
154.427
 11
449.264
 21
154.461
  0
LINE
  8
0
 10
449.264
 20
154.461
 11
449.142
 21
154.508
  0
LINE
  8
0
 10
449.142
 20
154.508
 11
449.025
 21
154.567
  0
LINE
  8
0
 10
449.025
 20
154.567
 11
448.915
 21
154.639
  0
LINE
  8
0
 10
448.915
 20
154.639
 11
448.814
 21
154.721
  0
LINE
  8
0
 10
448.814
 20
154.721
 11
448.721
 21
154.814
  0
LINE
  8
0
 10
448.721
 20
154.814
 11
448.639
 21
154.915
  0
LINE
  8
0
 10
448.639
 20
154.915
 11
448.567
 21
155.025
  0
LINE
  8
0
 10
448.567
 20
155.025
 11
448.508
 21
155.142
  0
LINE
  8
0
 10
448.508
 20
155.142
 11
448.461
 21
155.264
  0
LINE
  8
0
 10
448.461
 20
155.264
 11
448.427
 21
155.39
  0
LINE
  8
0
 10
448.427
 20
155.39
 11
448.407
 21
155.519
  0
LINE
  8
0
 10
448.407
 20
155.519
 11
448.4
 21
155.65
  0
LINE
  8
0
 10
448.4
 20
155.65
 11
448.407
 21
155.781
  0
LINE
  8
0
 10
448.407
 20
155.781
 11
448.427
 21
155.91
  0
LINE
  8
0
 10
448.427
 20
155.91
 11
448.461
 21
156.036
  0
LINE
  8
0
 10
448.461
 20
156.036
 11
448.508
 21
156.158
  0
LINE
  8
0
 10
448.508
 20
156.158
 11
448.567
 21
156.275
  0
LINE
  8
0
 10
448.567
 20
156.275
 11
448.639
 21
156.385
  0
LINE
  8
0
 10
448.639
 20
156.385
 11
448.721
 21
156.486
  0
LINE
  8
0
 10
448.721
 20
156.486
 11
448.814
 21
156.579
  0
LINE
  8
0
 10
448.814
 20
156.579
 11
448.915
 21
156.661
  0
LINE
  8
0
 10
448.915
 20
156.661
 11
449.025
 21
156.733
  0
LINE
  8
0
 10
449.025
 20
156.733
 11
449.142
 21
156.792
  0
LINE
  8
0
 10
449.142
 20
156.792
 11
449.264
 21
156.839
  0
LINE
  8
0
 10
449.264
 20
156.839
 11
449.39
 21
156.873
  0
LINE
  8
0
 10
449.39
 20
156.873
 11
449.519
 21
156.893
  0
LINE
  8
0
 10
449.519
 20
156.893
 11
449.65
 21
156.9
  0
LINE
  8
0
 10
449.65
 20
156.9
 11
449.781
 21
156.893
  0
LINE
  8
0
 10
449.781
 20
156.893
 11
449.91
 21
156.873
  0
LINE
  8
0
 10
449.91
 20
156.873
 11
450.036
 21
156.839
  0
LINE
  8
0
 10
450.036
 20
156.839
 11
450.158
 21
156.792
  0
LINE
  8
0
 10
450.158
 20
156.792
 11
450.275
 21
156.733
  0
LINE
  8
0
 10
450.275
 20
156.733
 11
450.385
 21
156.661
  0
LINE
  8
0
 10
450.385
 20
156.661
 11
450.486
 21
156.579
  0
LINE
  8
0
 10
450.486
 20
156.579
 11
450.579
 21
156.486
  0
LINE
  8
0
 10
450.579
 20
156.486
 11
450.661
 21
156.385
  0
LINE
  8
0
 10
450.661
 20
156.385
 11
450.733
 21
156.275
  0
LINE
  8
0
 10
450.733
 20
156.275
 11
450.792
 21
156.158
  0
LINE
  8
0
 10
450.792
 20
156.158
 11
450.839
 21
156.036
  0
LINE
  8
0
 10
450.839
 20
156.036
 11
450.873
 21
155.91
  0
LINE
  8
0
 10
450.873
 20
155.91
 11
450.893
 21
155.781
  0
LINE
  8
0
 10
450.893
 20
155.781
 11
450.9
 21
155.65
  0
LINE
  8
0
 10
450.9
 20
155.65
 11
450.893
 21
155.519
  0
LINE
  8
0
 10
450.893
 20
155.519
 11
450.873
 21
155.39
  0
LINE
  8
0
 10
450.873
 20
155.39
 11
450.839
 21
155.264
  0
LINE
  8
0
 10
450.839
 20
155.264
 11
450.792
 21
155.142
  0
LINE
  8
0
 10
450.792
 20
155.142
 11
450.733
 21
155.025
  0
LINE
  8
0
 10
450.733
 20
155.025
 11
450.661
 21
154.915
  0
LINE
  8
0
 10
450.661
 20
154.915
 11
450.579
 21
154.814
  0
LINE
  8
0
 10
450.579
 20
154.814
 11
450.486
 21
154.721
  0
LINE
  8
0
 10
450.486
 20
154.721
 11
450.385
 21
154.639
  0
LINE
  8
0
 10
450.385
 20
154.639
 11
450.275
 21
154.567
  0
LINE
  8
0
 10
450.275
 20
154.567
 11
450.158
 21
154.508
  0
LINE
  8
0
 10
450.158
 20
154.508
 11
450.036
 21
154.461
  0
LINE
  8
0
 10
450.036
 20
154.461
 11
449.91
 21
154.427
  0
LINE
  8
0
 10
449.91
 20
154.427
 11
449.781
 21
154.407
  0
LINE
  8
0
 10
449.781
 20
154.407
 11
449.65
 21
154.4
  0
LINE
  8
0
 10
449.65
 20
154.4
 11
449.519
 21
154.407
  0
LINE
  8
0
 10
448.875
 20
145.3
 11
448.875
 21
150.3
  0
LINE
  8
0
 10
448.875
 20
150.3
 11
450.425
 21
150.3
  0
LINE
  8
0
 10
450.425
 20
150.3
 11
450.425
 21
145.3
  0
LINE
  8
0
 10
450.425
 20
145.3
 11
448.875
 21
145.3
  0
LINE
  8
0
 10
449.488
 20
63.4085
 11
449.328
 21
63.4339
  0
LINE
  8
0
 10
449.328
 20
63.4339
 11
449.171
 21
63.4759
  0
LINE
  8
0
 10
449.171
 20
63.4759
 11
449.02
 21
63.534
  0
LINE
  8
0
 10
449.02
 20
63.534
 11
448.875
 21
63.6077
  0
LINE
  8
0
 10
448.875
 20
63.6077
 11
448.739
 21
63.696
  0
LINE
  8
0
 10
448.739
 20
63.696
 11
448.613
 21
63.7981
  0
LINE
  8
0
 10
448.613
 20
63.7981
 11
448.498
 21
63.9128
  0
LINE
  8
0
 10
448.498
 20
63.9128
 11
448.396
 21
64.0389
  0
LINE
  8
0
 10
448.396
 20
64.0389
 11
448.308
 21
64.175
  0
LINE
  8
0
 10
448.308
 20
64.175
 11
448.234
 21
64.3195
  0
LINE
  8
0
 10
448.234
 20
64.3195
 11
448.176
 21
64.471
  0
LINE
  8
0
 10
448.176
 20
64.471
 11
448.134
 21
64.6277
  0
LINE
  8
0
 10
448.134
 20
64.6277
 11
448.108
 21
64.788
  0
LINE
  8
0
 10
448.108
 20
64.788
 11
448.1
 21
64.95
  0
LINE
  8
0
 10
448.1
 20
64.95
 11
448.108
 21
65.112
  0
LINE
  8
0
 10
448.108
 20
65.112
 11
448.134
 21
65.2723
  0
LINE
  8
0
 10
448.134
 20
65.2723
 11
448.176
 21
65.429
  0
LINE
  8
0
 10
448.176
 20
65.429
 11
448.234
 21
65.5804
  0
LINE
  8
0
 10
448.234
 20
65.5804
 11
448.308
 21
65.725
  0
LINE
  8
0
 10
448.308
 20
65.725
 11
448.396
 21
65.8611
  0
LINE
  8
0
 10
448.396
 20
65.8611
 11
448.498
 21
65.9872
  0
LINE
  8
0
 10
448.498
 20
65.9872
 11
448.613
 21
66.1019
  0
LINE
  8
0
 10
448.613
 20
66.1019
 11
448.739
 21
66.204
  0
LINE
  8
0
 10
448.739
 20
66.204
 11
448.875
 21
66.2923
  0
LINE
  8
0
 10
448.875
 20
66.2923
 11
449.02
 21
66.366
  0
LINE
  8
0
 10
449.02
 20
66.366
 11
449.171
 21
66.4241
  0
LINE
  8
0
 10
449.171
 20
66.4241
 11
449.328
 21
66.4661
  0
LINE
  8
0
 10
449.328
 20
66.4661
 11
449.488
 21
66.4915
  0
LINE
  8
0
 10
449.488
 20
66.4915
 11
449.65
 21
66.5
  0
LINE
  8
0
 10
449.65
 20
66.5
 11
449.812
 21
66.4915
  0
LINE
  8
0
 10
449.812
 20
66.4915
 11
449.972
 21
66.4661
  0
LINE
  8
0
 10
449.972
 20
66.4661
 11
450.129
 21
66.4241
  0
LINE
  8
0
 10
450.129
 20
66.4241
 11
450.28
 21
66.366
  0
LINE
  8
0
 10
450.28
 20
66.366
 11
450.425
 21
66.2923
  0
LINE
  8
0
 10
450.425
 20
66.2923
 11
450.561
 21
66.204
  0
LINE
  8
0
 10
450.561
 20
66.204
 11
450.687
 21
66.1019
  0
LINE
  8
0
 10
450.687
 20
66.1019
 11
450.802
 21
65.9872
  0
LINE
  8
0
 10
450.802
 20
65.9872
 11
450.904
 21
65.8611
  0
LINE
  8
0
 10
450.904
 20
65.8611
 11
450.992
 21
65.725
  0
LINE
  8
0
 10
450.992
 20
65.725
 11
451.066
 21
65.5804
  0
LINE
  8
0
 10
451.066
 20
65.5804
 11
451.124
 21
65.429
  0
LINE
  8
0
 10
451.124
 20
65.429
 11
451.166
 21
65.2723
  0
LINE
  8
0
 10
451.166
 20
65.2723
 11
451.191
 21
65.112
  0
LINE
  8
0
 10
451.191
 20
65.112
 11
451.2
 21
64.95
  0
LINE
  8
0
 10
451.2
 20
64.95
 11
451.191
 21
64.788
  0
LINE
  8
0
 10
451.191
 20
64.788
 11
451.166
 21
64.6277
  0
LINE
  8
0
 10
451.166
 20
64.6277
 11
451.124
 21
64.471
  0
LINE
  8
0
 10
451.124
 20
64.471
 11
451.066
 21
64.3195
  0
LINE
  8
0
 10
451.066
 20
64.3195
 11
450.992
 21
64.175
  0
LINE
  8
0
 10
450.992
 20
64.175
 11
450.904
 21
64.0389
  0
LINE
  8
0
 10
450.904
 20
64.0389
 11
450.802
 21
63.9128
  0
LINE
  8
0
 10
450.802
 20
63.9128
 11
450.687
 21
63.7981
  0
LINE
  8
0
 10
450.687
 20
63.7981
 11
450.561
 21
63.696
  0
LINE
  8
0
 10
450.561
 20
63.696
 11
450.425
 21
63.6077
  0
LINE
  8
0
 10
450.425
 20
63.6077
 11
450.28
 21
63.534
  0
LINE
  8
0
 10
450.28
 20
63.534
 11
450.129
 21
63.4759
  0
LINE
  8
0
 10
450.129
 20
63.4759
 11
449.972
 21
63.4339
  0
LINE
  8
0
 10
449.972
 20
63.4339
 11
449.812
 21
63.4085
  0
LINE
  8
0
 10
449.812
 20
63.4085
 11
449.65
 21
63.4
  0
LINE
  8
0
 10
449.65
 20
63.4
 11
449.488
 21
63.4085
  0
LINE
  8
0
 10
370
 20
145.6
 11
250
 21
145.6
  0
LINE
  8
0
 10
250
 20
145.6
 11
250
 21
0.599991
  0
LINE
  8
0
 10
250
 20
0.599991
 11
370
 21
0.599991
  0
LINE
  8
0
 10
370
 20
0.599991
 11
370
 21
145.6
  0
LINE
  8
0
 10
359.838
 20
134.058
 11
359.678
 21
134.084
  0
LINE
  8
0
 10
359.678
 20
134.084
 11
359.521
 21
134.126
  0
LINE
  8
0
 10
359.521
 20
134.126
 11
359.37
 21
134.184
  0
LINE
  8
0
 10
359.37
 20
134.184
 11
359.225
 21
134.258
  0
LINE
  8
0
 10
359.225
 20
134.258
 11
359.089
 21
134.346
  0
LINE
  8
0
 10
359.089
 20
134.346
 11
358.963
 21
134.448
  0
LINE
  8
0
 10
358.963
 20
134.448
 11
358.848
 21
134.563
  0
LINE
  8
0
 10
358.848
 20
134.563
 11
358.746
 21
134.689
  0
LINE
  8
0
 10
358.746
 20
134.689
 11
358.658
 21
134.825
  0
LINE
  8
0
 10
358.658
 20
134.825
 11
358.584
 21
134.97
  0
LINE
  8
0
 10
358.584
 20
134.97
 11
358.526
 21
135.121
  0
LINE
  8
0
 10
358.526
 20
135.121
 11
358.484
 21
135.278
  0
LINE
  8
0
 10
358.484
 20
135.278
 11
358.458
 21
135.438
  0
LINE
  8
0
 10
358.458
 20
135.438
 11
358.45
 21
135.6
  0
LINE
  8
0
 10
358.45
 20
135.6
 11
358.458
 21
135.762
  0
LINE
  8
0
 10
358.458
 20
135.762
 11
358.484
 21
135.922
  0
LINE
  8
0
 10
358.484
 20
135.922
 11
358.526
 21
136.079
  0
LINE
  8
0
 10
358.526
 20
136.079
 11
358.584
 21
136.23
  0
LINE
  8
0
 10
358.584
 20
136.23
 11
358.658
 21
136.375
  0
LINE
  8
0
 10
358.658
 20
136.375
 11
358.746
 21
136.511
  0
LINE
  8
0
 10
358.746
 20
136.511
 11
358.848
 21
136.637
  0
LINE
  8
0
 10
358.848
 20
136.637
 11
358.963
 21
136.752
  0
LINE
  8
0
 10
358.963
 20
136.752
 11
359.089
 21
136.854
  0
LINE
  8
0
 10
359.089
 20
136.854
 11
359.225
 21
136.942
  0
LINE
  8
0
 10
359.225
 20
136.942
 11
359.37
 21
137.016
  0
LINE
  8
0
 10
359.37
 20
137.016
 11
359.521
 21
137.074
  0
LINE
  8
0
 10
359.521
 20
137.074
 11
359.678
 21
137.116
  0
LINE
  8
0
 10
359.678
 20
137.116
 11
359.838
 21
137.142
  0
LINE
  8
0
 10
359.838
 20
137.142
 11
360
 21
137.15
  0
LINE
  8
0
 10
360
 20
137.15
 11
360.162
 21
137.142
  0
LINE
  8
0
 10
360.162
 20
137.142
 11
360.322
 21
137.116
  0
LINE
  8
0
 10
360.322
 20
137.116
 11
360.479
 21
137.074
  0
LINE
  8
0
 10
360.479
 20
137.074
 11
360.63
 21
137.016
  0
LINE
  8
0
 10
360.63
 20
137.016
 11
360.775
 21
136.942
  0
LINE
  8
0
 10
360.775
 20
136.942
 11
360.911
 21
136.854
  0
LINE
  8
0
 10
360.911
 20
136.854
 11
361.037
 21
136.752
  0
LINE
  8
0
 10
361.037
 20
136.752
 11
361.152
 21
136.637
  0
LINE
  8
0
 10
361.152
 20
136.637
 11
361.254
 21
136.511
  0
LINE
  8
0
 10
361.254
 20
136.511
 11
361.342
 21
136.375
  0
LINE
  8
0
 10
361.342
 20
136.375
 11
361.416
 21
136.23
  0
LINE
  8
0
 10
361.416
 20
136.23
 11
361.474
 21
136.079
  0
LINE
  8
0
 10
361.474
 20
136.079
 11
361.516
 21
135.922
  0
LINE
  8
0
 10
361.516
 20
135.922
 11
361.542
 21
135.762
  0
LINE
  8
0
 10
361.542
 20
135.762
 11
361.55
 21
135.6
  0
LINE
  8
0
 10
361.55
 20
135.6
 11
361.542
 21
135.438
  0
LINE
  8
0
 10
361.542
 20
135.438
 11
361.516
 21
135.278
  0
LINE
  8
0
 10
361.516
 20
135.278
 11
361.474
 21
135.121
  0
LINE
  8
0
 10
361.474
 20
135.121
 11
361.416
 21
134.97
  0
LINE
  8
0
 10
361.416
 20
134.97
 11
361.342
 21
134.825
  0
LINE
  8
0
 10
361.342
 20
134.825
 11
361.254
 21
134.689
  0
LINE
  8
0
 10
361.254
 20
134.689
 11
361.152
 21
134.563
  0
LINE
  8
0
 10
361.152
 20
134.563
 11
361.037
 21
134.448
  0
LINE
  8
0
 10
361.037
 20
134.448
 11
360.911
 21
134.346
  0
LINE
  8
0
 10
360.911
 20
134.346
 11
360.775
 21
134.258
  0
LINE
  8
0
 10
360.775
 20
134.258
 11
360.63
 21
134.184
  0
LINE
  8
0
 10
360.63
 20
134.184
 11
360.479
 21
134.126
  0
LINE
  8
0
 10
360.479
 20
134.126
 11
360.322
 21
134.084
  0
LINE
  8
0
 10
360.322
 20
134.084
 11
360.162
 21
134.058
  0
LINE
  8
0
 10
360.162
 20
134.058
 11
360
 21
134.05
  0
LINE
  8
0
 10
360
 20
134.05
 11
359.838
 21
134.058
  0
LINE
  8
0
 10
259.838
 20
134.058
 11
259.678
 21
134.084
  0
LINE
  8
0
 10
259.678
 20
134.084
 11
259.521
 21
134.126
  0
LINE
  8
0
 10
259.521
 20
134.126
 11
259.37
 21
134.184
  0
LINE
  8
0
 10
259.37
 20
134.184
 11
259.225
 21
134.258
  0
LINE
  8
0
 10
259.225
 20
134.258
 11
259.089
 21
134.346
  0
LINE
  8
0
 10
259.089
 20
134.346
 11
258.963
 21
134.448
  0
LINE
  8
0
 10
258.963
 20
134.448
 11
258.848
 21
134.563
  0
LINE
  8
0
 10
258.848
 20
134.563
 11
258.746
 21
134.689
  0
LINE
  8
0
 10
258.746
 20
134.689
 11
258.658
 21
134.825
  0
LINE
  8
0
 10
258.658
 20
134.825
 11
258.584
 21
134.97
  0
LINE
  8
0
 10
258.584
 20
134.97
 11
258.526
 21
135.121
  0
LINE
  8
0
 10
258.526
 20
135.121
 11
258.484
 21
135.278
  0
LINE
  8
0
 10
258.484
 20
135.278
 11
258.458
 21
135.438
  0
LINE
  8
0
 10
258.458
 20
135.438
 11
258.45
 21
135.6
  0
LINE
  8
0
 10
258.45
 20
135.6
 11
258.458
 21
135.762
  0
LINE
  8
0
 10
258.458
 20
135.762
 11
258.484
 21
135.922
  0
LINE
  8
0
 10
258.484
 20
135.922
 11
258.526
 21
136.079
  0
LINE
  8
0
 10
258.526
 20
136.079
 11
258.584
 21
136.23
  0
LINE
  8
0
 10
258.584
 20
136.23
 11
258.658
 21
136.375
  0
LINE
  8
0
 10
258.658
 20
136.375
 11
258.746
 21
136.511
  0
LINE
  8
0
 10
258.746
 20
136.511
 11
258.848
 21
136.637
  0
LINE
  8
0
 10
258.848
 20
136.637
 11
258.963
 21
136.752
  0
LINE
  8
0
 10
258.963
 20
136.752
 11
259.089
 21
136.854
  0
LINE
  8
0
 10
259.089
 20
136.854
 11
259.225
 21
136.942
  0
LINE
  8
0
 10
259.225
 20
136.942
 11
259.37
 21
137.016
  0
LINE
  8
0
 10
259.37
 20
137.016
 11
259.521
 21
137.074
  0
LINE
  8
0
 10
259.521
 20
137.074
 11
259.678
 21
137.116
  0
LINE
  8
0
 10
259.678
 20
137.116
 11
259.838
 21
137.142
  0
LINE
  8
0
 10
259.838
 20
137.142
 11
260
 21
137.15
  0
LINE
  8
0
 10
260
 20
137.15
 11
260.162
 21
137.142
  0
LINE
  8
0
 10
260.162
 20
137.142
 11
260.322
 21
137.116
  0
LINE
  8
0
 10
260.322
 20
137.116
 11
260.479
 21
137.074
  0
LINE
  8
0
 10
260.479
 20
137.074
 11
260.63
 21
137.016
  0
LINE
  8
0
 10
260.63
 20
137.016
 11
260.775
 21
136.942
  0
LINE
  8
0
 10
260.775
 20
136.942
 11
260.911
 21
136.854
  0
LINE
  8
0
 10
260.911
 20
136.854
 11
261.037
 21
136.752
  0
LINE
  8
0
 10
261.037
 20
136.752
 11
261.152
 21
136.637
  0
LINE
  8
0
 10
261.152
 20
136.637
 11
261.254
 21
136.511
  0
LINE
  8
0
 10
261.254
 20
136.511
 11
261.342
 21
136.375
  0
LINE
  8
0
 10
261.342
 20
136.375
 11
261.416
 21
136.23
  0
LINE
  8
0
 10
261.416
 20
136.23
 11
261.474
 21
136.079
  0
LINE
  8
0
 10
261.474
 20
136.079
 11
261.516
 21
135.922
  0
LINE
  8
0
 10
261.516
 20
135.922
 11
261.542
 21
135.762
  0
LINE
  8
0
 10
261.542
 20
135.762
 11
261.55
 21
135.6
  0
LINE
  8
0
 10
261.55
 20
135.6
 11
261.542
 21
135.438
  0
LINE
  8
0
 10
261.542
 20
135.438
 11
261.516
 21
135.278
  0
LINE
  8
0
 10
261.516
 20
135.278
 11
261.474
 21
135.121
  0
LINE
  8
0
 10
261.474
 20
135.121
 11
261.416
 21
134.97
  0
LINE
  8
0
 10
261.416
 20
134.97
 11
261.342
 21
134.825
  0
LINE
  8
0
 10
261.342
 20
134.825
 11
261.254
 21
134.689
  0
LINE
  8
0
 10
261.254
 20
134.689
 11
261.152
 21
134.563
  0
LINE
  8
0
 10
261.152
 20
134.563
 11
261.037
 21
134.448
  0
LINE
  8
0
 10
261.037
 20
134.448
 11
260.911
 21
134.346
  0
LINE
  8
0
 10
260.911
 20
134.346
 11
260.775
 21
134.258
  0
LINE
  8
0
 10
260.775
 20
134.258
 11
260.63
 21
134.184
  0
LINE
  8
0
 10
260.63
 20
134.184
 11
260.479
 21
134.126
  0
LINE
  8
0
 10
260.479
 20
134.126
 11
260.322
 21
134.084
  0
LINE
  8
0
 10
260.322
 20
134.084
 11
260.162
 21
134.058
  0
LINE
  8
0
 10
260.162
 20
134.058
 11
260
 21
134.05
  0
LINE
  8
0
 10
260
 20
134.05
 11
259.838
 21
134.058
  0
LINE
  8
0
 10
359.838
 20
9.05849
 11
359.678
 21
9.08386
  0
LINE
  8
0
 10
359.678
 20
9.08386
 11
359.521
 21
9.12585
  0
LINE
  8
0
 10
359.521
 20
9.12585
 11
359.37
 21
9.18399
  0
LINE
  8
0
 10
359.37
 20
9.18399
 11
359.225
 21
9.25766
  0
LINE
  8
0
 10
359.225
 20
9.25766
 11
359.089
 21
9.34602
  0
LINE
  8
0
 10
359.089
 20
9.34602
 11
358.963
 21
9.44812
  0
LINE
  8
0
 10
358.963
 20
9.44812
 11
358.848
 21
9.56284
  0
LINE
  8
0
 10
358.848
 20
9.56284
 11
358.746
 21
9.68892
  0
LINE
  8
0
 10
358.746
 20
9.68892
 11
358.658
 21
9.825
  0
LINE
  8
0
 10
358.658
 20
9.825
 11
358.584
 21
9.96954
  0
LINE
  8
0
 10
358.584
 20
9.96954
 11
358.526
 21
10.121
  0
LINE
  8
0
 10
358.526
 20
10.121
 11
358.484
 21
10.2777
  0
LINE
  8
0
 10
358.484
 20
10.2777
 11
358.458
 21
10.438
  0
LINE
  8
0
 10
358.458
 20
10.438
 11
358.45
 21
10.6
  0
LINE
  8
0
 10
358.45
 20
10.6
 11
358.458
 21
10.762
  0
LINE
  8
0
 10
358.458
 20
10.762
 11
358.484
 21
10.9223
  0
LINE
  8
0
 10
358.484
 20
10.9223
 11
358.526
 21
11.079
  0
LINE
  8
0
 10
358.526
 20
11.079
 11
358.584
 21
11.2304
  0
LINE
  8
0
 10
358.584
 20
11.2304
 11
358.658
 21
11.375
  0
LINE
  8
0
 10
358.658
 20
11.375
 11
358.746
 21
11.5111
  0
LINE
  8
0
 10
358.746
 20
11.5111
 11
358.848
 21
11.6371
  0
LINE
  8
0
 10
358.848
 20
11.6371
 11
358.963
 21
11.7519
  0
LINE
  8
0
 10
358.963
 20
11.7519
 11
359.089
 21
11.854
  0
LINE
  8
0
 10
359.089
 20
11.854
 11
359.225
 21
11.9423
  0
LINE
  8
0
 10
359.225
 20
11.9423
 11
359.37
 21
12.016
  0
LINE
  8
0
 10
359.37
 20
12.016
 11
359.521
 21
12.0741
  0
LINE
  8
0
 10
359.521
 20
12.0741
 11
359.678
 21
12.1161
  0
LINE
  8
0
 10
359.678
 20
12.1161
 11
359.838
 21
12.1415
  0
LINE
  8
0
 10
359.838
 20
12.1415
 11
360
 21
12.15
  0
LINE
  8
0
 10
360
 20
12.15
 11
360.162
 21
12.1415
  0
LINE
  8
0
 10
360.162
 20
12.1415
 11
360.322
 21
12.1161
  0
LINE
  8
0
 10
360.322
 20
12.1161
 11
360.479
 21
12.0741
  0
LINE
  8
0
 10
360.479
 20
12.0741
 11
360.63
 21
12.016
  0
LINE
  8
0
 10
360.63
 20
12.016
 11
360.775
 21
11.9423
  0
LINE
  8
0
 10
360.775
 20
11.9423
 11
360.911
 21
11.854
  0
LINE
  8
0
 10
360.911
 20
11.854
 11
361.037
 21
11.7519
  0
LINE
  8
0
 10
361.037
 20
11.7519
 11
361.152
 21
11.6371
  0
LINE
  8
0
 10
361.152
 20
11.6371
 11
361.254
 21
11.5111
  0
LINE
  8
0
 10
361.254
 20
11.5111
 11
361.342
 21
11.375
  0
LINE
  8
0
 10
361.342
 20
11.375
 11
361.416
 21
11.2304
  0
LINE
  8
0
 10
361.416
 20
11.2304
 11
361.474
 21
11.079
  0
LINE
  8
0
 10
361.474
 20
11.079
 11
361.516
 21
10.9223
  0
LINE
  8
0
 10
361.516
 20
10.9223
 11
361.542
 21
10.762
  0
LINE
  8
0
 10
361.542
 20
10.762
 11
361.55
 21
10.6
  0
LINE
  8
0
 10
361.55
 20
10.6
 11
361.542
 21
10.438
  0
LINE
  8
0
 10
361.542
 20
10.438
 11
361.516
 21
10.2777
  0
LINE
  8
0
 10
361.516
 20
10.2777
 11
361.474
 21
10.121
  0
LINE
  8
0
 10
361.474
 20
10.121
 11
361.416
 21
9.96954
  0
LINE
  8
0
 10
361.416
 20
9.96954
 11
361.342
 21
9.825
  0
LINE
  8
0
 10
361.342
 20
9.825
 11
361.254
 21
9.68892
  0
LINE
  8
0
 10
361.254
 20
9.68892
 11
361.152
 21
9.56284
  0
LINE
  8
0
 10
361.152
 20
9.56284
 11
361.037
 21
9.44812
  0
LINE
  8
0
 10
361.037
 20
9.44812
 11
360.911
 21
9.34602
  0
LINE
  8
0
 10
360.911
 20
9.34602
 11
360.775
 21
9.25766
  0
LINE
  8
0
 10
360.775
 20
9.25766
 11
360.63
 21
9.18399
  0
LINE
  8
0
 10
360.63
 20
9.18399
 11
360.479
 21
9.12585
  0
LINE
  8
0
 10
360.479
 20
9.12585
 11
360.322
 21
9.08386
  0
LINE
  8
0
 10
360.322
 20
9.08386
 11
360.162
 21
9.05849
  0
LINE
  8
0
 10
360.162
 20
9.05849
 11
360
 21
9.04999
  0
LINE
  8
0
 10
360
 20
9.04999
 11
359.838
 21
9.05849
  0
LINE
  8
0
 10
259.838
 20
9.05849
 11
259.678
 21
9.08386
  0
LINE
  8
0
 10
259.678
 20
9.08386
 11
259.521
 21
9.12585
  0
LINE
  8
0
 10
259.521
 20
9.12585
 11
259.37
 21
9.18399
  0
LINE
  8
0
 10
259.37
 20
9.18399
 11
259.225
 21
9.25766
  0
LINE
  8
0
 10
259.225
 20
9.25766
 11
259.089
 21
9.34602
  0
LINE
  8
0
 10
259.089
 20
9.34602
 11
258.963
 21
9.44812
  0
LINE
  8
0
 10
258.963
 20
9.44812
 11
258.848
 21
9.56284
  0
LINE
  8
0
 10
258.848
 20
9.56284
 11
258.746
 21
9.68892
  0
LINE
  8
0
 10
258.746
 20
9.68892
 11
258.658
 21
9.825
  0
LINE
  8
0
 10
258.658
 20
9.825
 11
258.584
 21
9.96954
  0
LINE
  8
0
 10
258.584
 20
9.96954
 11
258.526
 21
10.121
  0
LINE
  8
0
 10
258.526
 20
10.121
 11
258.484
 21
10.2777
  0
LINE
  8
0
 10
258.484
 20
10.2777
 11
258.458
 21
10.438
  0
LINE
  8
0
 10
258.458
 20
10.438
 11
258.45
 21
10.6
  0
LINE
  8
0
 10
258.45
 20
10.6
 11
258.458
 21
10.762
  0
LINE
  8
0
 10
258.458
 20
10.762
 11
258.484
 21
10.9223
  0
LINE
  8
0
 10
258.484
 20
10.9223
 11
258.526
 21
11.079
  0
LINE
  8
0
 10
258.526
 20
11.079
 11
258.584
 21
11.2304
  0
LINE
  8
0
 10
258.584
 20
11.2304
 11
258.658
 21
11.375
  0
LINE
  8
0
 10
258.658
 20
11.375
 11
258.746
 21
11.5111
  0
LINE
  8
0
 10
258.746
 20
11.5111
 11
258.848
 21
11.6371
  0
LINE
  8
0
 10
258.848
 20
11.6371
 11
258.963
 21
11.7519
  0
LINE
  8
0
 10
258.963
 20
11.7519
 11
259.089
 21
11.854
  0
LINE
  8
0
 10
259.089
 20
11.854
 11
259.225
 21
11.9423
  0
LINE
  8
0
 10
259.225
 20
11.9423
 11
259.37
 21
12.016
  0
LINE
  8
0
 10
259.37
 20
12.016
 11
259.521
 21
12.0741
  0
LINE
  8
0
 10
259.521
 20
12.0741
 11
259.678
 21
12.1161
  0
LINE
  8
0
 10
259.678
 20
12.1161
 11
259.838
 21
12.1415
  0
LINE
  8
0
 10
259.838
 20
12.1415
 11
260
 21
12.15
  0
LINE
  8
0
 10
260
 20
12.15
 11
260.162
 21
12.1415
  0
LINE
  8
0
 10
260.162
 20
12.1415
 11
260.322
 21
12.1161
  0
LINE
  8
0
 10
260.322
 20
12.1161
 11
260.479
 21
12.0741
  0
LINE
  8
0
 10
260.479
 20
12.0741
 11
260.63
 21
12.016
  0
LINE
  8
0
 10
260.63
 20
12.016
 11
260.775
 21
11.9423
  0
LINE
  8
0
 10
260.775
 20
11.9423
 11
260.911
 21
11.854
  0
LINE
  8
0
 10
260.911
 20
11.854
 11
261.037
 21
11.7519
  0
LINE
  8
0
 10
261.037
 20
11.7519
 11
261.152
 21
11.6371
  0
LINE
  8
0
 10
261.152
 20
11.6371
 11
261.254
 21
11.5111
  0
LINE
  8
0
 10
261.254
 20
11.5111
 11
261.342
 21
11.375
  0
LINE
  8
0
 10
261.342
 20
11.375
 11
261.416
 21
11.2304
  0
LINE
  8
0
 10
261.416
 20
11.2304
 11
261.474
 21
11.079
  0
LINE
  8
0
 10
261.474
 20
11.079
 11
261.516
 21
10.9223
  0
LINE
  8
0
 10
261.516
 20
10.9223
 11
261.542
 21
10.762
  0
LINE
  8
0
 10
261.542
 20
10.762
 11
261.55
 21
10.6
  0
LINE
  8
0
 10
261.55
 20
10.6
 11
261.542
 21
10.438
  0
LINE
  8
0
 10
261.542
 20
10.438
 11
261.516
 21
10.2777
  0
LINE
  8
0
 10
261.516
 20
10.2777
 11
261.474
 21
10.121
  0
LINE
  8
0
 10
261.474
 20
10.121
 11
261.416
 21
9.96954
  0
LINE
  8
0
 10
261.416
 20
9.96954
 11
261.342
 21
9.825
  0
LINE
  8
0
 10
261.342
 20
9.825
 11
261.254
 21
9.68892
  0
LINE
  8
0
 10
261.254
 20
9.68892
 11
261.152
 21
9.56284
  0
LINE
  8
0
 10
261.152
 20
9.56284
 11
261.037
 21
9.44812
  0
LINE
  8
0
 10
261.037
 20
9.44812
 11
260.911
 21
9.34602
  0
LINE
  8
0
 10
260.911
 20
9.34602
 11
260.775
 21
9.25766
  0
LINE
  8
0
 10
260.775
 20
9.25766
 11
260.63
 21
9.18399
  0
LINE
  8
0
 10
260.63
 20
9.18399
 11
260.479
 21
9.12585
  0
LINE
  8
0
 10
260.479
 20
9.12585
 11
260.322
 21
9.08386
  0
LINE
  8
0
 10
260.322
 20
9.08386
 11
260.162
 21
9.05849
  0
LINE
  8
0
 10
260.162
 20
9.05849
 11
260
 21
9.04999
  0
LINE
  8
0
 10
260
 20
9.04999
 11
259.838
 21
9.05849
  0
LINE
  8
0
 10
474.3
 20
136.8
 11
465
 21
136.8
  0
LINE
  8
0
 10
465
 20
136.8
 11
465
 21
118.2
  0
LINE
  8
0
 10
465
 20
118.2
 11
474.3
 21
118.2
  0
LINE
  8
0
 10
474.3
 20
118.2
 11
474.3
 21
136.8
  0
LINE
  8
0
 10
469.488
 20
130.608
 11
469.328
 21
130.634
  0
LINE
  8
0
 10
469.328
 20
130.634
 11
469.171
 21
130.676
  0
LINE
  8
0
 10
469.171
 20
130.676
 11
469.02
 21
130.734
  0
LINE
  8
0
 10
469.02
 20
130.734
 11
468.875
 21
130.808
  0
LINE
  8
0
 10
468.875
 20
130.808
 11
468.739
 21
130.896
  0
LINE
  8
0
 10
468.739
 20
130.896
 11
468.613
 21
130.998
  0
LINE
  8
0
 10
468.613
 20
130.998
 11
468.498
 21
131.113
  0
LINE
  8
0
 10
468.498
 20
131.113
 11
468.396
 21
131.239
  0
LINE
  8
0
 10
468.396
 20
131.239
 11
468.308
 21
131.375
  0
LINE
  8
0
 10
468.308
 20
131.375
 11
468.234
 21
131.52
  0
LINE
  8
0
 10
468.234
 20
131.52
 11
468.176
 21
131.671
  0
LINE
  8
0
 10
468.176
 20
131.671
 11
468.134
 21
131.828
  0
LINE
  8
0
 10
468.134
 20
131.828
 11
468.108
 21
131.988
  0
LINE
  8
0
 10
468.108
 20
131.988
 11
468.1
 21
132.15
  0
LINE
  8
0
 10
468.1
 20
132.15
 11
468.108
 21
132.312
  0
LINE
  8
0
 10
468.108
 20
132.312
 11
468.134
 21
132.472
  0
LINE
  8
0
 10
468.134
 20
132.472
 11
468.176
 21
132.629
  0
LINE
  8
0
 10
468.176
 20
132.629
 11
468.234
 21
132.78
  0
LINE
  8
0
 10
468.234
 20
132.78
 11
468.308
 21
132.925
  0
LINE
  8
0
 10
468.308
 20
132.925
 11
468.396
 21
133.061
  0
LINE
  8
0
 10
468.396
 20
133.061
 11
468.498
 21
133.187
  0
LINE
  8
0
 10
468.498
 20
133.187
 11
468.613
 21
133.302
  0
LINE
  8
0
 10
468.613
 20
133.302
 11
468.739
 21
133.404
  0
LINE
  8
0
 10
468.739
 20
133.404
 11
468.875
 21
133.492
  0
LINE
  8
0
 10
468.875
 20
133.492
 11
469.02
 21
133.566
  0
LINE
  8
0
 10
469.02
 20
133.566
 11
469.171
 21
133.624
  0
LINE
  8
0
 10
469.171
 20
133.624
 11
469.328
 21
133.666
  0
LINE
  8
0
 10
469.328
 20
133.666
 11
469.488
 21
133.692
  0
LINE
  8
0
 10
469.488
 20
133.692
 11
469.65
 21
133.7
  0
LINE
  8
0
 10
469.65
 20
133.7
 11
469.812
 21
133.692
  0
LINE
  8
0
 10
469.812
 20
133.692
 11
469.972
 21
133.666
  0
LINE
  8
0
 10
469.972
 20
133.666
 11
470.129
 21
133.624
  0
LINE
  8
0
 10
470.129
 20
133.624
 11
470.28
 21
133.566
  0
LINE
  8
0
 10
470.28
 20
133.566
 11
470.425
 21
133.492
  0
LINE
  8
0
 10
470.425
 20
133.492
 11
470.561
 21
133.404
  0
LINE
  8
0
 10
470.561
 20
133.404
 11
470.687
 21
133.302
  0
LINE
  8
0
 10
470.687
 20
133.302
 11
470.802
 21
133.187
  0
LINE
  8
0
 10
470.802
 20
133.187
 11
470.904
 21
133.061
  0
LINE
  8
0
 10
470.904
 20
133.061
 11
470.992
 21
132.925
  0
LINE
  8
0
 10
470.992
 20
132.925
 11
471.066
 21
132.78
  0
LINE
  8
0
 10
471.066
 20
132.78
 11
471.124
 21
132.629
  0
LINE
  8
0
 10
471.124
 20
132.629
 11
471.166
 21
132.472
  0
LINE
  8
0
 10
471.166
 20
132.472
 11
471.191
 21
132.312
  0
LINE
  8
0
 10
471.191
 20
132.312
 11
471.2
 21
132.15
  0
LINE
  8
0
 10
471.2
 20
132.15
 11
471.191
 21
131.988
  0
LINE
  8
0
 10
471.191
 20
131.988
 11
471.166
 21
131.828
  0
LINE
  8
0
 10
471.166
 20
131.828
 11
471.124
 21
131.671
  0
LINE
  8
0
 10
471.124
 20
131.671
 11
471.066
 21
131.52
  0
LINE
  8
0
 10
471.066
 20
131.52
 11
470.992
 21
131.375
  0
LINE
  8
0
 10
470.992
 20
131.375
 11
470.904
 21
131.239
  0
LINE
  8
0
 10
470.904
 20
131.239
 11
470.802
 21
131.113
  0
LINE
  8
0
 10
470.802
 20
131.113
 11
470.687
 21
130.998
  0
LINE
  8
0
 10
470.687
 20
130.998
 11
470.561
 21
130.896
  0
LINE
  8
0
 10
470.561
 20
130.896
 11
470.425
 21
130.808
  0
LINE
  8
0
 10
470.425
 20
130.808
 11
470.28
 21
130.734
  0
LINE
  8
0
 10
470.28
 20
130.734
 11
470.129
 21
130.676
  0
LINE
  8
0
 10
470.129
 20
130.676
 11
469.972
 21
130.634
  0
LINE
  8
0
 10
469.972
 20
130.634
 11
469.812
 21
130.608
  0
LINE
  8
0
 10
469.812
 20
130.608
 11
469.65
 21
130.6
  0
LINE
  8
0
 10
469.65
 20
130.6
 11
469.488
 21
130.608
  0
LINE
  8
0
 10
468.1
 20
121.3
 11
468.1
 21
127.5
  0
LINE
  8
0
 10
468.1
 20
127.5
 11
471.2
 21
127.5
  0
LINE
  8
0
 10
471.2
 20
127.5
 11
471.2
 21
121.3
  0
LINE
  8
0
 10
471.2
 20
121.3
 11
468.1
 21
121.3
  0
LINE
  8
0
 10
434.3
 20
128.6
 11
425
 21
128.6
  0
LINE
  8
0
 10
425
 20
128.6
 11
425
 21
28.6
  0
LINE
  8
0
 10
425
 20
28.6
 11
434.3
 21
28.6
  0
LINE
  8
0
 10
434.3
 20
28.6
 11
434.3
 21
128.6
  0
LINE
  8
0
 10
429.488
 20
122.408
 11
429.328
 21
122.434
  0
LINE
  8
0
 10
429.328
 20
122.434
 11
429.171
 21
122.476
  0
LINE
  8
0
 10
429.171
 20
122.476
 11
429.02
 21
122.534
  0
LINE
  8
0
 10
429.02
 20
122.534
 11
428.875
 21
122.608
  0
LINE
  8
0
 10
428.875
 20
122.608
 11
428.739
 21
122.696
  0
LINE
  8
0
 10
428.739
 20
122.696
 11
428.613
 21
122.798
  0
LINE
  8
0
 10
428.613
 20
122.798
 11
428.498
 21
122.913
  0
LINE
  8
0
 10
428.498
 20
122.913
 11
428.396
 21
123.039
  0
LINE
  8
0
 10
428.396
 20
123.039
 11
428.308
 21
123.175
  0
LINE
  8
0
 10
428.308
 20
123.175
 11
428.234
 21
123.32
  0
LINE
  8
0
 10
428.234
 20
123.32
 11
428.176
 21
123.471
  0
LINE
  8
0
 10
428.176
 20
123.471
 11
428.134
 21
123.628
  0
LINE
  8
0
 10
428.134
 20
123.628
 11
428.108
 21
123.788
  0
LINE
  8
0
 10
428.108
 20
123.788
 11
428.1
 21
123.95
  0
LINE
  8
0
 10
428.1
 20
123.95
 11
428.108
 21
124.112
  0
LINE
  8
0
 10
428.108
 20
124.112
 11
428.134
 21
124.272
  0
LINE
  8
0
 10
428.134
 20
124.272
 11
428.176
 21
124.429
  0
LINE
  8
0
 10
428.176
 20
124.429
 11
428.234
 21
124.58
  0
LINE
  8
0
 10
428.234
 20
124.58
 11
428.308
 21
124.725
  0
LINE
  8
0
 10
428.308
 20
124.725
 11
428.396
 21
124.861
  0
LINE
  8
0
 10
428.396
 20
124.861
 11
428.498
 21
124.987
  0
LINE
  8
0
 10
428.498
 20
124.987
 11
428.613
 21
125.102
  0
LINE
  8
0
 10
428.613
 20
125.102
 11
428.739
 21
125.204
  0
LINE
  8
0
 10
428.739
 20
125.204
 11
428.875
 21
125.292
  0
LINE
  8
0
 10
428.875
 20
125.292
 11
429.02
 21
125.366
  0
LINE
  8
0
 10
429.02
 20
125.366
 11
429.171
 21
125.424
  0
LINE
  8
0
 10
429.171
 20
125.424
 11
429.328
 21
125.466
  0
LINE
  8
0
 10
429.328
 20
125.466
 11
429.488
 21
125.492
  0
LINE
  8
0
 10
429.488
 20
125.492
 11
429.65
 21
125.5
  0
LINE
  8
0
 10
429.65
 20
125.5
 11
429.812
 21
125.492
  0
LINE
  8
0
 10
429.812
 20
125.492
 11
429.972
 21
125.466
  0
LINE
  8
0
 10
429.972
 20
125.466
 11
430.129
 21
125.424
  0
LINE
  8
0
 10
430.129
 20
125.424
 11
430.28
 21
125.366
  0
LINE
  8
0
 10
430.28
 20
125.366
 11
430.425
 21
125.292
  0
LINE
  8
0
 10
430.425
 20
125.292
 11
430.561
 21
125.204
  0
LINE
  8
0
 10
430.561
 20
125.204
 11
430.687
 21
125.102
  0
LINE
  8
0
 10
430.687
 20
125.102
 11
430.802
 21
124.987
  0
LINE
  8
0
 10
430.802
 20
124.987
 11
430.904
 21
124.861
  0
LINE
  8
0
 10
430.904
 20
124.861
 11
430.992
 21
124.725
  0
LINE
  8
0
 10
430.992
 20
124.725
 11
431.066
 21
124.58
  0
LINE
  8
0
 10
431.066
 20
124.58
 11
431.124
 21
124.429
  0
LINE
  8
0
 10
431.124
 20
124.429
 11
431.166
 21
124.272
  0
LINE
  8
0
 10
431.166
 20
124.272
 11
431.191
 21
124.112
  0
LINE
  8
0
 10
431.191
 20
124.112
 11
431.2
 21
123.95
  0
LINE
  8
0
 10
431.2
 20
123.95
 11
431.191
 21
123.788
  0
LINE
  8
0
 10
431.191
 20
123.788
 11
431.166
 21
123.628
  0
LINE
  8
0
 10
431.166
 20
123.628
 11
431.124
 21
123.471
  0
LINE
  8
0
 10
431.124
 20
123.471
 11
431.066
 21
123.32
  0
LINE
  8
0
 10
431.066
 20
123.32
 11
430.992
 21
123.175
  0
LINE
  8
0
 10
430.992
 20
123.175
 11
430.904
 21
123.039
  0
LINE
  8
0
 10
430.904
 20
123.039
 11
430.802
 21
122.913
  0
LINE
  8
0
 10
430.802
 20
122.913
 11
430.687
 21
122.798
  0
LINE
  8
0
 10
430.687
 20
122.798
 11
430.561
 21
122.696
  0
LINE
  8
0
 10
430.561
 20
122.696
 11
430.425
 21
122.608
  0
LINE
  8
0
 10
430.425
 20
122.608
 11
430.28
 21
122.534
  0
LINE
  8
0
 10
430.28
 20
122.534
 11
430.129
 21
122.476
  0
LINE
  8
0
 10
430.129
 20
122.476
 11
429.972
 21
122.434
  0
LINE
  8
0
 10
429.972
 20
122.434
 11
429.812
 21
122.408
  0
LINE
  8
0
 10
429.812
 20
122.408
 11
429.65
 21
122.4
  0
LINE
  8
0
 10
429.65
 20
122.4
 11
429.488
 21
122.408
  0
LINE
  8
0
 10
428.1
 20
31.7
 11
428.1
 21
41
  0
LINE
  8
0
 10
428.1
 20
41
 11
431.2
 21
41
  0
LINE
  8
0
 10
431.2
 20
41
 11
431.2
 21
31.7
  0
LINE
  8
0
 10
431.2
 20
31.7
 11
428.1
 21
31.7
  0
LINE
  8
0
 10
412.2
 20
114.5
 11
375
 21
114.5
  0
LINE
  8
0
 10
375
 20
114.5
 11
375
 21
63.3
  0
LINE
  8
0
 10
375
 20
63.3
 11
412.2
 21
63.3
  0
LINE
  8
0
 10
412.2
 20
63.3
 11
412.2
 21
114.5
  0
LINE
  8
0
 10
392.05
 20
111.4
 11
395.15
 21
111.4
  0
LINE
  8
0
 10
395.15
 20
111.4
 11
395.15
 21
108.3
  0
LINE
  8
0
 10
395.15
 20
108.3
 11
392.05
 21
108.3
  0
LINE
  8
0
 10
392.05
 20
108.3
 11
392.05
 21
111.4
  0
LINE
  8
0
 10
379.65
 20
108.3
 11
379.65
 21
111.4
  0
LINE
  8
0
 10
379.65
 20
111.4
 11
388.95
 21
111.4
  0
LINE
  8
0
 10
388.95
 20
111.4
 11
388.95
 21
108.3
  0
LINE
  8
0
 10
388.95
 20
108.3
 11
379.65
 21
108.3
  0
LINE
  8
0
 10
398.25
 20
93.3
 11
398.25
 21
96.4
  0
LINE
  8
0
 10
398.25
 20
96.4
 11
407.55
 21
96.4
  0
LINE
  8
0
 10
407.55
 20
96.4
 11
407.55
 21
93.3
  0
LINE
  8
0
 10
407.55
 20
93.3
 11
398.25
 21
93.3
  0
LINE
  8
0
 10
392.05
 20
93.3
 11
392.05
 21
96.4
  0
LINE
  8
0
 10
392.05
 20
96.4
 11
395.15
 21
96.4
  0
LINE
  8
0
 10
395.15
 20
96.4
 11
395.15
 21
93.3
  0
LINE
  8
0
 10
395.15
 20
93.3
 11
392.05
 21
93.3
  0
LINE
  8
0
 10
379.65
 20
93.3
 11
379.65
 21
96.4
  0
LINE
  8
0
 10
379.65
 20
96.4
 11
388.95
 21
96.4
  0
LINE
  8
0
 10
388.95
 20
96.4
 11
388.95
 21
93.3
  0
LINE
  8
0
 10
388.95
 20
93.3
 11
379.65
 21
93.3
  0
LINE
  8
0
 10
407.55
 20
111.4
 11
407.55
 21
108.3
  0
LINE
  8
0
 10
407.55
 20
108.3
 11
398.25
 21
108.3
  0
LINE
  8
0
 10
398.25
 20
108.3
 11
398.25
 21
111.4
  0
LINE
  8
0
 10
398.25
 20
111.4
 11
407.55
 21
111.4
  0
LINE
  8
0
 10
468.1
 20
108.9
 11
471.2
 21
108.9
  0
LINE
  8
0
 10
471.2
 20
108.9
 11
471.2
 21
105.8
  0
LINE
  8
0
 10
471.2
 20
105.8
 11
474.3
 21
105.8
  0
LINE
  8
0
 10
474.3
 20
105.8
 11
474.3
 21
112
  0
LINE
  8
0
 10
474.3
 20
112
 11
465
 21
112
  0
LINE
  8
0
 10
465
 20
112
 11
465
 21
105.8
  0
LINE
  8
0
 10
465
 20
105.8
 11
468.1
 21
105.8
  0
LINE
  8
0
 10
468.1
 20
105.8
 11
468.1
 21
108.9
  0
LINE
  8
0
 10
474.3
 20
99.6
 11
465
 21
99.6
  0
LINE
  8
0
 10
465
 20
99.6
 11
465
 21
-0.399994
  0
LINE
  8
0
 10
465
 20
-0.399994
 11
474.3
 21
-0.399994
  0
LINE
  8
0
 10
474.3
 20
-0.399994
 11
474.3
 21
99.6
  0
LINE
  8
0
 10
469.519
 20
93.7068
 11
469.39
 21
93.7273
  0
LINE
  8
0
 10
469.39
 20
93.7273
 11
469.264
 21
93.7612
  0
LINE
  8
0
 10
469.264
 20
93.7612
 11
469.142
 21
93.8081
  0
LINE
  8
0
 10
469.142
 20
93.8081
 11
469.025
 21
93.8675
  0
LINE
  8
0
 10
469.025
 20
93.8675
 11
468.915
 21
93.9387
  0
LINE
  8
0
 10
468.915
 20
93.9387
 11
468.814
 21
94.0211
  0
LINE
  8
0
 10
468.814
 20
94.0211
 11
468.721
 21
94.1136
  0
LINE
  8
0
 10
468.721
 20
94.1136
 11
468.639
 21
94.2153
  0
LINE
  8
0
 10
468.639
 20
94.2153
 11
468.567
 21
94.325
  0
LINE
  8
0
 10
468.567
 20
94.325
 11
468.508
 21
94.4416
  0
LINE
  8
0
 10
468.508
 20
94.4416
 11
468.461
 21
94.5637
  0
LINE
  8
0
 10
468.461
 20
94.5637
 11
468.427
 21
94.6901
  0
LINE
  8
0
 10
468.427
 20
94.6901
 11
468.407
 21
94.8193
  0
LINE
  8
0
 10
468.407
 20
94.8193
 11
468.4
 21
94.95
  0
LINE
  8
0
 10
468.4
 20
94.95
 11
468.407
 21
95.0807
  0
LINE
  8
0
 10
468.407
 20
95.0807
 11
468.427
 21
95.2099
  0
LINE
  8
0
 10
468.427
 20
95.2099
 11
468.461
 21
95.3363
  0
LINE
  8
0
 10
468.461
 20
95.3363
 11
468.508
 21
95.4584
  0
LINE
  8
0
 10
468.508
 20
95.4584
 11
468.567
 21
95.575
  0
LINE
  8
0
 10
468.567
 20
95.575
 11
468.639
 21
95.6847
  0
LINE
  8
0
 10
468.639
 20
95.6847
 11
468.721
 21
95.7864
  0
LINE
  8
0
 10
468.721
 20
95.7864
 11
468.814
 21
95.8789
  0
LINE
  8
0
 10
468.814
 20
95.8789
 11
468.915
 21
95.9613
  0
LINE
  8
0
 10
468.915
 20
95.9613
 11
469.025
 21
96.0325
  0
LINE
  8
0
 10
469.025
 20
96.0325
 11
469.142
 21
96.0919
  0
LINE
  8
0
 10
469.142
 20
96.0919
 11
469.264
 21
96.1388
  0
LINE
  8
0
 10
469.264
 20
96.1388
 11
469.39
 21
96.1727
  0
LINE
  8
0
 10
469.39
 20
96.1727
 11
469.519
 21
96.1931
  0
LINE
  8
0
 10
469.519
 20
96.1931
 11
469.65
 21
96.2
  0
LINE
  8
0
 10
469.65
 20
96.2
 11
469.781
 21
96.1931
  0
LINE
  8
0
 10
469.781
 20
96.1931
 11
469.91
 21
96.1727
  0
LINE
  8
0
 10
469.91
 20
96.1727
 11
470.036
 21
96.1388
  0
LINE
  8
0
 10
470.036
 20
96.1388
 11
470.158
 21
96.0919
  0
LINE
  8
0
 10
470.158
 20
96.0919
 11
470.275
 21
96.0325
  0
LINE
  8
0
 10
470.275
 20
96.0325
 11
470.385
 21
95.9613
  0
LINE
  8
0
 10
470.385
 20
95.9613
 11
470.486
 21
95.8789
  0
LINE
  8
0
 10
470.486
 20
95.8789
 11
470.579
 21
95.7864
  0
LINE
  8
0
 10
470.579
 20
95.7864
 11
470.661
 21
95.6847
  0
LINE
  8
0
 10
470.661
 20
95.6847
 11
470.733
 21
95.575
  0
LINE
  8
0
 10
470.733
 20
95.575
 11
470.792
 21
95.4584
  0
LINE
  8
0
 10
470.792
 20
95.4584
 11
470.839
 21
95.3363
  0
LINE
  8
0
 10
470.839
 20
95.3363
 11
470.873
 21
95.2099
  0
LINE
  8
0
 10
470.873
 20
95.2099
 11
470.893
 21
95.0807
  0
LINE
  8
0
 10
470.893
 20
95.0807
 11
470.9
 21
94.95
  0
LINE
  8
0
 10
470.9
 20
94.95
 11
470.893
 21
94.8193
  0
LINE
  8
0
 10
470.893
 20
94.8193
 11
470.873
 21
94.6901
  0
LINE
  8
0
 10
470.873
 20
94.6901
 11
470.839
 21
94.5637
  0
LINE
  8
0
 10
470.839
 20
94.5637
 11
470.792
 21
94.4416
  0
LINE
  8
0
 10
470.792
 20
94.4416
 11
470.733
 21
94.325
  0
LINE
  8
0
 10
470.733
 20
94.325
 11
470.661
 21
94.2153
  0
LINE
  8
0
 10
470.661
 20
94.2153
 11
470.579
 21
94.1136
  0
LINE
  8
0
 10
470.579
 20
94.1136
 11
470.486
 21
94.0211
  0
LINE
  8
0
 10
470.486
 20
94.0211
 11
470.385
 21
93.9387
  0
LINE
  8
0
 10
470.385
 20
93.9387
 11
470.275
 21
93.8675
  0
LINE
  8
0
 10
470.275
 20
93.8675
 11
470.158
 21
93.8081
  0
LINE
  8
0
 10
470.158
 20
93.8081
 11
470.036
 21
93.7612
  0
LINE
  8
0
 10
470.036
 20
93.7612
 11
469.91
 21
93.7273
  0
LINE
  8
0
 10
469.91
 20
93.7273
 11
469.781
 21
93.7068
  0
LINE
  8
0
 10
469.781
 20
93.7068
 11
469.65
 21
93.7
  0
LINE
  8
0
 10
469.65
 20
93.7
 11
469.519
 21
93.7068
  0
LINE
  8
0
 10
468.875
 20
84.6
 11
468.875
 21
89.6
  0
LINE
  8
0
 10
468.875
 20
89.6
 11
470.425
 21
89.6
  0
LINE
  8
0
 10
470.425
 20
89.6
 11
470.425
 21
84.6
  0
LINE
  8
0
 10
470.425
 20
84.6
 11
468.875
 21
84.6
  0
LINE
  8
0
 10
469.488
 20
2.70848
 11
469.328
 21
2.73386
  0
LINE
  8
0
 10
469.328
 20
2.73386
 11
469.171
 21
2.77585
  0
LINE
  8
0
 10
469.171
 20
2.77585
 11
469.02
 21
2.834
  0
LINE
  8
0
 10
469.02
 20
2.834
 11
468.875
 21
2.90765
  0
LINE
  8
0
 10
468.875
 20
2.90765
 11
468.739
 21
2.99602
  0
LINE
  8
0
 10
468.739
 20
2.99602
 11
468.613
 21
3.09811
  0
LINE
  8
0
 10
468.613
 20
3.09811
 11
468.498
 21
3.21284
  0
LINE
  8
0
 10
468.498
 20
3.21284
 11
468.396
 21
3.33893
  0
LINE
  8
0
 10
468.396
 20
3.33893
 11
468.308
 21
3.47499
  0
LINE
  8
0
 10
468.308
 20
3.47499
 11
468.234
 21
3.61955
  0
LINE
  8
0
 10
468.234
 20
3.61955
 11
468.176
 21
3.77101
  0
LINE
  8
0
 10
468.176
 20
3.77101
 11
468.134
 21
3.92773
  0
LINE
  8
0
 10
468.134
 20
3.92773
 11
468.108
 21
4.08797
  0
LINE
  8
0
 10
468.108
 20
4.08797
 11
468.1
 21
4.24998
  0
LINE
  8
0
 10
468.1
 20
4.24998
 11
468.108
 21
4.41202
  0
LINE
  8
0
 10
468.108
 20
4.41202
 11
468.134
 21
4.57225
  0
LINE
  8
0
 10
468.134
 20
4.57225
 11
468.176
 21
4.72897
  0
LINE
  8
0
 10
468.176
 20
4.72897
 11
468.234
 21
4.88043
  0
LINE
  8
0
 10
468.234
 20
4.88043
 11
468.308
 21
5.02499
  0
LINE
  8
0
 10
468.308
 20
5.02499
 11
468.396
 21
5.16106
  0
LINE
  8
0
 10
468.396
 20
5.16106
 11
468.498
 21
5.28714
  0
LINE
  8
0
 10
468.498
 20
5.28714
 11
468.613
 21
5.40187
  0
LINE
  8
0
 10
468.613
 20
5.40187
 11
468.739
 21
5.50397
  0
LINE
  8
0
 10
468.739
 20
5.50397
 11
468.875
 21
5.59233
  0
LINE
  8
0
 10
468.875
 20
5.59233
 11
469.02
 21
5.66599
  0
LINE
  8
0
 10
469.02
 20
5.66599
 11
469.171
 21
5.72414
  0
LINE
  8
0
 10
469.171
 20
5.72414
 11
469.328
 21
5.76611
  0
LINE
  8
0
 10
469.328
 20
5.76611
 11
469.488
 21
5.7915
  0
LINE
  8
0
 10
469.488
 20
5.7915
 11
469.65
 21
5.79999
  0
LINE
  8
0
 10
469.65
 20
5.79999
 11
469.812
 21
5.7915
  0
LINE
  8
0
 10
469.812
 20
5.7915
 11
469.972
 21
5.76611
  0
LINE
  8
0
 10
469.972
 20
5.76611
 11
470.129
 21
5.72414
  0
LINE
  8
0
 10
470.129
 20
5.72414
 11
470.28
 21
5.66599
  0
LINE
  8
0
 10
470.28
 20
5.66599
 11
470.425
 21
5.59233
  0
LINE
  8
0
 10
470.425
 20
5.59233
 11
470.561
 21
5.50397
  0
LINE
  8
0
 10
470.561
 20
5.50397
 11
470.687
 21
5.40187
  0
LINE
  8
0
 10
470.687
 20
5.40187
 11
470.802
 21
5.28714
  0
LINE
  8
0
 10
470.802
 20
5.28714
 11
470.904
 21
5.16106
  0
LINE
  8
0
 10
470.904
 20
5.16106
 11
470.992
 21
5.02499
  0
LINE
  8
0
 10
470.992
 20
5.02499
 11
471.066
 21
4.88043
  0
LINE
  8
0
 10
471.066
 20
4.88043
 11
471.124
 21
4.72897
  0
LINE
  8
0
 10
471.124
 20
4.72897
 11
471.166
 21
4.57225
  0
LINE
  8
0
 10
471.166
 20
4.57225
 11
471.191
 21
4.41202
  0
LINE
  8
0
 10
471.191
 20
4.41202
 11
471.2
 21
4.24998
  0
LINE
  8
0
 10
471.2
 20
4.24998
 11
471.191
 21
4.08797
  0
LINE
  8
0
 10
471.191
 20
4.08797
 11
471.166
 21
3.92773
  0
LINE
  8
0
 10
471.166
 20
3.92773
 11
471.124
 21
3.77101
  0
LINE
  8
0
 10
471.124
 20
3.77101
 11
471.066
 21
3.61955
  0
LINE
  8
0
 10
471.066
 20
3.61955
 11
470.992
 21
3.47499
  0
LINE
  8
0
 10
470.992
 20
3.47499
 11
470.904
 21
3.33893
  0
LINE
  8
0
 10
470.904
 20
3.33893
 11
470.802
 21
3.21284
  0
LINE
  8
0
 10
470.802
 20
3.21284
 11
470.687
 21
3.09811
  0
LINE
  8
0
 10
470.687
 20
3.09811
 11
470.561
 21
2.99602
  0
LINE
  8
0
 10
470.561
 20
2.99602
 11
470.425
 21
2.90765
  0
LINE
  8
0
 10
470.425
 20
2.90765
 11
470.28
 21
2.834
  0
LINE
  8
0
 10
470.28
 20
2.834
 11
470.129
 21
2.77585
  0
LINE
  8
0
 10
470.129
 20
2.77585
 11
469.972
 21
2.73386
  0
LINE
  8
0
 10
469.972
 20
2.73386
 11
469.812
 21
2.70848
  0
LINE
  8
0
 10
469.812
 20
2.70848
 11
469.65
 21
2.7
  0
LINE
  8
0
 10
469.65
 20
2.7
 11
469.488
 21
2.70848
  0
LINE
  8
0
 10
454.3
 20
36.0028
 11
455.323
 21
36.5241
  0
LINE
  8
0
 10
455.323
 20
36.5241
 11
456.319
 21
37.1709
  0
LINE
  8
0
 10
456.319
 20
37.1709
 11
457.242
 21
37.9183
  0
LINE
  8
0
 10
457.242
 20
37.9183
 11
458.082
 21
38.758
  0
LINE
  8
0
 10
458.082
 20
38.758
 11
458.829
 21
39.681
  0
LINE
  8
0
 10
458.829
 20
39.681
 11
459.476
 21
40.677
  0
LINE
  8
0
 10
459.476
 20
40.677
 11
460.015
 21
41.7352
  0
LINE
  8
0
 10
460.015
 20
41.7352
 11
460.441
 21
42.8439
  0
LINE
  8
0
 10
460.441
 20
42.8439
 11
460.748
 21
43.991
  0
LINE
  8
0
 10
460.748
 20
43.991
 11
460.934
 21
45.164
  0
LINE
  8
0
 10
460.934
 20
45.164
 11
460.996
 21
46.35
  0
LINE
  8
0
 10
460.996
 20
46.35
 11
460.934
 21
47.536
  0
LINE
  8
0
 10
460.934
 20
47.536
 11
460.748
 21
48.709
  0
LINE
  8
0
 10
460.748
 20
48.709
 11
460.441
 21
49.8561
  0
LINE
  8
0
 10
460.441
 20
49.8561
 11
460.015
 21
50.9648
  0
LINE
  8
0
 10
460.015
 20
50.9648
 11
459.476
 21
52.023
  0
LINE
  8
0
 10
459.476
 20
52.023
 11
458.829
 21
53.019
  0
LINE
  8
0
 10
458.829
 20
53.019
 11
458.082
 21
53.942
  0
LINE
  8
0
 10
458.082
 20
53.942
 11
457.242
 21
54.7817
  0
LINE
  8
0
 10
457.242
 20
54.7817
 11
456.319
 21
55.5291
  0
LINE
  8
0
 10
456.319
 20
55.5291
 11
455.323
 21
56.1759
  0
LINE
  8
0
 10
455.323
 20
56.1759
 11
454.265
 21
56.7151
  0
LINE
  8
0
 10
454.265
 20
56.7151
 11
453.156
 21
57.1407
  0
LINE
  8
0
 10
453.156
 20
57.1407
 11
452.009
 21
57.4481
  0
LINE
  8
0
 10
452.009
 20
57.4481
 11
450.836
 21
57.6338
  0
LINE
  8
0
 10
450.836
 20
57.6338
 11
449.65
 21
57.696
  0
LINE
  8
0
 10
449.65
 20
57.696
 11
448.464
 21
57.6338
  0
LINE
  8
0
 10
448.464
 20
57.6338
 11
447.291
 21
57.4481
  0
LINE
  8
0
 10
447.291
 20
57.4481
 11
446.144
 21
57.1407
  0
LINE
  8
0
 10
446.144
 20
57.1407
 11
445.035
 21
56.7151
  0
LINE
  8
0
 10
445.035
 20
56.7151
 11
443.977
 21
56.1759
  0
LINE
  8
0
 10
443.977
 20
56.1759
 11
442.981
 21
55.5291
  0
LINE
  8
0
 10
442.981
 20
55.5291
 11
442.058
 21
54.7817
  0
LINE
  8
0
 10
442.058
 20
54.7817
 11
441.218
 21
53.942
  0
LINE
  8
0
 10
441.218
 20
53.942
 11
440.471
 21
53.019
  0
LINE
  8
0
 10
440.471
 20
53.019
 11
439.824
 21
52.023
  0
LINE
  8
0
 10
439.824
 20
52.023
 11
439.285
 21
50.9648
  0
LINE
  8
0
 10
439.285
 20
50.9648
 11
438.859
 21
49.8561
  0
LINE
  8
0
 10
438.859
 20
49.8561
 11
438.552
 21
48.709
  0
LINE
  8
0
 10
438.552
 20
48.709
 11
438.366
 21
47.536
  0
LINE
  8
0
 10
438.366
 20
47.536
 11
438.304
 21
46.35
  0
LINE
  8
0
 10
438.304
 20
46.35
 11
438.366
 21
45.164
  0
LINE
  8
0
 10
438.366
 20
45.164
 11
438.552
 21
43.991
  0
LINE
  8
0
 10
438.552
 20
43.991
 11
438.859
 21
42.8439
  0
LINE
  8
0
 10
438.859
 20
42.8439
 11
439.285
 21
41.7352
  0
LINE
  8
0
 10
439.285
 20
41.7352
 11
439.824
 21
40.677
  0
LINE
  8
0
 10
439.824
 20
40.677
 11
440.471
 21
39.681
  0
LINE
  8
0
 10
440.471
 20
39.681
 11
441.218
 21
38.758
  0
LINE
  8
0
 10
441.218
 20
38.758
 11
442.058
 21
37.9183
  0
LINE
  8
0
 10
442.058
 20
37.9183
 11
442.981
 21
37.1709
  0
LINE
  8
0
 10
442.981
 20
37.1709
 11
443.977
 21
36.5241
  0
LINE
  8
0
 10
443.977
 20
36.5241
 11
445
 21
36.0028
  0
LINE
  8
0
 10
445
 20
36.0028
 11
445
 21
4.09999
  0
LINE
  8
0
 10
445
 20
4.09999
 11
454.3
 21
4.09999
  0
LINE
  8
0
 10
454.3
 20
4.09999
 11
454.3
 21
36.0028
  0
LINE
  8
0
 10
449.138
 20
41.4753
 11
448.631
 21
41.5556
  0
LINE
  8
0
 10
448.631
 20
41.5556
 11
448.135
 21
41.6884
  0
LINE
  8
0
 10
448.135
 20
41.6884
 11
447.656
 21
41.8722
  0
LINE
  8
0
 10
447.656
 20
41.8722
 11
447.199
 21
42.1051
  0
LINE
  8
0
 10
447.199
 20
42.1051
 11
446.769
 21
42.3846
  0
LINE
  8
0
 10
446.769
 20
42.3846
 11
446.37
 21
42.7074
  0
LINE
  8
0
 10
446.37
 20
42.7074
 11
446.007
 21
43.0702
  0
LINE
  8
0
 10
446.007
 20
43.0702
 11
445.685
 21
43.4689
  0
LINE
  8
0
 10
445.685
 20
43.4689
 11
445.405
 21
43.8992
  0
LINE
  8
0
 10
445.405
 20
43.8992
 11
445.172
 21
44.3564
  0
LINE
  8
0
 10
445.172
 20
44.3564
 11
444.988
 21
44.8353
  0
LINE
  8
0
 10
444.988
 20
44.8353
 11
444.856
 21
45.3309
  0
LINE
  8
0
 10
444.856
 20
45.3309
 11
444.775
 21
45.8376
  0
LINE
  8
0
 10
444.775
 20
45.8376
 11
444.748
 21
46.35
  0
LINE
  8
0
 10
444.748
 20
46.35
 11
444.775
 21
46.8624
  0
LINE
  8
0
 10
444.775
 20
46.8624
 11
444.856
 21
47.3691
  0
LINE
  8
0
 10
444.856
 20
47.3691
 11
444.988
 21
47.8647
  0
LINE
  8
0
 10
444.988
 20
47.8647
 11
445.172
 21
48.3436
  0
LINE
  8
0
 10
445.172
 20
48.3436
 11
445.405
 21
48.8008
  0
LINE
  8
0
 10
445.405
 20
48.8008
 11
445.685
 21
49.231
  0
LINE
  8
0
 10
445.685
 20
49.231
 11
446.007
 21
49.6298
  0
LINE
  8
0
 10
446.007
 20
49.6298
 11
446.37
 21
49.9925
  0
LINE
  8
0
 10
446.37
 20
49.9925
 11
446.769
 21
50.3154
  0
LINE
  8
0
 10
446.769
 20
50.3154
 11
447.199
 21
50.5948
  0
LINE
  8
0
 10
447.199
 20
50.5948
 11
447.656
 21
50.8278
  0
LINE
  8
0
 10
447.656
 20
50.8278
 11
448.135
 21
51.0116
  0
LINE
  8
0
 10
448.135
 20
51.0116
 11
448.631
 21
51.1444
  0
LINE
  8
0
 10
448.631
 20
51.1444
 11
449.138
 21
51.2247
  0
LINE
  8
0
 10
449.138
 20
51.2247
 11
449.65
 21
51.2515
  0
LINE
  8
0
 10
449.65
 20
51.2515
 11
450.162
 21
51.2247
  0
LINE
  8
0
 10
450.162
 20
51.2247
 11
450.669
 21
51.1444
  0
LINE
  8
0
 10
450.669
 20
51.1444
 11
451.165
 21
51.0116
  0
LINE
  8
0
 10
451.165
 20
51.0116
 11
451.644
 21
50.8278
  0
LINE
  8
0
 10
451.644
 20
50.8278
 11
452.101
 21
50.5948
  0
LINE
  8
0
 10
452.101
 20
50.5948
 11
452.531
 21
50.3154
  0
LINE
  8
0
 10
452.531
 20
50.3154
 11
452.93
 21
49.9925
  0
LINE
  8
0
 10
452.93
 20
49.9925
 11
453.293
 21
49.6298
  0
LINE
  8
0
 10
453.293
 20
49.6298
 11
453.615
 21
49.231
  0
LINE
  8
0
 10
453.615
 20
49.231
 11
453.895
 21
48.8008
  0
LINE
  8
0
 10
453.895
 20
48.8008
 11
454.128
 21
48.3436
  0
LINE
  8
0
 10
454.128
 20
48.3436
 11
454.312
 21
47.8647
  0
LINE
  8
0
 10
454.312
 20
47.8647
 11
454.444
 21
47.3691
  0
LINE
  8
0
 10
454.444
 20
47.3691
 11
454.525
 21
46.8624
  0
LINE
  8
0
 10
454.525
 20
46.8624
 11
454.552
 21
46.35
  0
LINE
  8
0
 10
454.552
 20
46.35
 11
454.525
 21
45.8376
  0
LINE
  8
0
 10
454.525
 20
45.8376
 11
454.444
 21
45.3309
  0
LINE
  8
0
 10
454.444
 20
45.3309
 11
454.312
 21
44.8353
  0
LINE
  8
0
 10
454.312
 20
44.8353
 11
454.128
 21
44.3564
  0
LINE
  8
0
 10
454.128
 20
44.3564
 11
453.895
 21
43.8992
  0
LINE
  8
0
 10
453.895
 20
43.8992
 11
453.615
 21
43.4689
  0
LINE
  8
0
 10
453.615
 20
43.4689
 11
453.293
 21
43.0702
  0
LINE
  8
0
 10
453.293
 20
43.0702
 11
452.93
 21
42.7074
  0
LINE
  8
0
 10
452.93
 20
42.7074
 11
452.531
 21
42.3846
  0
LINE
  8
0
 10
452.531
 20
42.3846
 11
452.101
 21
42.1051
  0
LINE
  8
0
 10
452.101
 20
42.1051
 11
451.644
 21
41.8722
  0
LINE
  8
0
 10
451.644
 20
41.8722
 11
451.165
 21
41.6884
  0
LINE
  8
0
 10
451.165
 20
41.6884
 11
450.669
 21
41.5556
  0
LINE
  8
0
 10
450.669
 20
41.5556
 11
450.162
 21
41.4753
  0
LINE
  8
0
 10
450.162
 20
41.4753
 11
449.65
 21
41.4485
  0
LINE
  8
0
 10
449.65
 20
41.4485
 11
449.138
 21
41.4753
  0
LINE
  8
0
 10
449.488
 20
17.2085
 11
449.328
 21
17.2339
  0
LINE
  8
0
 10
449.328
 20
17.2339
 11
449.171
 21
17.2758
  0
LINE
  8
0
 10
449.171
 20
17.2758
 11
449.02
 21
17.334
  0
LINE
  8
0
 10
449.02
 20
17.334
 11
448.875
 21
17.4077
  0
LINE
  8
0
 10
448.875
 20
17.4077
 11
448.739
 21
17.496
  0
LINE
  8
0
 10
448.739
 20
17.496
 11
448.613
 21
17.5981
  0
LINE
  8
0
 10
448.613
 20
17.5981
 11
448.498
 21
17.7128
  0
LINE
  8
0
 10
448.498
 20
17.7128
 11
448.396
 21
17.8389
  0
LINE
  8
0
 10
448.396
 20
17.8389
 11
448.308
 21
17.975
  0
LINE
  8
0
 10
448.308
 20
17.975
 11
448.234
 21
18.1196
  0
LINE
  8
0
 10
448.234
 20
18.1196
 11
448.176
 21
18.271
  0
LINE
  8
0
 10
448.176
 20
18.271
 11
448.134
 21
18.4277
  0
LINE
  8
0
 10
448.134
 20
18.4277
 11
448.108
 21
18.588
  0
LINE
  8
0
 10
448.108
 20
18.588
 11
448.1
 21
18.75
  0
LINE
  8
0
 10
448.1
 20
18.75
 11
448.108
 21
18.912
  0
LINE
  8
0
 10
448.108
 20
18.912
 11
448.134
 21
19.0723
  0
LINE
  8
0
 10
448.134
 20
19.0723
 11
448.176
 21
19.229
  0
LINE
  8
0
 10
448.176
 20
19.229
 11
448.234
 21
19.3804
  0
LINE
  8
0
 10
448.234
 20
19.3804
 11
448.308
 21
19.525
  0
LINE
  8
0
 10
448.308
 20
19.525
 11
448.396
 21
19.6611
  0
LINE
  8
0
 10
448.396
 20
19.6611
 11
448.498
 21
19.7871
  0
LINE
  8
0
 10
448.498
 20
19.7871
 11
448.613
 21
19.9019
  0
LINE
  8
0
 10
448.613
 20
19.9019
 11
448.739
 21
20.004
  0
LINE
  8
0
 10
448.739
 20
20.004
 11
448.875
 21
20.0923
  0
LINE
  8
0
 10
448.875
 20
20.0923
 11
449.02
 21
20.166
  0
LINE
  8
0
 10
449.02
 20
20.166
 11
449.171
 21
20.2241
  0
LINE
  8
0
 10
449.171
 20
20.2241
 11
449.328
 21
20.2661
  0
LINE
  8
0
 10
449.328
 20
20.2661
 11
449.488
 21
20.2915
  0
LINE
  8
0
 10
449.488
 20
20.2915
 11
449.65
 21
20.3
  0
LINE
  8
0
 10
449.65
 20
20.3
 11
449.812
 21
20.2915
  0
LINE
  8
0
 10
449.812
 20
20.2915
 11
449.972
 21
20.2661
  0
LINE
  8
0
 10
449.972
 20
20.2661
 11
450.129
 21
20.2241
  0
LINE
  8
0
 10
450.129
 20
20.2241
 11
450.28
 21
20.166
  0
LINE
  8
0
 10
450.28
 20
20.166
 11
450.425
 21
20.0923
  0
LINE
  8
0
 10
450.425
 20
20.0923
 11
450.561
 21
20.004
  0
LINE
  8
0
 10
450.561
 20
20.004
 11
450.687
 21
19.9019
  0
LINE
  8
0
 10
450.687
 20
19.9019
 11
450.802
 21
19.7871
  0
LINE
  8
0
 10
450.802
 20
19.7871
 11
450.904
 21
19.6611
  0
LINE
  8
0
 10
450.904
 20
19.6611
 11
450.992
 21
19.525
  0
LINE
  8
0
 10
450.992
 20
19.525
 11
451.066
 21
19.3804
  0
LINE
  8
0
 10
451.066
 20
19.3804
 11
451.124
 21
19.229
  0
LINE
  8
0
 10
451.124
 20
19.229
 11
451.166
 21
19.0723
  0
LINE
  8
0
 10
451.166
 20
19.0723
 11
451.191
 21
18.912
  0
LINE
  8
0
 10
451.191
 20
18.912
 11
451.2
 21
18.75
  0
LINE
  8
0
 10
451.2
 20
18.75
 11
451.191
 21
18.588
  0
LINE
  8
0
 10
451.191
 20
18.588
 11
451.166
 21
18.4277
  0
LINE
  8
0
 10
451.166
 20
18.4277
 11
451.124
 21
18.271
  0
LINE
  8
0
 10
451.124
 20
18.271
 11
451.066
 21
18.1196
  0
LINE
  8
0
 10
451.066
 20
18.1196
 11
450.992
 21
17.975
  0
LINE
  8
0
 10
450.992
 20
17.975
 11
450.904
 21
17.8389
  0
LINE
  8
0
 10
450.904
 20
17.8389
 11
450.802
 21
17.7128
  0
LINE
  8
0
 10
450.802
 20
17.7128
 11
450.687
 21
17.5981
  0
LINE
  8
0
 10
450.687
 20
17.5981
 11
450.561
 21
17.496
  0
LINE
  8
0
 10
450.561
 20
17.496
 11
450.425
 21
17.4077
  0
LINE
  8
0
 10
450.425
 20
17.4077
 11
450.28
 21
17.334
  0
LINE
  8
0
 10
450.28
 20
17.334
 11
450.129
 21
17.2758
  0
LINE
  8
0
 10
450.129
 20
17.2758
 11
449.972
 21
17.2339
  0
LINE
  8
0
 10
449.972
 20
17.2339
 11
449.812
 21
17.2085
  0
LINE
  8
0
 10
449.812
 20
17.2085
 11
449.65
 21
17.2
  0
LINE
  8
0
 10
449.65
 20
17.2
 11
449.488
 21
17.2085
  0
LINE
  8
0
 10
449.488
 20
7.20848
 11
449.328
 21
7.23386
  0
LINE
  8
0
 10
449.328
 20
7.23386
 11
449.171
 21
7.27585
  0
LINE
  8
0
 10
449.171
 20
7.27585
 11
449.02
 21
7.334
  0
LINE
  8
0
 10
449.02
 20
7.334
 11
448.875
 21
7.40765
  0
LINE
  8
0
 10
448.875
 20
7.40765
 11
448.739
 21
7.49602
  0
LINE
  8
0
 10
448.739
 20
7.49602
 11
448.613
 21
7.59811
  0
LINE
  8
0
 10
448.613
 20
7.59811
 11
448.498
 21
7.71284
  0
LINE
  8
0
 10
448.498
 20
7.71284
 11
448.396
 21
7.83893
  0
LINE
  8
0
 10
448.396
 20
7.83893
 11
448.308
 21
7.97499
  0
LINE
  8
0
 10
448.308
 20
7.97499
 11
448.234
 21
8.11955
  0
LINE
  8
0
 10
448.234
 20
8.11955
 11
448.176
 21
8.27101
  0
LINE
  8
0
 10
448.176
 20
8.27101
 11
448.134
 21
8.42773
  0
LINE
  8
0
 10
448.134
 20
8.42773
 11
448.108
 21
8.58797
  0
LINE
  8
0
 10
448.108
 20
8.58797
 11
448.1
 21
8.75
  0
LINE
  8
0
 10
448.1
 20
8.75
 11
448.108
 21
8.91202
  0
LINE
  8
0
 10
448.108
 20
8.91202
 11
448.134
 21
9.07225
  0
LINE
  8
0
 10
448.134
 20
9.07225
 11
448.176
 21
9.22897
  0
LINE
  8
0
 10
448.176
 20
9.22897
 11
448.234
 21
9.38043
  0
LINE
  8
0
 10
448.234
 20
9.38043
 11
448.308
 21
9.52499
  0
LINE
  8
0
 10
448.308
 20
9.52499
 11
448.396
 21
9.66106
  0
LINE
  8
0
 10
448.396
 20
9.66106
 11
448.498
 21
9.78714
  0
LINE
  8
0
 10
448.498
 20
9.78714
 11
448.613
 21
9.90187
  0
LINE
  8
0
 10
448.613
 20
9.90187
 11
448.739
 21
10.004
  0
LINE
  8
0
 10
448.739
 20
10.004
 11
448.875
 21
10.0923
  0
LINE
  8
0
 10
448.875
 20
10.0923
 11
449.02
 21
10.166
  0
LINE
  8
0
 10
449.02
 20
10.166
 11
449.171
 21
10.2241
  0
LINE
  8
0
 10
449.171
 20
10.2241
 11
449.328
 21
10.2661
  0
LINE
  8
0
 10
449.328
 20
10.2661
 11
449.488
 21
10.2915
  0
LINE
  8
0
 10
449.488
 20
10.2915
 11
449.65
 21
10.3
  0
LINE
  8
0
 10
449.65
 20
10.3
 11
449.812
 21
10.2915
  0
LINE
  8
0
 10
449.812
 20
10.2915
 11
449.972
 21
10.2661
  0
LINE
  8
0
 10
449.972
 20
10.2661
 11
450.129
 21
10.2241
  0
LINE
  8
0
 10
450.129
 20
10.2241
 11
450.28
 21
10.166
  0
LINE
  8
0
 10
450.28
 20
10.166
 11
450.425
 21
10.0923
  0
LINE
  8
0
 10
450.425
 20
10.0923
 11
450.561
 21
10.004
  0
LINE
  8
0
 10
450.561
 20
10.004
 11
450.687
 21
9.90187
  0
LINE
  8
0
 10
450.687
 20
9.90187
 11
450.802
 21
9.78714
  0
LINE
  8
0
 10
450.802
 20
9.78714
 11
450.904
 21
9.66106
  0
LINE
  8
0
 10
450.904
 20
9.66106
 11
450.992
 21
9.52499
  0
LINE
  8
0
 10
450.992
 20
9.52499
 11
451.066
 21
9.38043
  0
LINE
  8
0
 10
451.066
 20
9.38043
 11
451.124
 21
9.22897
  0
LINE
  8
0
 10
451.124
 20
9.22897
 11
451.166
 21
9.07225
  0
LINE
  8
0
 10
451.166
 20
9.07225
 11
451.191
 21
8.91202
  0
LINE
  8
0
 10
451.191
 20
8.91202
 11
451.2
 21
8.75
  0
LINE
  8
0
 10
451.2
 20
8.75
 11
451.191
 21
8.58797
  0
LINE
  8
0
 10
451.191
 20
8.58797
 11
451.166
 21
8.42773
  0
LINE
  8
0
 10
451.166
 20
8.42773
 11
451.124
 21
8.27101
  0
LINE
  8
0
 10
451.124
 20
8.27101
 11
451.066
 21
8.11955
  0
LINE
  8
0
 10
451.066
 20
8.11955
 11
450.992
 21
7.97499
  0
LINE
  8
0
 10
450.992
 20
7.97499
 11
450.904
 21
7.83893
  0
LINE
  8
0
 10
450.904
 20
7.83893
 11
450.802
 21
7.71284
  0
LINE
  8
0
 10
450.802
 20
7.71284
 11
450.687
 21
7.59811
  0
LINE
  8
0
 10
450.687
 20
7.59811
 11
450.561
 21
7.49602
  0
LINE
  8
0
 10
450.561
 20
7.49602
 11
450.425
 21
7.40765
  0
LINE
  8
0
 10
450.425
 20
7.40765
 11
450.28
 21
7.334
  0
LINE
  8
0
 10
450.28
 20
7.334
 11
450.129
 21
7.27585
  0
LINE
  8
0
 10
450.129
 20
7.27585
 11
449.972
 21
7.23386
  0
LINE
  8
0
 10
449.972
 20
7.23386
 11
449.812
 21
7.20848
  0
LINE
  8
0
 10
449.812
 20
7.20848
 11
449.65
 21
7.2
  0
LINE
  8
0
 10
449.65
 20
7.2
 11
449.488
 21
7.20848
  0
LINE
  8
0
 10
384.3
 20
27.1
 11
393.6
 21
27.1
  0
LINE
  8
0
 10
393.6
 20
27.1
 11
393.6
 21
57.1
  0
LINE
  8
0
 10
393.6
 20
57.1
 11
390.5
 21
57.1
  0
LINE
  8
0
 10
390.5
 20
57.1
 11
390.5
 21
37.1
  0
LINE
  8
0
 10
390.5
 20
37.1
 11
387.4
 21
37.1
  0
LINE
  8
0
 10
387.4
 20
37.1
 11
387.4
 21
57.1
  0
LINE
  8
0
 10
387.4
 20
57.1
 11
382.75
 21
57.1
  0
LINE
  8
0
 10
382.75
 20
57.1
 11
382.75
 21
54
  0
LINE
  8
0
 10
382.75
 20
54
 11
379.65
 21
54
  0
LINE
  8
0
 10
379.65
 20
54
 11
379.65
 21
57.1
  0
LINE
  8
0
 10
379.65
 20
57.1
 11
375
 21
57.1
  0
LINE
  8
0
 10
375
 20
57.1
 11
375
 21
27.1
  0
LINE
  8
0
 10
375
 20
27.1
 11
381.2
 21
27.1
  0
LINE
  8
0
 10
381.2
 20
27.1
 11
381.2
 21
24
  0
LINE
  8
0
 10
381.2
 20
24
 11
384.3
 21
24
  0
LINE
  8
0
 10
384.3
 20
24
 11
384.3
 21
27.1
  0
LINE
  8
0
 10
388.95
 20
0.899994
 11
392.05
 21
0.899994
  0
LINE
  8
0
 10
392.05
 20
0.899994
 11
392.05
 21
3.99998
  0
LINE
  8
0
 10
392.05
 20
3.99998
 11
388.95
 21
3.99998
  0
LINE
  8
0
 10
388.95
 20
3.99998
 11
388.95
 21
7.09999
  0
LINE
  8
0
 10
388.95
 20
7.09999
 11
392.05
 21
7.09999
  0
LINE
  8
0
 10
392.05
 20
7.09999
 11
392.05
 21
10.2
  0
LINE
  8
0
 10
392.05
 20
10.2
 11
395.15
 21
10.2
  0
LINE
  8
0
 10
395.15
 20
10.2
 11
395.15
 21
7.09999
  0
LINE
  8
0
 10
395.15
 20
7.09999
 11
398.25
 21
7.09999
  0
LINE
  8
0
 10
398.25
 20
7.09999
 11
398.25
 21
3.99998
  0
LINE
  8
0
 10
398.25
 20
3.99998
 11
395.15
 21
3.99998
  0
LINE
  8
0
 10
395.15
 20
3.99998
 11
395.15
 21
0.899994
  0
LINE
  8
0
 10
395.15
 20
0.899994
 11
398.25
 21
0.899994
  0
LINE
  8
0
 10
398.25
 20
0.899994
 11
398.25
 21
-2.2
  0
LINE
  8
0
 10
398.25
 20
-2.2
 11
407.55
 21
-2.2
  0
LINE
  8
0
 10
407.55
 20
-2.2
 11
407.55
 21
0.899994
  0
LINE
  8
0
 10
407.55
 20
0.899994
 11
407
 21
0.899994
  0
LINE
  8
0
 10
407
 20
0.899994
 11
407
 21
13.6
  0
LINE
  8
0
 10
407
 20
13.6
 11
431.5
 21
13.6
  0
LINE
  8
0
 10
431.5
 20
13.6
 11
431.5
 21
0.899994
  0
LINE
  8
0
 10
431.5
 20
0.899994
 11
436
 21
0.899994
  0
LINE
  8
0
 10
436
 20
0.899994
 11
436
 21
20.9
  0
LINE
  8
0
 10
436
 20
20.9
 11
375
 21
20.9
  0
LINE
  8
0
 10
375
 20
20.9
 11
375
 21
0.899994
  0
LINE
  8
0
 10
375
 20
0.899994
 11
378.1
 21
0.899994
  0
LINE
  8
0
 10
378.1
 20
0.899994
 11
378.1
 21
10.9
  0
LINE
  8
0
 10
378.1
 20
10.9
 11
381.2
 21
10.9
  0
LINE
  8
0
 10
381.2
 20
10.9
 11
381.2
 21
-2.2
  0
LINE
  8
0
 10
381.2
 20
-2.2
 11
388.95
 21
-2.2
  0
LINE
  8
0
 10
388.95
 20
-2.2
 11
388.95
 21
0.899994
  0
LINE
  8
0
 10
404.895
 20
5.90547
 11
404.792
 21
5.92184
  0
LINE
  8
0
 10
404.792
 20
5.92184
 11
404.691
 21
5.94893
  0
LINE
  8
0
 10
404.691
 20
5.94893
 11
404.593
 21
5.98645
  0
LINE
  8
0
 10
404.593
 20
5.98645
 11
404.5
 21
6.03397
  0
LINE
  8
0
 10
404.5
 20
6.03397
 11
404.412
 21
6.09097
  0
LINE
  8
0
 10
404.412
 20
6.09097
 11
404.331
 21
6.15685
  0
LINE
  8
0
 10
404.331
 20
6.15685
 11
404.257
 21
6.23087
  0
LINE
  8
0
 10
404.257
 20
6.23087
 11
404.191
 21
6.31221
  0
LINE
  8
0
 10
404.191
 20
6.31221
 11
404.134
 21
6.39999
  0
LINE
  8
0
 10
404.134
 20
6.39999
 11
404.086
 21
6.49326
  0
LINE
  8
0
 10
404.086
 20
6.49326
 11
404.049
 21
6.59097
  0
LINE
  8
0
 10
404.049
 20
6.59097
 11
404.022
 21
6.69208
  0
LINE
  8
0
 10
404.022
 20
6.69208
 11
404.005
 21
6.79546
  0
LINE
  8
0
 10
404.005
 20
6.79546
 11
404
 21
6.89999
  0
LINE
  8
0
 10
404
 20
6.89999
 11
404.005
 21
7.00452
  0
LINE
  8
0
 10
404.005
 20
7.00452
 11
404.022
 21
7.10791
  0
LINE
  8
0
 10
404.022
 20
7.10791
 11
404.049
 21
7.20901
  0
LINE
  8
0
 10
404.049
 20
7.20901
 11
404.086
 21
7.30673
  0
LINE
  8
0
 10
404.086
 20
7.30673
 11
404.134
 21
7.39999
  0
LINE
  8
0
 10
404.134
 20
7.39999
 11
404.191
 21
7.48778
  0
LINE
  8
0
 10
404.191
 20
7.48778
 11
404.257
 21
7.56912
  0
LINE
  8
0
 10
404.257
 20
7.56912
 11
404.331
 21
7.64314
  0
LINE
  8
0
 10
404.331
 20
7.64314
 11
404.412
 21
7.70901
  0
LINE
  8
0
 10
404.412
 20
7.70901
 11
404.5
 21
7.76602
  0
LINE
  8
0
 10
404.5
 20
7.76602
 11
404.593
 21
7.81354
  0
LINE
  8
0
 10
404.593
 20
7.81354
 11
404.691
 21
7.85104
  0
LINE
  8
0
 10
404.691
 20
7.85104
 11
404.792
 21
7.87814
  0
LINE
  8
0
 10
404.792
 20
7.87814
 11
404.895
 21
7.89452
  0
LINE
  8
0
 10
404.895
 20
7.89452
 11
405
 21
7.89999
  0
LINE
  8
0
 10
405
 20
7.89999
 11
405.105
 21
7.89452
  0
LINE
  8
0
 10
405.105
 20
7.89452
 11
405.208
 21
7.87814
  0
LINE
  8
0
 10
405.208
 20
7.87814
 11
405.309
 21
7.85104
  0
LINE
  8
0
 10
405.309
 20
7.85104
 11
405.407
 21
7.81354
  0
LINE
  8
0
 10
405.407
 20
7.81354
 11
405.5
 21
7.76602
  0
LINE
  8
0
 10
405.5
 20
7.76602
 11
405.588
 21
7.70901
  0
LINE
  8
0
 10
405.588
 20
7.70901
 11
405.669
 21
7.64314
  0
LINE
  8
0
 10
405.669
 20
7.64314
 11
405.743
 21
7.56912
  0
LINE
  8
0
 10
405.743
 20
7.56912
 11
405.809
 21
7.48778
  0
LINE
  8
0
 10
405.809
 20
7.48778
 11
405.866
 21
7.39999
  0
LINE
  8
0
 10
405.866
 20
7.39999
 11
405.914
 21
7.30673
  0
LINE
  8
0
 10
405.914
 20
7.30673
 11
405.951
 21
7.20901
  0
LINE
  8
0
 10
405.951
 20
7.20901
 11
405.978
 21
7.10791
  0
LINE
  8
0
 10
405.978
 20
7.10791
 11
405.995
 21
7.00452
  0
LINE
  8
0
 10
405.995
 20
7.00452
 11
406
 21
6.89999
  0
LINE
  8
0
 10
406
 20
6.89999
 11
405.995
 21
6.79546
  0
LINE
  8
0
 10
405.995
 20
6.79546
 11
405.978
 21
6.69208
  0
LINE
  8
0
 10
405.978
 20
6.69208
 11
405.951
 21
6.59097
  0
LINE
  8
0
 10
405.951
 20
6.59097
 11
405.914
 21
6.49326
  0
LINE
  8
0
 10
405.914
 20
6.49326
 11
405.866
 21
6.39999
  0
LINE
  8
0
 10
405.866
 20
6.39999
 11
405.809
 21
6.31221
  0
LINE
  8
0
 10
405.809
 20
6.31221
 11
405.743
 21
6.23087
  0
LINE
  8
0
 10
405.743
 20
6.23087
 11
405.669
 21
6.15685
  0
LINE
  8
0
 10
405.669
 20
6.15685
 11
405.588
 21
6.09097
  0
LINE
  8
0
 10
405.588
 20
6.09097
 11
405.5
 21
6.03397
  0
LINE
  8
0
 10
405.5
 20
6.03397
 11
405.407
 21
5.98645
  0
LINE
  8
0
 10
405.407
 20
5.98645
 11
405.309
 21
5.94893
  0
LINE
  8
0
 10
405.309
 20
5.94893
 11
405.208
 21
5.92184
  0
LINE
  8
0
 10
405.208
 20
5.92184
 11
405.105
 21
5.90547
  0
LINE
  8
0
 10
405.105
 20
5.90547
 11
405
 21
5.89999
  0
LINE
  8
0
 10
405
 20
5.89999
 11
404.895
 21
5.90547
  0
LINE
  8
0
 10
433.395
 20
5.90547
 11
433.292
 21
5.92184
  0
LINE
  8
0
 10
433.292
 20
5.92184
 11
433.191
 21
5.94893
  0
LINE
  8
0
 10
433.191
 20
5.94893
 11
433.093
 21
5.98645
  0
LINE
  8
0
 10
433.093
 20
5.98645
 11
433
 21
6.03397
  0
LINE
  8
0
 10
433
 20
6.03397
 11
432.912
 21
6.09097
  0
LINE
  8
0
 10
432.912
 20
6.09097
 11
432.831
 21
6.15685
  0
LINE
  8
0
 10
432.831
 20
6.15685
 11
432.757
 21
6.23087
  0
LINE
  8
0
 10
432.757
 20
6.23087
 11
432.691
 21
6.31221
  0
LINE
  8
0
 10
432.691
 20
6.31221
 11
432.634
 21
6.39999
  0
LINE
  8
0
 10
432.634
 20
6.39999
 11
432.586
 21
6.49326
  0
LINE
  8
0
 10
432.586
 20
6.49326
 11
432.549
 21
6.59097
  0
LINE
  8
0
 10
432.549
 20
6.59097
 11
432.522
 21
6.69208
  0
LINE
  8
0
 10
432.522
 20
6.69208
 11
432.505
 21
6.79546
  0
LINE
  8
0
 10
432.505
 20
6.79546
 11
432.5
 21
6.89999
  0
LINE
  8
0
 10
432.5
 20
6.89999
 11
432.505
 21
7.00452
  0
LINE
  8
0
 10
432.505
 20
7.00452
 11
432.522
 21
7.10791
  0
LINE
  8
0
 10
432.522
 20
7.10791
 11
432.549
 21
7.20901
  0
LINE
  8
0
 10
432.549
 20
7.20901
 11
432.586
 21
7.30673
  0
LINE
  8
0
 10
432.586
 20
7.30673
 11
432.634
 21
7.39999
  0
LINE
  8
0
 10
432.634
 20
7.39999
 11
432.691
 21
7.48778
  0
LINE
  8
0
 10
432.691
 20
7.48778
 11
432.757
 21
7.56912
  0
LINE
  8
0
 10
432.757
 20
7.56912
 11
432.831
 21
7.64314
  0
LINE
  8
0
 10
432.831
 20
7.64314
 11
432.912
 21
7.70901
  0
LINE
  8
0
 10
432.912
 20
7.70901
 11
433
 21
7.76602
  0
LINE
  8
0
 10
433
 20
7.76602
 11
433.093
 21
7.81354
  0
LINE
  8
0
 10
433.093
 20
7.81354
 11
433.191
 21
7.85104
  0
LINE
  8
0
 10
433.191
 20
7.85104
 11
433.292
 21
7.87814
  0
LINE
  8
0
 10
433.292
 20
7.87814
 11
433.395
 21
7.89452
  0
LINE
  8
0
 10
433.395
 20
7.89452
 11
433.5
 21
7.89999
  0
LINE
  8
0
 10
433.5
 20
7.89999
 11
433.605
 21
7.89452
  0
LINE
  8
0
 10
433.605
 20
7.89452
 11
433.708
 21
7.87814
  0
LINE
  8
0
 10
433.708
 20
7.87814
 11
433.809
 21
7.85104
  0
LINE
  8
0
 10
433.809
 20
7.85104
 11
433.907
 21
7.81354
  0
LINE
  8
0
 10
433.907
 20
7.81354
 11
434
 21
7.76602
  0
LINE
  8
0
 10
434
 20
7.76602
 11
434.088
 21
7.70901
  0
LINE
  8
0
 10
434.088
 20
7.70901
 11
434.169
 21
7.64314
  0
LINE
  8
0
 10
434.169
 20
7.64314
 11
434.243
 21
7.56912
  0
LINE
  8
0
 10
434.243
 20
7.56912
 11
434.309
 21
7.48778
  0
LINE
  8
0
 10
434.309
 20
7.48778
 11
434.366
 21
7.39999
  0
LINE
  8
0
 10
434.366
 20
7.39999
 11
434.414
 21
7.30673
  0
LINE
  8
0
 10
434.414
 20
7.30673
 11
434.451
 21
7.20901
  0
LINE
  8
0
 10
434.451
 20
7.20901
 11
434.478
 21
7.10791
  0
LINE
  8
0
 10
434.478
 20
7.10791
 11
434.495
 21
7.00452
  0
LINE
  8
0
 10
434.495
 20
7.00452
 11
434.5
 21
6.89999
  0
LINE
  8
0
 10
434.5
 20
6.89999
 11
434.495
 21
6.79546
  0
LINE
  8
0
 10
434.495
 20
6.79546
 11
434.478
 21
6.69208
  0
LINE
  8
0
 10
434.478
 20
6.69208
 11
434.451
 21
6.59097
  0
LINE
  8
0
 10
434.451
 20
6.59097
 11
434.414
 21
6.49326
  0
LINE
  8
0
 10
434.414
 20
6.49326
 11
434.366
 21
6.39999
  0
LINE
  8
0
 10
434.366
 20
6.39999
 11
434.309
 21
6.31221
  0
LINE
  8
0
 10
434.309
 20
6.31221
 11
434.243
 21
6.23087
  0
LINE
  8
0
 10
434.243
 20
6.23087
 11
434.169
 21
6.15685
  0
LINE
  8
0
 10
434.169
 20
6.15685
 11
434.088
 21
6.09097
  0
LINE
  8
0
 10
434.088
 20
6.09097
 11
434
 21
6.03397
  0
LINE
  8
0
 10
434
 20
6.03397
 11
433.907
 21
5.98645
  0
LINE
  8
0
 10
433.907
 20
5.98645
 11
433.809
 21
5.94893
  0
LINE
  8
0
 10
433.809
 20
5.94893
 11
433.708
 21
5.92184
  0
LINE
  8
0
 10
433.708
 20
5.92184
 11
433.605
 21
5.90547
  0
LINE
  8
0
 10
433.605
 20
5.90547
 11
433.5
 21
5.89999
  0
LINE
  8
0
 10
433.5
 20
5.89999
 11
433.395
 21
5.90547
  0
ENDSEC
  0
SECTION
  2
OBJECTS
  0
DICTIONARY
  0
ENDSEC
  0
EOF
